<mxfile host="app.diagrams.net" agent="Mozilla/5.0 (Windows NT 10.0; Win64; x64) AppleWebKit/537.36 (KHTML, like Gecko) Chrome/130.0.0.0 Safari/537.36 Edg/130.0.0.0" version="24.8.0" pages="2">
  <diagram name="Design POS" id="fIAqq8aQhd9q5YB-gazK">
    <mxGraphModel dx="2002" dy="1562" grid="1" gridSize="10" guides="1" tooltips="1" connect="1" arrows="1" fold="1" page="1" pageScale="1" pageWidth="850" pageHeight="1100" math="0" shadow="0">
      <root>
        <mxCell id="0" />
        <mxCell id="1" parent="0" />
        <mxCell id="JINqtBgBQCpbX40b2igy-2" value="" style="shape=image;verticalLabelPosition=bottom;labelBackgroundColor=default;verticalAlign=top;aspect=fixed;imageAspect=0;image=data:image/png,iVBORw0KGgoAAAANSUhEUgAAB1kAAAPCCAYAAAA6eWExAAAAAXNSR0IArs4c6QAAAARnQU1BAACxjwv8YQUAAAAJcEhZcwAADsMAAA7DAcdvqGQAAH0HSURBVHhe7N0JfBxl3Qfwf9I0vVtKWyjlLAXKfd8BagGRQ0G5BAFBEEUR9EVfFEE8kFdERVEUFEUQRARBQS6RqyhHQ7nvs0ChnKV3eqXpu89kNk3TtM2UNmnp94tPd+aZ2dnZyWbjZ3/7f56KmpqaOdHCnDmNXQ0NDbHeeuvFrrvuGltvvXVstNFG0aNHj2zbh9lHjjopXwIAAAAAAAA+zBpm18fsaVNizrTJpTYpYua0qKyszLZVVFRkty3NF7KmgDW1Tp06xf777x/f+MY3FnjnDyshKwAAAAAAAKyYZr7zSsye8G506lSZ5aStZaWNEWyuHLCuscYacckll8T//u//rnABKwAAAAAAALDiql5lnei8xoYxp1N1U37a0jwha5J22mabbWL99dfPe1ZArVwoAAAAAAAAYMVQ1b1XVHTr1WrAmjSFrOUUNs3Beuqpp+a9KzBBKwAAAAAAAKywqlddJ6Jz11aD1nkqWRsaGmLXXXc1RDAAAAAAAACwwqvo3qepWLW5+SpZt99++7xnxdV0iVpJpQEAAAAAAIAVRNeeCw9ZyzbYYIN8CQAAAAAAAGDF1alrj/kC1mS+kLV79+75EgAAAAAAAMCKq1Pn6nxpXvOFrDQyUDAAAAAAAADQmnlC1tZKXQEAAAAAAABWVG0aLhgAAAAAAACABROytqpZGq26FwAAAAAAAGhGyAoAAAAAAABQgJAVAAAAAAAAoAAhKwAAAAAAAEABQlYAAAAAAACAAoSsAAAAAAAAAAUIWQEAAAAAAAAKELICAAAAAAAAFCBkBQAAAAAAAChAyAoAAAAAAABQwDIdss6ZMyfGjBkTL7zwQrz99tt5b6O07bXXXsu2vfHGG3lv62pra2P//fePQw45JJ599tm8FwAAAAAAAKC4ZTpkffXVV+PYY4+N448/Pi699NK8t1EKXcvbzjvvvLx3fimMvfHGG2Ps2LExevTouPjii7M+AAAAAAAAgMWxTIesU6ZMifHjx2e3M2bMyHsbTZ48OSZMmJBtmz59et47v4qKihgyZEhUVlZGdXV17LDDDlkfAAAAAAAAwOJYIeZkPeqoo+Kmm27KKloPPvjgvJdlzTqrD4wBK6+Ury3akDVXz+7Tmg3XXTtfWrRBq/TPWlulY+9Vs33stt2W0b1rl7x3ySt6PT6oTTdYd4k9XpHrvyDp+e+587ZZW9DPuS123HKT7OeVbpdHS+o6tPfrKSmf++47btPujw0AAAAAAEtTRU1NTTZ2bkNDQ9TX12fzl6bK0GuuuSbuueeeeO+996Jbt26xzTbbxMc//vGsf+LEiXHKKafEaqutlh3koYcein/84x/Z/KjTpk2L1VdfPfbee++s0vTxxx+P/v37x7e+9a1s3zTHajrGo48+mh2nX79+MWzYsNhss83ib3/7W8ycOTO+9rWvZXOnXnvttfHggw9m9xs4cGBsuOGG2fKAAQPiwAMPjMMPPzxb33rrrbPHu+WWW+LNN9+MlVZaKXbaaac44ogjsuUnn3wy/vznP8esWbOywHWLLbaIkSNHxl/+8pd48cUXsyrZdB7bbbddfOYzn4nD/veHpaNWlP7LqXxdqlJQedbXjo+tN94gZs6qjytv/Hdc9vdb8q2t+2Fp/5qtN4tZpdfslTfeHpded3PWn4513mknxdDBa8U748bHeZf+NUY+9nS2rTXHHLhvfObje5Z+xJVxzS13xu+uviHfMq8U0h24126x7pqDorpz57y3cTjqCZOnRO3jz8Tvr/lnvPv+hHzL4luc6/HVow+JfXbbMbpWV+c985oxc1bUTZsejzzzfPztX3fH0y++km+Z95pNqZsWF/7l73HziAfyrcXssMXG8Y1jD88Ctbfeez/OvfjP8fDTz+dbF+3T++6eXes1V1tlnuucTC+9N7zy+ptx4933xY133Zf3zm/j9daJgz/2kdiqdP1W6tVznsr19D43ftKUeOCxp7Kf9ytvvJVvaXT2/xwf22++SXSu6pT3zKt8HR988pm48p//nu/+6fl/9bOHxGoD+i20Yj69btL1+cVlV7f6+lwS16GsLa+nfYftGMcfsn+s1Hve67Uo6Xo+9NRz8d1f/iHqpjeONrDdZhvFYfvtERsPWSe6lR67LD3n9Pp68vmX4/Ib/jXPa7C5Rb2W0+98+hk889KrcdXNd8Sjz7yQbwEAAAAAgKWj7rmRUVVVlY2cW9ZprbXW+l5aSB+Apw/MjzzyyPjqV7+ahaZvvfVWTJo0KcaNG5cFlX//+9+z8PO1116LT3ziE1kwmULZL3/5y1nA+v7772fD+L7xxhsxYsSILMh85ZVXsr7DDjssCzOPO+64uPfee+Pdd9/N+tPcqukYN998cxZ4pv333XffOP/88+OJJ57ITjJJwwKnbaml4+y+++5ZCJukY6XHS+eb9kvBcApx07nvtttucfnll8f111+f3TeFryl4PeaYY7I5Wuvq6rLwtfwcZ8+eHc+/nYIyIWt7OXSfPWKvXbaLqk6dstZ/pT4x6olnY9KUqfke8/vsJ/eJvr17RafS/rPqZ8e/720M4zfbYEh8bNfto0e3btGze7dYrX+/uLv2kWyf1hyy9/AYvMZq0an0S5HCm3/9tzbf0igFVKd/6ej4zMc/Gqv065s9XnMpkOrWpUust9bqWcXe5Kl18cKrr+dbF8/iXI8vHf6p6N+3T742v3ScFHgNXmNQ7LrtljF12vR4bvRr2bbm16y6c1WMnzQ57n/kyWxbUScdeVAW1iY9unWNzqU3nHsefDRbX5gUjP7g5ONi7113jJVX6j3fdU6ya9F3pdhpy01j0/XXjXsfeny+n+txB388vnrUwdk5pJ9Ly8Awraef6QbrrBm777jtPNchhZCf+uhu0atH92y9NeXrOKT0895lmy2ya/XymLH51sjCxW02GTrf47aUtqfw9NU33oonX3g5711y16G5tryedt12i9hm0w1Lj1dscIPy80jP4e1x4+Pk0rU/4bBPZuFw+tk3l/btUt052/aR7bfKXmuPPvtivnWuRb2W0+9q1y7VscbAVWLXbTbP/nY1v4YAAAAAALCkzRr3RhawNv/8f76QdZVVVonrrrsuW0+J7H777Rc777xzFlim+VGTdICDDjooq0RNAWsKKZNUjbrPPvtklasp0Czr06dPfPrTn44TTzwxC2mTVAWbgtpNNtkkC1qnTp37gf+nPvWp6Nu3b9ZSeJtssMEGsf/++8e2224bRx99dBY+lEPWdN7rrbdedrxU5fryy40fuKf7psrUUaNGZQFqsueee2ZDB6cK2yQd6/jjj4/BgwdnFbif//zn4+pb7y5taf+QdYuhQ+J/jj4k9t9959hntx0KtxS43LeY4VhHSYHXFw87IFbtt3LeE9Gta3VMmDQlnnj+pbxnfp/cc7es6i55+71xTeFoqiBMgVH3bl2z9RTWDOjXN/77UOPPu6WPf2SnWC0fKvjNd+cep+wbx30mdt9h66bwKYVZY995L55+YXRMmDw5q7ZLwVH6nUjh2xYbrp9V65WDu6KWxPVIlbVvvPNuFgCW2/QZM7PQsxx0pZDwpdfeyJ5z82uWtr9Y6r/v4blfcGirNCTsJ3bfJTt+ko6VHvPpl15ZaIVvGlL2W188MjZYZ63sPsns2Q3xVunn+s7745vOPwVrKWBL+6SArhzslX3+kE9kFaDl6sly5WT6eb0/cVJMnDy1dP9O2X3Lxxg3YWJToNzytZMqod8a9/481zG916Tjp/un/Qavvto8geUu22yeBbhJCnDHvPX2PPcvt/cnTIoHHns6/nzDv5oC0iV1HZpr6+spHXut1VbJqmSbn2f2uuneLXusVMX7+lvvxLjStSxvT8/jvkeeiJvuvj+7/imkLv/807VKr6/nXxmT3aZzLV+7FMymQLlL6fenZaVzkddyOk4aNvyVN96MN95+N7sPAAAAAAAsaW0KWceOHZtVdXbp0iV+ecEFUVGza7w4YGCcdMghMea5Z6N3795ZkLnXXnvFSy+9lAWaKVQdMmRInPDt78a978+Kj+31sdh1682zoXtTteuaa66ZBbAp3Ez7pvXTvn92jBm4RXQbsmUc8bFhMeKOf2dDBScpZB0+fHisvPLKccMNjcO37rrrrvGNb3wjC1nT46eq2XLImoLhCy+8MPbYY48sRE2P+/zzz2fPKa2nsLV5yJqeX7lKNg1DnKpd01DBqTq2e/fu+dCz7R+ypuE196rZLgb0XSmr0izaenbvGqNff2uBgcuyaL+P7Bx77LhNVvU2bfqM7MWZllMV6p33P7TACr3mQUzzcLRlUJaOl8Kj1sKc5GO7bL/AkPUzn/hofHKPXZsq8l4b+3b86LeXxwVXXBt3lM7tlnseiKtuuiMLlVIwlqoEU+iTKl4fKT3WwipPF2RJXI+nXxwdJ37/vLjhjv82tWtvGxFTS8fbZL11snPsWvr9njSlLkY9+ex81yxV4i5OyHrk/h+LDddtrGJN4Wa6LinkmzV79kKHbD71+CNi8w2GZM81/c4+/txLcdaFl8ZFV10/z/nf+p+R2TVeqfRav//Rp+L6Un9ZCniP/tQ+Tc8hVRRfccNt8a2fXVTa7z/ZMdLtX266Pas8Hdh/5SzAS33lcK7ldbj7wUfjmz+5sOkcUrv6lruykHPo4DWzL3qk5RTglisp0xDW5ZA1hbvHnvajee7f1O68t/Qcnpzn57kkrkNLbX09pWuRqsHnOcdS69OrZ2yy/rpZqDth0uT46R+uit82O5/0PNJrqOX1f2/8xPjNlX+Pc353RdxW+p1KLV27KaWfy0al97n02kjXL/0cymF/WVtey+n1tcn6g7PXcpfSz2DqtGkLfY0BAAAAAMAH0VrIOt/YkOUK1KFDh8Y7qw6Mox9+Ms557uX47IOPx5pfPCk2+uqpMfTL/xN/eu2duL+qV2x0XKnv6C/HwI9/Og688Oo471/3xf7n/zVqZ/aIjY84KTb57P9E/72PjMueGRebfv702PQL3431jj4tTntkSpz2n9fjf/87Nv76fq/Yaquts8ddHKkCNYWlZZtuumm+FNnwwS197nOfizXWWCNbvvXWW7O5W1M165VXXtkU9HaEVEWWQohpM2YuVkuhWQo3lic7brFJVt3WMGdOjHjw0RiXn/9aq60ae+2yfbb8QaUgJoWpab7Mtkrh4PAdts7CoCRd119feV08+MQz2Xpzv/vrDVnomr6kkKThUHfbbstsuaileT3+dutdMTqfQzRV5qb5ZZeUVJW46fqDszeXFIDdfv+omDlrVvaGs+0mG8aaA1fJ95xXGmJ5sw3WbXpTeuqF0XHazy5qdb7OVA37y8v/Foef8r1sLtPm0pcTevdsHOY3VTqmL0pcfv2/svWW/jPqsfjy938WX/jOuYsVzN189/1Nlbnp9bFG6ef9QS2p69BSe/x+Jc2v/9TSzz9d+5tG3J+tN5cC0uv+PSJ7bST9V14pPrLDVtlyEek45flwK0vXbO3S8wEAAAAAgPY0X8iaKqiSVGU0ffbsmJ2vT66vj9emTG1sk0tt0pQYM3FyjBk/qbG9PzFm5FVRqXJtzLhJ8dr7aduUeG381BgzIbW6eH1iXel+0+L9aY0fsicz6huiqvO88/cV0Tw1bos0J+uvf/3r2HvvvbOwNc3x+txzz2XzwKb5WztKqko79oxz49D/+d5itZP/71fxxjvv5Udb9qVgKVWjJRNLr6e7Rj4cIx9/OguEUjCUAqIPIoXWb7/3frY8YOWV4guf3j8bkrUttt9846YhVtPvRO3jzyw0kLvx7nubgrcU6m6zyQbZchFL+3okzb9E0KlyyVVo773rDtmwzMno19+Mi/96Q7w69u1sfdX+fRcYOqfnm4ajTVKlZQpn60q3RWy47tqxzhqr5WuRDU+bQrilZcxb7yywonhxLYnr0FJ7vJ6Sltc/DZWdKoQX5Oqb72h6baSAdPOhQ7IvNRTVkV+IAQAAAACWD1858qD450U/jv133yXvmSttu+HCc7KR+tLnnFf85MyspeWFSSMiXv2LH8TNF/90nnbpOd+OA/calu3zlSMOjH/94bzstj2kc/7zT8+Mi77/jQV+3vqTU0+Mq37+/ewz2aUpncMfzv5WvvbhNl/ImobyTdJwu9tUVsQ5G68fn15zUFy58zYx+N47Y8AdN8Wq/7ktfrD1hnHcwF7R/+ER0f/x/8Y6rz4Rlx6zfxy4zcZx6XH7x/Eb94/+z4yIlZ/4d6z/em18d5fB0XfU32OlkdfEoMeuj0v2WD2O37x/fGmzfnHsmrPjkYcfzh53Qerq6poC4CUhVb+eddZZcckll8QFF1yQDU08e/bs+NOf/pTvwdK205abZsOWJimYSSHmvQ8/kQVCSQqIUlC0uBoa5mTDmaZ5HJN11xgUX/j0AdnyoqQ5S1MQlaS5KF94dUy2vCCp4nDsO3OHPF21/8oLrN5ckKV9PdIba6+ePfK1NERs8eGMW5Oe51YbbZAFZqlCMZ13CghT1W996Xcqhc6pWrG1N/Z1Bq2W3S9Jw+4+9ORz2XIR6665WvTJn1eaw/SZl17NlpeW9Ae0T6/Gx0tha7k69INYEtehpaX9eipref1fePWNbHlB0msjDRFcloYk3nKj9fO1tklfllil2Zcg3npv+RkiHQAAAABoP+lz/jR9Xv++ffKeudK2qqqqbHq218a+lRXwvPz62Gy0voXpVjpezx7d4+XX3ohfXHp1XPSXf8S9Dz2efdb5uQP3jX2H7ZgdJ03N19bCuBRMXn7udwrnCmXp8/c08mIawfJTH20Meps7aK9h2WiKVZ0qs+e7NKXrnQo5VwTzhaxpPtQ0xOfUqVPjuGOOiZX/OyIOe+f1+NMPf5DNgfqvf/0ra5MnT87mRv3Pf/6Trf/jH/+IGy46P/btOSNeuuOGOPnkk7OheNO2tE/aN83hmtb//ve/x0++++3Y+f2HY+u37o+ffO/0mDChsQqwuTSfa7lK9cEHH8yG800tPdbiBq5pSNdUrbr//vvH73//+2y+1vr6+mwuVtpPGrp36403yH6+qXLvgceeyvpTEJQCoSQFRCko+iBSdelNd9+fhX/psbbddGh8/pBP5FsXbOWVekfnqsY3ganTpseYN9/Jlhdm7Ltz3yzTm1mqnm2rpX090rl847jDY0g+RHC6Hs2Drg9in9IfjNVW6Zctv/3e+LjnwUez5f+W/qiUA8g1Vh3Q6vC0ffv0ypcixk+aklWJtrTjlpvEXjXbN7UUDDavSB7Yv1/2hzCZVfpdfuu9uWF3Wdo/3a/5cdJxi0jH+Own944TjzgwmwM5mVh6H3z0mRey5ZbSH8OW32Qqt/TNqa8efUi+55K5Ds211+9X0vz6p9fVq2PfzJYX5p1x45uqgdN8yT3b+P6bXsfpm2DfOfGYWH3VxrmU0+/n0y+NzpYBAAAAABZHKg75wa//GGee//tWP59tTfo89LZ7a+OGO/8bZ1/0p/jbrXdn2cAm668bN494IL7yg/Pi7/++J9974VIw2a1rdaFcoTWp6GmPnbaZJ6xNAWyaHrFrl+q8Z9lwzIH7xt2X/6rVlrYtD+YLWT/xiU/E2ms3lkJPnDgxLrzwwvjhD38Y998///x6gwcPjvPOOy/7ID8bUrW2NhuG9/rrr8/WU39ZCm4vvvjibKje5Iknnohzzz03fvazn2VBZ2tStenmm2+eLY8fPz5+/vOfZ4939tlnx9ixY7P+otJxrr766uz+v/3tb7Mw+JRTTonXX3892/7JT34yu+0Iw7bbIv76szPjn7/5v8VqF333lFh9lcbgYVlXs/Vm0ad3z2z59bffjdv+W5stJykQSsFQev2koKjIXKqt+f01/4y7Rj6SBezpDeaTe+7a6tAACzJnTkPTfKtLy5K8HpsNHTJfqHflz76bDXmQfg+TFBqXw9APIr05b7fZRtk3X9IwtI8883zTH6BU3fvkC6Oz94L0jaD0+AvT2vCvZ3318/GjU74Y3z7hqKZ2xpeOjh99/YRsHtiW0jlMrZuerzVKlae/PONr2f2aH+f//ucL8wSdLe03bKd53tQvPef0OPag/WJg/8YKylThfMs9I+Php5/P1ltK896m69Na69Wje2y0gCEnlsR1aM/fr+bSV1/q65fc78rWmwyd52dwzflnxclHHRxD1lw9O/9UOZvC/Bvvui+/BwAAAADA4vnNd7+etcU1ftKk7DPL5NB9do/rLjg7u02fUV/7q7PjzBOPict/8p2487Lz45aLfxpfP/awpqGHUyi6cp/ecfb/fCFbT/1pyN1U4VqWco0bLvzxQocgTp/9r9qvb3xi95q8J+KTH90tm/JtbLOq2vQ59WlfPCobLjmdz7//+PO44MxTmgp70ufGv//hN+OOS8/PtqdhhtNzSYqcVzre+ad/Nf5y3vfmG6b40utujkv/fku+NlfqS9uWB/OFrH369MnCx8MOOywGDRoUnTt3jl69esWwYcPijDPOiI022ii22WabbL9k2223zSpCDzjggCwQTds/+tGPxje+8Y1sCN4k3b98m+Y93WOPPbJt6dirrLJKHHzwwfGZz3wmu29NTU32uEn6EP173/te7LbbbtGzZ8+sWirtv/vuu0d1dXW2/8YbbxzDhw/P9i8bMmRIbLrpptn2VKE6cODApvPedddds+d3+OGHZ0Mjl0OntdZaK4455pg47rjjsvWOUFlRGRX5+SyOrl06t1ryvqxJv1Rbbzw0Gx41DSebhpVtPv9kCoRSMJSkoCgFRh/UFdf/K5srNEkVfOnNYEFVgC1VlH4u5dfJ0rCkr0fn0u9Jy1Av9SUp8HzljTfjV1dc2+Zv4yzMPrvt2PSNmDQMbRqOtrn7H30ypuRDKwwuvYkvbHjadJ1bmjmrPl+aVxp2YY1V5x82IX2to6pq3uOkbxOV/7A1l36ma6+2ar7WdulYL48ZG7/80zXxh7/dmPfOL1VYvjTmjVZbGnbizgdaHyL9g16Hjvj9Kmvt+i8N6UsPb733fnb9z/ndFXkvAAAAAMD8UkFM+mz6D//3rXnadptumO/RqHu3rllbHGlKtH132yn73Hns2+9lOUSqTk23aXjhVIi089abxePPvhi/uOyaGDdhUgzbbqts1MSLrro+3nx3XEyYPCUrGrvgz9fFQ08+mw25m45RlvKfdJxuCznHd8dPyLKQnbfaLPusOOUDqYo1HT99plqWQtdUUJQ+0z/nd3+Of955b6y/9hpx1AF7Z9vTsMd9+/SOn/zhyjjtvN/GMy+90lRl29bzSo9/yucOy+aLvbv2kXj8uZfyLXO1DFqXp4A1afXT8BSAppD0hhtuyCpY77rrrqziNFV5pqF2U3VrCjuTWbNmxdChQ+P000/P5jdN21OlaQo2U9VokqpjyzbZZJP48Y9/HLfddlt27Jtvvjm+9a1vZdWk6b4phC1XuyYpCD3vvPPi7rvvjgceeCDbP91/5513zvZPc6imwLS5LbfcMi699NJsewphjzjiiGw5haupOjaFuF//+tezYYvTOYwcOTKuu+66+MpXvhK9e/fOj9L+Uvjy7Muvxug33lys9tDTL8RjrbxIlzVp2NiBA/JqwBkzY9Aq/eep0PvaMYdmlXapKjEFRalSsrVqvSJSoPi7q2/Ihg9O0lCjJx11cEq0svWW3i+9wZWHM01vQqv0W3SJ/qABc6uIU5Vj+bEWZUlfj/RG3DLUSy29Wf7sj1fFMd/6vwUOcVvUsO23ahpiIIWKaRiC5ue+/eYbZf1J+mPSspq1HMAm/VbqnV3r5s76zaXZG/j/XXR51l5/qzEcbC7NuZvmU07SFzFWa/ZzSNIQuf/zo1/GDy+8LDvG9Xf8p+lnuzDpTb/8uGm4h4ml65pUVlZkj1n7xDPZ+oKkn/9x3z6n1faF75wbV99yZ77nkrkOZe39+5WGZ05DrietXf/WrNKvb9Nw3DNmziw9/7psuaUnn3+56Tn/5abbm/5PQPoCztTSNXv02SXzOgYAAAAAKKr5SHy/+PbJscHgNeOeUY/F3/89It9jXk+/MDp+8oe/ZJ83P/bci9nwwGkquTsfeCgrmEnFJSkgTaNQNi+cKWTOnLj9/lHRt3fPOGDPXeOw/faM1Qb0i7tGPpxtK0sjUX717PPjxxf/OdKQx2nEwMlTp2b3S9KooOmz29fefDv7jP37F/wxfv3n67JtbdGpsjILWIcOXiuuK12P3151fb5lfuWgdXkLWJMPVHKUAtaTTjopC1+/+c1vZiFmCjfPPPPM+Pa3v529INJcrKnylEV77c134sxf/TFOPvtXi9V+dUXbX+AdJYVH5eFlkx7du8VHtt9qnrkmU0tl4ykAStK3I3bZpnHY6A8ivRFcddPtMX3GzCyk2Wqj9WO9tVbPt87rjbffzSogky5dqrNvWixMCqkG5fOSJm+/936bKkWXxvVIk223Fuyd/vPfLdFhVdM3f1J1atkaAwfMd96plYfXTdc8DZHbfHja18a+nVXXJumPSfomT0sPPPpU9iafWvpD09Krb7zVFNKl4C5926alV0r73H7fqOwYEydPzXsXLoXD5cc9749/jUuuvTkL9rLXzsYbxBc+fUC+5we3JK5D0hG/X2+9+37pWjWGxAu6/s2lcxzS7PcuhdcLCv3Lcxqklv4I//zSv8Z74ydmP4N0jDS/cstAGgAAAACguTQ6Yfp8uOVn5g8++Wy+x+JpXiRy5i//EJ/88mlx9oWXLTAgfbNZJWmjiiyMXNL+cft/4rnRr8UuW28eH63ZLl55/c34R4u5YVOV6TlfPyFu+t1P4vZLf5ENU5yGKy77970PRo9uXbMhhNM+v/rO17LPntsqFbpttsG62UiLCwtYy7KgdTkLWJMP9NMbPXp0NpfpuHHjsmrXNOfqBRdcELfeemvMmDEjqwpN1aH9+s0Nn1ixpbG/1yo4RGsKjHbcYpN5JmpeXNfeNiJGPPho9gWAVLbfu2ePfMu80jdFyuOTpzAqPX6av3JB0htVuVQ+BWDPlt7A2qKjr8cHkapSU3VqEWl42jQ0Qdnzr7yWhd5Jmqd032E7FQ7N0pyoY98Zl69F9sZ9wB675mtLTqqATZXiKQxNr4ltNx2ajYu/JCyJ65B0xOspXf8XX30jX4vYZP3BpfPfMV+bX/NzTNfypdfGtvlbWemLEv956LGmOZI3HrJONmQ1AAAAAEB7a14k8oGqT9soFZ+01Y133x9dqquzz5tv/e/I+c4tVblus+mG2bnveczXsiKt9ydOyrdGNrLgAV8+Lb78vZ/Ftf+6O9YetFocf+jcUWuba+283nj7vXj25deyoqv/PW7e0Wg/TD5QyLr++utn1aupijXNzZqGGe7Ro0esu+668dnPfjYLXffdd998bxZlrdVWiS+WXqSnHHPIYrVD9/5IfqRlVwpzulR3zpZTZd5HjjppgS0N7zp5amOFYqqS3G27LbPlD+r8y66OR555oalysDXpDScNr1uuZk0B6olHHNjqsKrHHfzx+NguOzTN25qqEm8Z8UC2vCjLwvVYHOmNMVWlpjfPdI0uvvqfrZ5zuaXhD8rD06YK4vJ1TN+oSWO5l2254XrZZNvlwLqt0h+C8pC7qXrzqAM+FvsN2ylbX5JuueeBbDjmZKVePZdYwLekrkNHvZ7uGfVo07HSH+2jP7Vv1Gw9f3VsCr8P2Xt40zmOmzAxbrq7WHX19aVrVQ7V01DVaXhk1awAAAAAwJJ0+H57xmU/Pj0O3GtY3rN0vT9hYvTs3j02GrJOVmWaPhtOn3kP6NsnDt57eDbnaxqRsDwN26KkIYjvuH9UVpHalhEu02f+fXr1ypZTQU4a6vfjw3fOprhMx0qjSZZHUGzLec1uaIgfX3xFPPPSq9lnuB/WoPUDhawpYElznB588MFx0UUXZfOsjhgxIq6++uo4+eSTY8iQIYWS9RXdkDVXz+a0HL79VovV9tl1h9jkA8ytuLSlX8h11xyULac5IR947KlseUFS+X4afzxJ43/vtOUmSyRMSQHqn2+4bZFzpl598x3xxPMvZ2Fseh2n4UnPO+2k+M13v57NbXnWVz8fV//iB3Hk/ns1nVd6c0mBWVuGCl5WrsfiSNWoqSo1efu98dm3dBYmBdYTJzWGk/1Kb75pCNuyv95yZ9PPIgXVqTr0Tz8+I373g1PjjC8dnV3rn33rK3HN+WctsNoy/ZFIj1GucEwTbX/92MOy+/zolC9mxzjzxM9lk5kf9LGPlP4YLN5b339GPZYNbVt+TaRhd9PPsTWpyrc8D2pr7ehP7TPPz++DXoeOfD3dPOKBuO+RJ5uu/6r9+sb3Tjo2/nD2t7JzT9f+8p98J7762YOzidyTFM7f+p/arBK2iDT0832PPNE0ZPK6pffNNK8AAAAAAEBL6TPL1NJnpi2VtzXMafxcs7yepM+x0+ewzac+K0v7z0nHzEcnbE0KGdM+6Tbt3/zYSfp8dPbs2U3nleZRrZs+PasWvfiH38xGO7ztv7Wl+8+JrxxxYPzsm1/JprhLU9o1P05Z+rw01ZWl/cvO/9M1WStL55v2SfumYpYXXhmTFcb8+48/z7KpKVPrmu6figK/+tlD445Lz49L/u+0rODlb/+6K9u2qPMqP9f0We5Zv7k0y1nSyJgplP2wqaipqcmuWHrC9fX1UVtbm21YkQ078sTSvxWl/3LtFBQP226L+PJhB0T3bl3znmLeeX9CnHPxlfHCq6/nPcuWNKZ3TT7XZDrHr/7wF4ssn//knrvGFz99QHTr2iX7Rf3V5X+LW/8zMi495/Ts2xzJg088G/977q+z5TSkbwqj+vddKTv2Ly69OqtybM3+u+8SX/j0/k1D3j781HNxyjkXZMtlKXRKAdH2m2/UVKm6IJOm1MVlf785G5K4LdrjerRF82uWwsMb774vfnbJVfnW+aX5aVOAluZaTdWpN951bzZn6aJ858vHlN5It87CyVfeeDMbZqD8fFPV45cO/2Q2TntbvpgxfuLk0mv9imz42LL0s0rVxmno5hQaLkp6rnc+8HD2Jp+09To03y9p/rr5389/ps0VtDNmzsrGmE/DLpR9kOuwJF9PZccetF8c/vGPZt9Cem/8hGxugYWFounbSHvtssMiv02Vnvu1t90dv/vrDXnPXG15Laf/c/P9k49rCpVbvp4AAAAAAD6I9Bll+hw8FZe09jnm0pI+f06fc6YK0rJUZfr2e+9noeWSlp5nmlbx8edeynvmteOWm8SESVPmOZ+ypXley6K650ZGVVXVPFnRB6pkZcka8eBj8ZM//jXOu/SaxWq/vPzaZTZgTdKckym8SgHLXSMfblMgkr4RkZ5Tul+anHrmrPqsP82Xmvpm1c/Ovm1Rln7Rx01oHDe8btr0mDilsXqyNWkI21R1mr4xkr5k8Oqbb+db5krn+K2fXRS//ev12RtF+ZsYzaVvmtwz6rHSfhe2OWBN2uN6tMU816x0Di+8svDX0NS6aTErf9z0Bto8lFuYu2sfifcnTs6W03Nu7t6HH48vfOfH8bd/3R1vjxvf6nVOzy8FgU++MDou/Ms/5glYk3TuP/nDX+L0n18cTzz/UqvfTErSdUvnffOI++Oiq/6R97b9OqSQMVVgptdNOqfpzZ7LUy+83DSc8KJMmzEje67NfZDrsCRfT2VvvTeudNzG46Rr09of0ubS9f/J76/M9kuvxZbSNXvs2RfjjF9cvMD/Y9KW13KqFE+/u+Uholu+ngAAAAAAPog0gt5Lr42NK67/V97TPtLnzy0/h02fAS+tIDMdd0EBa5KmpVvQ58JL87yWFypZW9FRlawrgvSth5kzZxUaIjRVKG672Ubxzrjx8/wyL+hYaazyTdYbXPrlfrNNv+DpmyHV1Z2zN4tFKZ9L1+rqbD1V9xV5Li21x/VoiwUdc0GKXuOy9K2YdVZfLZ56cfRCh2tOx99sgyFNY7yn4QtScLqoIZ5bSj/bcsVpsqifV5HrkCp6V+nXN0Y98UybAs3FUfQ6LMnXU1l6noNW6b9Y1z+dT+8ePbLlSVOntul3LGnr82jr6wkAAAAAAD6I1ipZhaytELICAAAAAAAAieGCAQAAAAAAAD4gISsAAAAAAABAAUJWAAAAAAAAgAKErAAAAAAAAAAFCFkBAAAAAAAAChCyAgAAAAAAABQgZAUAAAAAAAAoQMgKAAAAAAAAUICQFQAAAAAAAKAAISsAAAAAAABAAUJWAAAAAAAAgAKErAAAAAAAAAAFCFkBAAAAAAAAChCyAgAAAAAAABQgZAUAAAAAAAAoQMgKAAAAAAAAUICQFQAAAAAAAKAAISsAAAAAAABAAUJWAAAAAAAAgAKErAAAAAAAAAAFCFkBAAAAAAAAChCyAgAAAAAAABQgZAUAAAAAAAAoQMgKAAAAAAAAUICQFQAAAAAAAKAAISsAAAAAAABAAUJWAAAAAAAAgAKErAAAAAAAAAAFVNTU1MxJCw0NDVFfXx+1tbXZhhXZsCNPLP1bUfovV9G0tER97ehDY69dto/uXbvkPQAAAAAAAEBZ3fQZcdt/a+MXl12d97S/uudGRlVVVVRWzq1fVcnaQVLA+sk9dxWwAgAAAAAAwAKkLC1lailbW5YIWTtIqmAFAAAAAAAAFm1Zy9aErB1EBSsAAAAAAAC0zbKWrQlZO8KcbBpcAAAAAAAAoK2WoYxNyNreBKwAAAAAAACweJaRrE3I2gHErAAAAAAAAFDMspSxCVnbkypWAAAAAAAA+GCWgcxNyAoAAAAAAABQgJC1nallBQAAAAAAgMWzrGRtQlYAAAAAAACAAipqamqywLehoSHq6+ujtrY227AkTZlaFw8+8niMeWNs9jgfVI8ePWKrzTaOIYPXjoq8b0kaduSJpX8r5h67Ygk9ypw5Ten6iCsuyJcAAAAAAACARRl25Fey2yy5W1L5XRvUPTcyqqqqorJybv3qUg9ZZ8yYGX+44uoYM/bNvGfJ6FR6Egd+/GOx9Rab5j1LztIPWefEiCt+nS0BAAAAAAAAizZPhtfBIetSHy548pSp8f6EifnakjO7oSHGjH0rXwMAAAAAAABoH0u9kvW9cePjokuvjKl1dbHjtlvFAfvsmW9ZPEv6eK1ZKpWsc8o1rI3/qmQFAAAAAACAtltqo9EuQodUsgIAAAAAAAB8mAhZAQAAAAAAAAoQsgIAAAAAAAAUIGQFAAAAAAAAKEDICgAAAAAAAFCAkBUAAAAAAACgACErAAAAAAAAQAFCVgAAAAAAAIAChKwAAAAAAAAABQhZAQAAAAAAAAqoqKmpmZMWGhoaor6+Pmpra7MNS8p748bHRZdeGVPr6qK6c+foXGofxJw5DTFt+ozS7ZzYcdut4oB99sy3LDnDjjyx9G9F6b9cRdPS4iudb3aT/zviil9nSwAAAAAAAMCiLZUMrw3qnhsZVVVVUVk5t351qVeydu1aHd26dcmWZ86alYWtH6TVTZueBazpkvXt0zs7LgAAAAAAAEB7Weoha88ePeKQA/aNNQYNjB7duy+wVXXqlN8j5c8pnO3S6n6p9e7VM3bdafvYefutG+/APGZOm5UvLdzMmW3bb4maPSsmj5sY4yZ0wGMvjpl1MW4JnO/MKaVjlI4zeVreAQAAAAAAwHJrqQ8X3BZTpk6N3172l2xo4SSFrHvvMSx223n7bL29LbfDBc9+Os4/6MdxxTsR/fY/JW741hZRnW+ax5Sn49zjfxzXvFra77DvxK0nr5dvWNpmxV1nfD5OvbNxbbtv/TJ+s3+fxpUPatrTceGJ58Ulzy4gDK3uHoP6DYihe+8Rxx0yLIaulPe3ZsKrcf2f/hR/vvHFGD0l78t0jl6bbByHHH5UHLf7gNavbTOTH7slzv/jHXHnQ+/G5Nl5Z1I6l8Fb7hxHnLh/HLD+Enr+AAAAAAAAH3Ir1HDBC/LyK6/FvSMfytpd/3kgJkycnG9pDCIfeeLppu0jH34sGyaYRXjzxXjwncbFcTfdHw82Ls5ryqj4zuGNAWv7ezfeGJMvljz49Cv50hLw0D0LDliTmXUx9s1X464/XhJHfuLk+OF/6/IN8xr371/F3p84M354VcuANZkVk596LC454xsx/MjL48H5tpfVxb3nnBy7f+mquL62RcCalM5ldO3t8cOjT469zxkVc1/5AAAAAAAALA86JGQdN35CXPX3G+PG2+7M2n0PPpxV0Tb31jvvNm3/x023xZ333JdvoU1aBnvJlFHxwyN/FbeOa1ztt/dJcc2J7VXFmgyKA766Z2y2Wp8YtO4WccbhW+T9S1jPtWP4/sPigHnaFjG0Z7599sS4/rRz4orX8/Xc5P9eFEd8d1SMK1+76gGx3UeHxbHfOCFO/dywGL5h53xDxMyXb48vH35R3NtK0Dr2qnPiazdMzNciem24RRx54rFx7g9PiLNO3DP23n5A9MpHxx53w6h4vHERAAAAAACA5USHDBecHvCxJ56OJ599fr5wtTX9Vu4bu+64XazUp3fes3Qtt8MFv35DHHnotfFctrJT/OK+E6ImWy7JA9br80rXLGA9fdumsG+599+LYrtT729cXv+guP6y/WNQ49pcsyfGXT/4Vpz678Yq1kGf/UFcf8La2XK8c3t8+aDL48E8YO23+7FxyZnDYlCLMYFnvnxDnHDstfHEzMb1+YZlnv10nLvPj+OaLHztHnv/6Jw4a1grQwLPfDfuuuyf8ewGn4gvDRuQdwIAAAAAwHJu3LS4d3RjGpLpUhlDh1ZH/+rFr/ure2ZqPLJyj6hZNe9oZmHblo4Zce89DbHVbt2ie96zKG/d8qu4cc2T4vOb5h2tmh5P3f509Ntz6xiY90TD+Lj/X6Nj8D7N+tpq6pvx2NiuscX6ffOOBZkerz/+dIzJc4+ke9/BsfGQvjG39Cxi1tjn484HH44xMwbEBptuHjttPGCe7TF5TDw26vF48I1ZMXDwxrHtDhvEwKp82xK0wg8XnJ7ulpttHEce8sk45vCDF9k+8bE92i1g/VD6sAesbdWpTww/fFhT+Dq29ukYmy8/+KdrmwLWWH//uPD78wesSfW6+8dFP9op+uXr4264oem6Zt58MR4vV7euu2cc21rAmlQPiOHHHytgBQAAAADgQ+WtUTPj+ifmhqyzxs6KC340Kc69Z0beU9yTtbPikbfylRYWtm3pmB2PjJwdk/K1RRsfj73QKzYZkq8u0PPxn9uejqZBOOvHxN/PuzBGrTS4eMCajBkZN94/ug3n+XzceMXIGJ2vpakTx4y4OE7/7cPRODDq9HjqqnPjm5c/HLH6BrHJuj1j0gN/jG+ed0e83pDtEDH2jjj7vFvj+erVYpMN14rek2rjorMujXs+5PMldticrLSTogHrtLHx4HXXxqnHnxx773V0bLdzqX3kS3HA8efFhXe+G82+yDDX7Inx3E2Xx5ePPDl237XxPjX7nhzHnnZtXP/C3GFzM6/eEl/e90ux+/FXxRPT8r7knfvjO4d+PmoOPS+uT+8gE16N6395Vhy67+dLj//jeYPMD6Jn9+iVL8bs8hyuT8ddt82do3Xv4w+KwQsJoKt3OjyOaxrp+MW4/t/lqLaFabNav14AAAAAAPAhVj2oKmq27Z61j3ysV3zvG9XR/a5pcdVr+Q4rkvGPx6PdNo8tu+XrbTH1+bjsZ3+JcXueEifttKhK1AXY8JNx+me3jraVMPaKDbbdOnbK2g7x8WOPip3evzfuT9nM0zfGH17dIk7538PiY03bT43jBo2MC/85Jrv3qNtGRL/9jo9DahqPsds+R8b3vn9M7NYUyHw4CVk/zFoLWM9cSMA6bkR8ba/T4ss/vSHuempijCtXZM6si7FPPRaXnPGN2P8Ho2KeLx5MezUuPP7kOPLs2+PBlyfG5LwadOaEifHEiBvih0efHF+7aW7Q+sR1N8SDE+pi8lO3xNUP5Z0lY++8JW59fVbMfP2xuOb6G+I7R50ZP7zqxRg9YVbpYE/HEy/lO35Q77zXVL0ag/pE/3T76jMxqmlu1S2iZpt8cYH6xLY7zR2M+LknX5gbpvYbEIPK1/fNW+I759wfo5uHyQAAAAAAsKLp0T0O2K4iHn54erZa98rUuODnE+LUs1ObGJc/kxdFNcyIuy+bFKf+qNT/o4nx839Pj6YSqffq4re/LPV/v9QunhpjylWUSXnbWY3bXi7PVFk63r1/ntj0OBfcV66mnRm1f5sUZ2T9E+KMZsd77m8T4rf3lM6vdA6nXJ0+4J8dL99ROqd07B9Nit+OajYUchuMe+jp6L7pxtHWjHXW5Ifj9+f9K7offHJ8fsuueW/EtFfujYvOOzdOPyu1X8WVTzdey6zS9PoL4+yzS/2ldvYVjzdWoL5wU3zv6qezPZ6/+tz4/YiRcdHZP4hTr3o+61u00kUsXZM0BPCqO9bEGi0SxU122yY6P91Yedu5tK1uRvl8VhxC1g+tx+Ks1gLWxtXWTZsY76WQtOegGP65w+LcH34zrv7nD+I3Z+4fNfn4uONuvSqueKFxOXnuil/FJc82Lg897KTS/r+MW0vt+ktOiK/uPSiqo3v0X3nuqOSTJs+tGJ1HU1Vp6ZhXXRu3pneAngNiu48OiyNPPCW+tH3jtg9i5rj74zvfHdEUEm+23ZaNc6mOeXduGfy6a8fQNrzTDS7t12Rs6brli9FtpzjuiLlDAI++4aI4dI+jY/dPnhZf/u61cc2dTzcGxwAAAAAAsAJZc/XKmDSxMcns3qsqDjixd5x7+kpx7teq4s3rZsTLacPDM+LmXp3j3NNK/af1jMM3qWia9/TJl+fE4V8p9X+3R+wbs+Lmp/INJc893hD7pm3f6R0nrVUfF1yTwtGGePJv0+Lf/bs2Ps5pXWPN+6fFJc+lc6iItXbsGt9N/af3jqP6zYq/1TYmsxOnRjzy4JzY939XivMO7RbxTF1c8GhlnJQdo2fsO352PJft2RZT4rGnu8UWzcLShXst/v7T26P7Z74UhwyZ9z7deq0bH//KqXH2d0rtlO3jrWvvaMw2xo6Ia8ZsHaecXuovtZN2X63xmk0dH+PqGp/TpLrSeTw4IT72zTPj3MM2yPrmVR91E6eUfj6pvRmjrr8x7u+8eWw78N0Y805Enz498/2aGTggBo5/N9JIzVvst190v/O8OPW8S+P314+Ix14aH7Oah+AfUkLWD626GNc0xO6g2OegjRcesCZr7B+X3HZh3HvLj+Lc4/eJ4btvHIP7rR3b7X1QnHtyeXzcd+Ou+8u1oO/Gg/e/my/vFF86edvS/n2iX6kN2nCnOPLMH8W9910YZ+w0z9THiza7eww//adx720/jd98/9j46hFbRL8i88e+fEMce9DJcUDz9snPR80nLmoMb5N+O8Vx+7QyX2qnztElX1xcQ4//TvzisBQwzzX5nbHx4L9viHPP+HHjEMh7nRbn3vTqvFXBAAAAAADwIVU3rVkFaL/OMXDGzHhyVF3c+8ycmDV5TmMxU5+KqH+uPm55ZnpMmhoxcNDcT+yHbtYlemepVufYcK2KGDN27hyv6+7UNdbMtlXGmjtWRb+XZ8fLUTr+C5Xxkd3yY1R2iY/WVMYjj6X7lR5/YEWMe6n0+KOmx8sTI8ZNzIfqLBla0zXWrWpcfvKJ2bFmab3p+Lt0inWzLW0w8bF4sMtGsV2bhwpeK3bavW88etU/4qnS859Hv9Vi1RlvxlOjHo77n3mzdM3GN1as9ugZvcc9HjeOejnemlwfvQcNaLVqdoOaYTE4f07zeydG/fPGuDprI+L56h3ilK/tEQNjQPRbOd+lpfdKj19ZVbqSJf12iBO+8+04+/iPxU6rRzx/+6XxzbOuisc+5CN9Clk/tDaOvfcuf79jbFxxwjlx4VMLqCJtprpn96huJdCs3mi9GJovj36lHLIOiNXXzBfjsbj+prExc+570OLbYv/45n4D5gkpC5k9K8a9OTHGNm/vNKseXWXbOOsPJ0RNa+8ypfsu/tTbuU59oubkH8Vd//xOnHvinjF8kz7zD9E8ZWxcc/aZccjXR8wdvhgAAAAAAD6UGuLl0Q2xZpby1ccjl0+Ks2+ZHbP6dorN1p9brRrr94ofn9A5Bo6vj7/8YXKc+se6ppEkO3dbYEIYnauaxV3VEd1nzIm6KLUZpW3NKqu6lw/x9pT43o+mxcjxFbHW+lWxbt+KfEOjlo81z/G7VDQGi20w6dHHIzbcpM1DBSdrDjs+zvhYfVx53lVxf1Ol1vR47E//F+fe9FrU910zNlk/r1ZN+tTEKad9PDaOMfGfK38Vp/74X1G61PPp3G1h1bSDYrcjD4vP5+0z+2weA/NLMHi1vjFmdOPcq81NK/W9NXhwNK+L7dxrtdhk22FxyBf/Jw5Z8+m4v+0lv8slIeuHVp/Y+/Rz4txy0Dr71bjkhHPikpcXMVTthFfjrj9fHqcenypAvxQ1Ox8d26V26LWtlr8PP3DPaBxJuC7uOvu0qNk1DY17chx72iVx4U0vxrimyUoLWG1AfszF1HPtGL7/sDigZfvcYfGLS34Z9/7jpNh7lXzfZM0BMThfjJfHxittCIpHv/xqvlRSntu1hep+68XwI46Kcy/+Zdz5n8vi3pt/Glf88KA4YOu5FbTj7r8kfnGn4YMBAAAAAPiQaqiPMfdNiUte7BQH7JLKq2bHa29VxGa79IithnSJ3lPnNFZkJjPrI/p2ja127hlfPLlLbPZaqkhdtOeemDt3a91jpfusnapNO8fQtRuitrb8GfysuPuRhlh3nc4Rb82Jt9aoigO27RZr9qmI98YveJ7VddepjOcemTb3+LX18WS+vHDT49FnI7bbspWhdheh97aHxRmf6RV3nndx3JlVak2OMW92i4132yG2GDKgdM0mzL1m9fUxq6ocbn4pPt7j6XiqaaTTD27gbnvEmo//I/7+Wnmi25LJD8dlN4+NbYftEN3SnLAj7o3RzfOghjfjrXe7Ru8e+fqHlJD1w6xTnxjeImi98OizFhi0Tv7vRbH3J86MU399e9z11MQYW/oN7b9anxiU2ioL+F7GFkfFNVccG4c0q9ac/M7EeGLEiLjk7LNi773OjCua5ZHtYrVt42vfOjbOaNmO3ydqNuwzf4XsGmvH0KZK06fjwcfyxQWaGKOahkyOGLrp+m2quq1eaUAM3X3/OOOCX8ZvDmz6jkncVds48TQAAAAAACzvuneriPfunRannj0ha6ecNSX+8EKn+OIpvWLTLJXqEh/dqzJG/nFSXPDnSXHuf+dEv6rIqkPrnpkWp581Mc7+4+T4+c9mxGs7V8f2pf7OraRZ5eLStG3oqg1xwY8nxc8vmBDf/HdFHHVY9+geVVFzWJfo/5+pceoFk+Lss6fG7X27xBe3Lz3YZtWxz4SZccbFk+OC30yL5yor5jlec9237xZHdZ0V3zw7HX9iXDC5MjbNty3UtMfisRmbx7atzFzYuqqmc0i6DdkvTj9+43j0DxfHPRMHxB4fWy1G/eHCuOiKS+O8e8aXrlk+VO87I+K8s/4vzv7tVXHRL38Z/+q9R+wxsNTftWtTxW1r12+ueR93Pj02jxO+UhPj/vJ/ccr3zy39fEq3P743eh90chy9YdqhawzsMSauPPv/4tSz0vZz49TvXx6vb3NUHLJ+doQPrYqamposnm9oaIj6+vqora3NNqzIhh15YunfitJ/uYp5y8QXy5zGb0GU/x1xxa+zpSXq9RviyKaK053iF/edEDVpcfbEuOvsb8Wpt+bfs+i0dnz1ih/EkWs3rjYaG1ccfVqc/0JaHhCH/OI7cer2zX7zX702Dj38hsZJlPc+KR48c9usu6WZE96N0c88HQ/e+s84/9/5fK27nxD3/nCnLIi89wdHx9dubeze+9zL4qxdGpfH/vm0OODXeXC5kOMv0H8viu1Ovb9xef2D4vrL9o9BjWtt8uBPvxRfvi6/PhseFtdfss+C7//Y5bH3l27PvyUyII697KfxpaJvFCN+FdudNqpxeXGeLwAAAAAALNdmx6yZFdG5upWEb2Z9zKrOQ8Q2aygdb07peK3MiThzVsyq6jx/2FjkcVLFaJqDdKGBZTOvjYgr39w8PrND37xjSSidw8zSObRW+VX0/BZHQ+kxGkqPMe9oys3Ux7SpEd16LHCHD2ypZHhtUPfcyKiqqorKyrkXeGleapYVrVS0nn9kywrTsfFcFrAm60VN84C1ZNxDTzcGrIuQVWvuNCyO/P4p8aXyzM9j3m0aM31Ztd1h+8+tZn32qjj2nFExuZVhg2e+fEt87YxywBrRa+/D4rjmAeuUUXFu6dqee9Orrd4/M3tiXH9rHrCWDB1SJA4GAAAAAIAPg06tB6xJ4YA1qWw9YE2qWwlYkyKPkypHi6Rqaw1bwgFrUjqHBQ2tWfT8FkcKcRean1Yt1YB1WaOStRUTJ9dFRUVF1pKWt0XMKVewNrtNrU+vucPFLjELqmQtW2hFa/NK1u6x9w/PibN2bwxaZ758bRx79A3xXDk0bKq8HBvXn/aruL7bTnHckXvGdut2bxo2d577DDs27v3RsGW6kjUZ/ecz49BfN0ueew6K4YfsFvsMWan0hN6Ne2+9J26pfTeahhXvV7rGfyld42bDqc/zPKq7x2Y77Ry7D1svVi9fmAkvxjVXjYgHX8+HbO60RZx1yymxd/Eh2QEAAAAAAFYoSzLDK2L4sF1Usq4wWvuyRmsVrV+5PJ7IwtNBccDxO0W/bENd3HrGyVGz78lxwL6fj5ojb4j31l+7ldDy3Xjiv2PjiVuvja8d+aWo2fno7D5771W6Ld0nC1hLj3nkYY0Ba2ZB37BYkjoV/35LMviIH8TV39o4vwYlU8bGXX+8Kk4946I49QfXxvXNA9ZVdopzL583YE0GDds7asoHmFkXT4y4Pc7/Qen+6Rip/fT2ZgHrgDjk/BMErAAAAAAAAMsZIeuHyWrrxeZ5wFe9+7axXePivMpB6/75cMCTJ8R7eXLYa5cT4pqf7RlD89Bv5oSJMXbCrOi3y1Fx4S8Piu3yY2+3ZXl83C3i1L+cEEduPyB65aFuus+4KY3LvTbcNk696Jz46haN68l2O23bmLN2WjuGrpN1ZQZtOTfcrNlmMWZC3mC92C4/h8Ef2bhwFWvZ4P2/GTdcfVJ8de9BTc+pueqV1o5DTv9B3HntCTF8pbyzuTWGxS+u/WVccfq8lb3zSBWuex8Wl/zzp3Hq1kuhohkAAAAAAIClynDBrVhuhwtOZs+KyRNmRZd+Cwj4mkmB6IzufaJXKzumbWlO0eq0vVu5sy7G1XWOfiu1Xilavk9S3av14yYzp5Qet1Oz45ZNKx1/dun4PRevEnVR57c45nlOza9Fm5V+HuPq5lbAduq+RM8PAAAAAABgRbEsDRcsZG3Fch2yAgAAAAAAwIeQOVkBAAAAAAAAllNCVgAAAAAAAIAChKwAAAAAAAAABQhZAQAAAAAAAAoQsgIAAAAAAAAUIGQFAAAAAAAAKEDICgAAAAAAAFCAkBUAAAAAAACgACErAAAAAAAAQAFCVgAAAAAAAIAChKwAAAAAAAAABQhZAQAAAAAAAAoQsgIAAAAAAAAUsMRC1jlzlr0GAAAAAAAAsKQtdsi6PASay8M5AgAAAAAAAMuXQiFra4FlWmzev8y1xtPMNO8HAAAAAAAAWBxtDlmbB5NpsSmwbGi8bWjZSv3t3lqcQ/Pzy1rj6WfSOgAAAAAAAEBRbQpZy4FkumkKLEutKdAs/ZO12XNidrmV1tu95Y+dzqPpnPJzbH7epf9l0jIAAAAAAABAEYsMWctBZHaTAsrUssrRuWHm7NL67NmlVr5t1urrl35r+ZjNz6f5eZarWrPnkZ5PWiwvAAAAAAAAALRBRU1NTRYzNjQ0RH19fdTW1mYbkuYBaxauZq0xrEzVodfcND1GPTozZszMd1wGdamuiG23rI5D9usalRWlJ1xZahUVpZZuSy3fLy2XTZxcl+/T2Nnytoh0vcqya5e3Pr26570AAAAAAADAojTP8JrndouT4RUxfNguUVVVFZWVc+tXF13Jmv+TssIUDqa5T1OF6DU3To97a2cs0wFrks4vnWc638bK1nLYWdqYnlPjbgAAAAAAAABtssCQNQshs4XG5XLAmoWssyMeenxmvsPyIZ1vOu/yc2getCZNz7cdLO00HQAAAAAAAD5slqWMbaGVrOUMMgtZmwWss2fPiekz2jGVXALS+abzLget5flZy8+xvaWQFwAAAAAAAFi0ZS1bazVkbTrHPIHMqlhLt1nIWlqon924eXmTzjudf1bNmj+v5ilre/5sZi2vFxEAAAAAAADa2bKWrbW9krXUypWsy3XIWmpZJWv+nLLn17i5XZTLmKdNnxkzZ9WXzqE9Hx0AAAAAAACWHylLS5laytaSZWXI4Iqampos5WtoaIj6+vqora2dGz7mFZ8NqXq1PkptTpSeQ+mJzIkf/Hxyutty5cz/6RXVnSuic1VEVVVFqUVUVlZE6X9RUVlqpX3Sz2Xi5LrsB1T+IbW8LaJ5iFpebn7bsg8AAAAAAACYN6NbWG7XfHlpGD5sl6iqqorKyrn1q/NVss6X9WVBYGN/Clxn59Wsy6NsPtmmoYLz55r9M1eL1Q9sUT/g5i+Epf0CAAAAAAAAgGVd89ystfyseV9H5WvzVbKOHFmbbSiHqqmKNRsiOK9gTW3GzIhzLlj+Klm/9ZVe0aU6smrW1FIla6dOzapZ85/BpClLrpI1aV6l2rJytbVtAAAAAAAAsCJrnsstLLNb3PyuiNYqWRcdss6ek1V/zqqfEzNnNgat02fMiXN/MyXbb3ly6pd7RtcujQFrdXVE56qK6FS6FpWd2i9kTQSsAAAAAAAAsHDNs7kF5XWLm98V0abhgluT8r+sNVteHnXU81jQD7t5f1pu3gAAAAAAAGBFsqC8rLzcvC9pud6eFlnJOjtVss6eW8k6Y2ZjJetPL1r+Klm/cUJjJWuX6maVrJ3SkMFLt5K1bEEVrWWqWQEAAAAAAGD+XG5R60tT8eGCGyJm53OyzsrmY40sYJ2RQtbfLoch6xd7RpcuFfmQwRGdO+cha5qTtXRNyj+LpRWyJq0FqcJVAAAAAAAAmF9r+dySyOyKWOyQtdRdanNixqzIAtYUtP5sMULWoUOqYqU+rY9QnILcl16pj/ETG9q8X1Ff/2JeyZpa5yhdjIpSa9+QNWlrqCp8BQAAAAAAYEXQ1hxuSeV1RXygkLXlcMGLE7J+7fM9Y8P1qvK1eaVj/uX6aTHy4Zlt3q+oppC12XDBHRGyJgJUAAAAAAAAaLuOCFiT1kLW1stFWerKIW5HvRgAAAAAAABgWbesZmodUsmajnHbiBnx3viG2G2H6hiydlWrlayL2q+oZamSFQAAAAAAAFj2LTOVrCnATcFpCkpnzco7W9HW/QAAAAAAAADaS4eErKkgtH/fythh6+ro3DnvbEVb9wMAAAAAAABoLx0Ssqbhej/x0a7xuUO7Z0MAL0hb9wMAAAAAAABoLx0SsgIAAAAAAAAsrypqamrmpIWGhoaor6+PkSNrsw1pPtRSV8xumFPqj5hVPydmzoyYMXNOTJ8xJ3722ynZfkUMHVIVK/VpPdedPTvipVfqY/zEhjbvV9TXv9gzunapyCpkq6sjOldVRFVVRKfKikjz1KbhiZNJU+pKyxVZS1reAgAAAAAAACuG4cN2iaqqqqhMgWKuXUPWjiZkBQAAAAAAAIpoLWRtvVx0KUkVqjtsXd1q23aL6uibV6+23G+dNTpl/em2+X4AAAAAAAAA7a1d08p9hneNzx3avdV25IHdYoMhVa3ut+sOXbL+dNt8PwAAAAAAAID2tlyUhNZsVx0XnbNSdgsAAAAAAADQkTokZE3zuv7z39Pjj1fXxUuv1ue9AAAAAAAAAMu+DglZ58yJeG98Q4x8eGbMmpV3tmL27Ih33mso7VO6AwAAAAAAAMAyoENC1oqKiP59K2OHraujc+e8sxWz6ufEiAdmxPsT5sT0GY0tVcGm8BUAAAAAAACgI3RIyNqluiI+8dGu8blDu8eQtavy3tZNqZsT3/3ZpPjadydm7ZtnT4pRj83MtwIAAAAAAAC0rw4JWYvo2b0izvl27/ja53vGUQd1j198v09WAQsAAAAAAADQESpqamqyCU8bGhqivr4+Ro6szTakeVNLXTG7YU6pv3Ho3pkzIxuuNw3b+7PfTsn2K2LokKpYqU/ruW4aAvilV+pj/MSGpv1S3ytj6mPNQZ2ibtqcmFF63P79OjXtV9TXv9gzunapyCppq6sjOldVRFVVRKfKiqgsnVYaxjiZNKWutFyRtaTlLQAAAAAAALBiGD5sl6iqqorKFCjm2jVk7WhCVgAAAAAAAKCI1kLW1stKAQAAAAAAAGiVkBUAAAAAAACgACErAAAAAAAAQAFCVgAAAAAAAIAChKwAAAAAAAAABQhZAQAAAAAAAApoc8ha0fTPh0DpeXxYngoAAAAAAADQvtoUslbkiWQ5mFxeA8qW519+XgAAAAAAAABttfCQtXkImS9nweTyGk6WzrspWG3+HJbX5wMAAAAAAAC0u0VWss6TP+YhZWqdO+d9y4l0vuVzb/6kmi0CAAAAAAAALFKbhwvOWrPljdavbty4nEjn29rzAAAAAAAAAChi0SFrHkRWpP/yYLKysiL2qKmOTTbsHNWdl+2kMp1fOs90vum8y88hPZ/Msn36AAAAAAAAwDKmoqamZk5aaGhoiPr6+hg5sjbbkDrnNKT+OTG7dFvaFLPq58TMWREzZ86JGaWWbrP1WXOifnbE7NL20mGidJeYk1r5QEtbFpqWWumfytQqIzpVVURVp8aQtbpz6ba6IrqUWrpN653T9qrSfqV9s/C1dFvOWydNqSsdKwWyjT0tbwEAAAAAAIAVw/Bhu0RVVVVUphAyN18l63w5YhY2NvanADOFkp06RVR1SiFlRXSumjfIbAwx021El6xv6bemx8ket3wOjevp/NJ5pvNN552FqvnzyZ5r9s9cLVYBAAAAAAAA5jFfyFqWZY15EJmWUzCbKj6zKtEsYE3VoKVWDlhLt6lSNGtdIr+tiK7lvqXUsuOXHidbLz9uqZWD33R+jUFr43k3fx7peTUGrY3LAAAAAAAAAIuywJA1yfPHxqC11BoD1lTF2ixgTYFmHmyWg86uKVwtt67NlpdGa3H8eYLWvDUFramStdSygDV/TtnzS08WAAAAAAAAoA3mm5O1tjafkzWfUzW7bTY36+w09+rsxjlYs3lYS8tZX75Ptn92x8b7t5csKC0Hp6WWqlXLQxtnlbd5OJyWm4YNLu2TzcWa7pPunv4pmTjZnKwAAAAAAABAG+dkbS4LHlMr/ZPCyHIla/PhgsvzoHapjmzo3rkVpfNWmC7tNs/j5eeTVbK2GC64qZI1tfS88ucIAAAAAAAA0BYLDFmbijZTEJm18nymjUFrVacUXqaheFPQmoetXcqB69zgs6nl/Uu0NTt+9nilvixYLS3PnZM1hcGpknVuwJqFrKXnkz3H/Hk2PV8AAAAAAACAhVhgyFqWZY9ZyJpaY9BaHoY3VYeWw9ZyqJm1VEVaXm7et6Rba4/RtN54Xun8GqtYG8+7ZcCaPT8AAAAAAACANlpoyFqu7szyyNI/lVlLQWs+32mpZUFr3rLK1nLLQtdm60uxZY/T4rGan1f5XNN5Z+dfeh7p+aTnlZSfJwAAAAAAAMCiLDRkTcoBZHaTgsnUyoFlp2aBa14pmt02a83DzqXVWj5m8/Npfp7leViz55GeT1osLwAAAAAAAAC0QWV+u1DNg9YsZM1bqgjNWgoy8zCzU7mV1tu95Y9dDlWzlp9j8/Mu/S+TlgEAAAAAAACKaFPImjQPJNNiU2CZV4eWw8ymllWRtnNrcQ7Nzy9rjaefSesAAAAAAAAARVXmt23SFFY2CyjTYvP+Za41nmameT8AAAAAAADA4igUsjbXPLBcVkPL5eEcAQAAAAAAgOXLYoesLbUMNJeFBgAAAAAAALCkLbGQFQAAAAAAAGBFIGQFAAAAAAAAKEDICgAAAAAAAFCAkBUAAAAAAACgACErAAAAAAAAQAFCVgAAAAAAAIAChKwAAAAAAAAABQhZAQAAAAAAAAoQsgIAAAAAAAAUIGQFAAAAAAAAKEDICgAAAAAAAFCAkBUAAAAAAACgACErAAAAAAAAQAFCVgAAAAAAAIAChKwAAAAAAAAABQhZAQAAAAAAAAoQsgIAAAAAAAAUIGQFAAAAAAAAKEDICgAAAAAAAFBARU1NzZy00NDQEPX19VFbW5ttWJomTpocTz33Qrw25o2YPmNG3rtoVVVVsemGG8QWm20cFXnf0jBxcl1UVFRkLWl5CwAAAAAAAKwYhg/bJcspKyvn1q+2e8g68uHH4qbb7opZs2blPcX06N49TjjmM9G/X9+8Z8kTsgIAAAAAAABJayFruw4XPPq11+PW20csdsAKAAAAAAAA0NHaNWR94aXRhYYHBgAAAAAAAFjWtGvIOm26gBUAAAAAAABYvrVryNqafn1XiqHrDV5gW3/ddaJrly753gAAAAAAAAAdq8ND1rXWXD0+vtceC2x7Dd81evXske8NAAAAAAAA0LEqampq5qSFhoaGqK+vj9ra2mzD0nD9LbfHA6MeydcWT4/u3eOEYz4T/fv1zXuWvImT66KioiJrSctbAAAAAAAAYMUwfNguUVVVFZWVc+tXOzxk3XHbreKAffbM1+ZXN21a/O5PV8Xb77yXrQtZAQAAAAAAgPayTIas1Z07R+dSW7A5MX36jJhdOr9EyAoAAAAAAAC0l9ZC1g6fk3XmrFkxta5uIW1aU8AKAAAAAAAA0NE6PGQFAAAAAAAAWJ4IWQEAAAAAAAAKELICAAAAAAAAFCBkBQAAAAAAACigw0LWAf1WjqHrDW5z69mjR3a/tdccFP369c2WAQAAAAAAANpbRU1NzZy00NDQEPX19VFbW5ttWBquv+X2eGDUI9Gje7f4wtGHxyr9++VbFu33V1wdL41+NXbcdqs4YJ89896lY+LkuqioqMha0vIWAAAAAAAAWDEMH7ZLVFVVRWXl3PrVdq1k7da1S3Y7ffqMeO6FlyNLdwtKYTAAAAAAAABAR2nXStbRr70ef7rqupg+Y0beU1z/fn3ji0cf3jR88NKgkhUAAAAAAABIOrySdfBaa8Teew6Lzp075z3FTZs2I6ZPn5mvAQAAAAAAALSvdq1kLZs4aXI89dwL8dqYNwpVtaaEeNMNN4gtNts4lmZNqUpWAAAAAAAAIGmtkrVDQtZlnZAVAAAAAAAASDp8uGAAAAAAAACA5Z2QFQAAAAAAAKAAISsAAAAAAABAAUJWAAAAAAAAgAKErAAAAAAAAAAFCFkBAAAAAAAAChCyAgAAAAAAABQgZAUAAAAAAAAoQMgKAAAAAAAAUICQFQAAAAAAAKAAISsAAAAAAABAAUJWAAAAAAAAgAKErAAAAAAAAAAFCFkBAAAAAAAAChCyAgAAAAAAABQgZAUAAAAAAAAoQMgKAAAAAAAAUICQFQAAAAAAAKAAISsAAAAAAABAAUJWAAAAAAAAgAKErAAAAAAAAAAFCFkBAAAAAAAAChCyAgAAAAAAABQgZAUAAAAAAAAoQMgKAAAAAAAAUICQFQAAAAAAAKAAISsAAAAAAABAAUJWAAAAAAAAgAKErAAAAAAAAAAFCFkBAAAAAAAAChCyAgAAAAAAABQgZAUAAAAAAAAoQMgKAAAAAAAAUICQFQAAAAAAAKAAISsAAAAAAABAAUJWAAAAAAAAgAKErAAAAAAAAAAFCFkBAAAAAAAAChCyAgAAAAAAABQgZAUAAAAAAAAoQMgKAAAAAAAAUICQFQAAAAAAAKAAISsAAAAAAABAAUJWAAAAAAAAgAKErAAAAAAAAAAFCFkBAAAAAAAAChCyAgAAAAAAABQgZAUAAAAAAAAooKKmpmZOWmhoaIj6+vqora3NNixtz734clx13Y0xfcaMqCitb7XFprHPHsPixtvujMefejbmzMlOKzNotVXjc4cfFD179Mh7lq6Jk+uioqIia0nLWwAAAAAAAGDFMHzYLlFVVRWVlXPrVzukkvWZ51+Kv1z7z8aAtaIidtx2q9jvo8Pj2n/eEo8/+cw8AWsy9s234w9/viamTJ2a9wAAAAAAAAB0jKVayfrmW+/EHf+5Lztussag1WL9IevEZX+5LqZNnx6dKitj+K47xXZbbR5XXntDvDrmjWy/BVlr9UFx6Cf3jdtH3JvdP1m5b9/Ye/ddo7q6OltfElSyAgAAAAAAAEm7V7JOmjI1nn/plXjuxdFZe2XMGzF9+syonz07GyJ41522zwLWP175t3kC1rXXWD0OP2j/6NG9e97TaMasmVE3bXq88PKrTcd8+dXXsuMBAAAAAAAAtIcOGS446data2y20QZxw623x1vvvJv1peB1w/XXjWM+c1C8Oub1qJs2LesHAAAAAAAAWFZ0WMjaUgpYt95i0zji4AOy4YXfePPt+eZmBQAAAAAAAOhoHRayTps2PUY9+kQcsM9HY7edt48D9tsr9t97j/jbP2+N2+7+b3z20wdmQwmbBxUAAAAAAABYlnRYyJpqVGsffixuuWNEbLrhBtGze/e4+E9/jceefCYefPjx+NNfr4s9h9VkwWvnzp0b7wQAAAAAAADQwTp0uODZDQ3xyONPxW8uuSKuuOYf8fqbb+VbIl4d80b87rK/xNprrB7HHnFw9OndK98CAAAAAAAA0HGWmTlZWzNu/IT43Z+uivETJsWXjz0yhqyzVr4FAAAAAAAAoGMs9ZC1unNVHHXop2LwWmvkPcVMnzEjrr3hlrh35EPx8Y/tEd26ds369/3oR2L7rbfIlgEAAAAAAADay1IPWWfOqo+r/3FTvPb62BjQb+UYss6acdDHPxZdu3TJ91i0NKzwAw89Ei+NfjW6d+8aPXt2j9vvvjcefuzJfA8AAAAAAACA9rFUQ9bePXvEBkPWiXXWWj0+ssuO8dGP7BJVVVWxxaYbxdGHHxi9StvbaqU+vWPgKv2je7ducdgnPx6bbjw0hgxeK9Zde62o6tQp3wsAAAAAAABg6aqoqamZkxYaGhqivr4+amtrsw3t4Z33xsWfrroum3u1NV2qq+OAfT8as2fPjnXWXCP69+ubb1m6Jk6ui4qKiqwlLW8BAAAAAACAFcPwYY2FpJWVc+tXl/pwwQuzSv9+8YWjD88C1BRf9undKz61314xcNUBWXXqXsN3ja022zi23XKzdgtYAQAAAAAAABamQytZl1UqWQEAAAAAAIBkmatkBQAAAAAAAFjeCFkBAAAAAAAAChCyAgAAAAAAABQgZAUAAAAAAAAoQMgKAAAAAAAAUICQFQAAAAAAAKAAISsAAAAAAABAAUJWAAAAAAAAgAKErAAAAAAAAAAFCFkBAAAAAAAAChCyAgAAAAAAABQgZAUAAAAAAAAoQMgKAAAAAAAAUICQFQAAAAAAAKAAISsAAAAAAABAAUJWAAAAAAAAgAKErAAAAAAAAAAFCFkBAAAAAAAAChCyAgAAAAAAABQgZAUAAAAAAAAoQMgKAAAAAAAAUICQFQAAAAAAAKAAISsAAAAAAABAAUJWAAAAAAAAgAKErAAAAAAAAAAFCFkBAAAAAAAAChCyAgAAAAAAABQgZAUAAAAAAAAoQMgKAAAAAAAAUICQFQAAAAAAAKAAISsAAAAAAABAAUJWAAAAAAAAgAKErAAAAAAAAAAFCFkBAAAAAAAAChCyAgAAAAAAABQgZAUAAAAAAAAoQMgKAAAAAAAAUICQFQAAAAAAAKAAISsAAAAAAABAAUJWAAAAAAAAgAKErAAAAAAAAAAFCFkBAAAAAAAAChCyAgAAAAAAABQgZAUAAAAAAAAoQMgKAAAAAAAAUICQFQAAAAAAAKAAISsAAAAAAABAARU1NTVz0kJDQ0PU19dHbW1ttmFpSI8xYeKk0m32kIVVVlbESn16l26XbjY8cXJdVFRUZC1peQsAAAAAAACsGIYP2yWqqqrmySjbLWR96+1347K/XpeFrB/E0PUGx5GHfDJ7IkuLkBUAAAAAAABIWgtZ22244P+OHPWBA9ZkzBtvxnvjxudrAAAAAAAAAO2r3SpZf3/F1fHS6FejV88ecfD++8TKK62UbymmqqpT9OnTO5ZmTalKVgAAAAAAACDp0OGCyyFr586dY63VV8vC0sUxaOCqsfXmm0b/fn3zniVPyAoAAAAAAAAky0TIuiR07dIlPnvYgTF4rTXyniVLyAoAAAAAAAAkHTon65I0fcaMePvd9/I1AAAAAAAAgPazXIasAAAAAAAAAB1FyAoAAAAAAABQgJAVAAAAAAAAoIDlImRdZ8014iuf/2xsudnGeQ8AAAAAAABAx1guQtbNNh4aq6+2amyxyYbRuaoq7wUAAAAAAABof8tFyHrP/bVx+4h749Y77olZ9fV5LwAAAAAAAED7Wy5C1omTJscd99wXb7/7Xt4DAAAAAAAA0DGWi5AVAAAAAAAAYFkhZAUAAAAAAAAooN1C1pV698qXAAAAAAAAAJZf7Ray7rbz9tGv70r52gezcuk4G6y7Tr4GAAAAAAAA0H4qampq5qSFhoaGqK+vj9ra2mzD0pAeY8LESaXb7CEXS0VlRfTp1TOqqqryniVv4uS6qKioyFrS8hYAAAAAAABYMQwftkuWTVZWzq1fbdeQdXkhZAUAAAAAAACS1kLWdhsuGAAAAAAAAODDQMgKAAAAAAAAUICQFQAAAAAAAKAAISsAAAAAAABAAUJWAAAAAAAAgAKErAAAAAAAAAAFCFkBAAAAAAAAChCyAgAAAAAAABQgZAUAAAAAAAAoQMgKAAAAAAAAUICQFQAAAAAAAKAAISsAAAAAAABAAUJWAAAAAAAAgAKErAAAAAAAAAAFCFkBAAAAAAAAChCyAgAAAAAAABQgZAUAAAAAAAAoQMgKAAAAAAAAUICQFQAAAAAAAKAAISsAAAAAAABAAUJWAAAAAAAAgAKErAAAAAAAAAAFCFkBAAAAAAAAChCyAgAAAAAAABQgZAUAAAAAAAAoQMgKAAAAAAAAUICQFQAAAAAAAKAAISsAAAAAAABAAUJWAAAAAAAAgAKErAAAAAAAAAAFCFkBAAAAAAAAChCyAgAAAAAAABQgZAUAAAAAAAAoQMgKAAAAAAAAUICQFQAAAAAAAKAAISsAAAAAAABAAUJWAAAAAAAAgAKErAAAAAAAAAAFCFkBAAAAAAAAChCyAgAAAAAAABQgZAUAAAAAAAAoQMgKAAAAAAAAUICQFQAAAAAAAKAAISsAAAAAAABAAUJWAAAAAAAAgAKErAAAAAAAAAAFCFkBAAAAAAAACuiQkPWFl1+Jc86/KL591k/ilxdfFuPeH59vmd+TzzwX199ye0yZWpf3AAAAAAAAAHScdg9ZJ06aHH+/6bbsdk5p/c233ombb787W27pvtqH469/vykeGPVI/OHPV8eUqVPzLQAAAAAAAAAdo91D1rfeeW++qtRx4yfEtGnT8rVGKWC95fa7o3727Gz9rbffjQdGPZotAwAAAAAAAHSUdg9ZB67SP3r26J6vNerXd6Xo1q1bvjZ/wJr07tUzNt1wg3wNAAAAAAAAoGO0e8jap3ev+NR+e2W3FaX11QauEvvu+ZFsOVlQwHrUoZ+KgasOyHsAAAAAAAAAOkZFTU1NNh1qQ0ND1NfXR21tbbahIywsYF1j0MC8Z+mbOLkuKioqspa0vAUAAAAAAABWDMOH7RJVVVVRWTm3frXdK1kXZFkJWAEAAAAAAAAWZpkIWQWsAAAAAAAAwPKiw0NWASsAAAAAAACwPOnQkFXACgAAAAAAACxvOixkbUvA+sLLr8Q5518U3z7rJ/HLiy+Lce+Pz/oBAAAAAAAAOkqHhKxtCVgnTpocf7/ptux2Tmn9zbfeiZtL90nLAAAAAAAAAB2lQ0LWp59/cZFDBL/1znsxZWpdvtZo3PgJMW3atHwNAAAAAAAAoP11SMi6647bRtcuXbLlBc3BOnCV/tGzR/d8rVG/vitFt27d8jUAAAAAAACA9tchIevQ9daNzx1xcGy71WZx7BGHzBewJn1694pP7bdXdltRWl9t4Cqx754fyZYBAAAAAAAAOkpFTU1NNs1pQ0ND1NfXR21tbbZhRTZxcl1UVFRkLWl5CwAAAAAAAKwYhg/bJaqqqqKycm79aodUsgIAAAAAAAAsr4SsAAAAAAAAAAUIWQEAAAAAAAAKELICAAAAAAAAFCBkBQAAAAAAAChAyAoAAAAAAABQgJAVAAAAAAAAoAAhKwAAAAAAAEABQlYAAAAAAACAAoSsAAAAAAAAAAUIWQEAAAAAAAAKELICAAAAAAAAFCBkBQAAAAAAAChAyAoAAAAAAABQgJAVAAAAAAAAoAAhKwAAAAAAAEABQlYAAAAAAACAAoSsAAAAAAAAAAUIWQEAAAAAAAAKELICAAAAAAAAFCBkBQAAAAAAAChAyAoAAAAAAABQgJAVAAAAAAAAoAAhKwAAAAAAAEABQlYAAAAAAACAAoSsAAAAAAAAAAUIWQEAAAAAAAAKELICAAAAAAAAFCBkBQAAAAAAAChAyAoAAAAAAABQgJAVAAAAAAAAoAAhKwAAAAAAAEABQlYAAAAAAACAAoSsAAAAAAAAAAUIWQEAAAAAAAAKELICAAAAAAAAFCBkBQAAAAAAAChAyAoAAAAAAABQgJAVAAAAAAAAoAAhKwAAAAAAAEABQlYAAAAAAACAAoSsAAAAAAAAAAUIWQEAAAAAAAAKELICAAAAAAAAFCBkBQAAAAAAAChAyAoAAAAAAABQgJAVAAAAAAAAoAAhKwAAAAAAAEABy0zI2tDQEO+PnxDvjRsfk6dMzXsBAAAAAAAAli0VNTU1c9JCCjnr6+ujtrY229CeXhz9alx+9d9j5sxZeU/EwFUHxBc+e1h069o172k/EyfXRUVFRdaSlrcAAAAAAADAimH4sF2iqqoqKivn1q8uE5Wss2c3xJws6p1rTqkjNQAAAAAAAIBlSYeErNOmT49yfDpjxsx4cfQrMXv27Lyn0ZQpdfHyK6817Tdz5sysAQAAAAAAAHSkdh8u+IFRj8SNt90VK6/UJzbfZMPS+qMxta4u3zq/NQetFuustUaMfPjRbOjgY484JFbp3y/funQYLhgAAAAAAABIOny44PfHT4gR99VmVavvjns/7rjnvoUGrMmYsW/Gfx54MJuvdeKkyXHL7SOivkXVKwAAAAAAAEB7adeQdeRDj8WEiZPytcXz0iuvxUujX8vXAAAAAAAAANpXu4WsU6ZOjaeffyFfm191defYbqvNY589h8WQddZa4NC8s2bNiseefDpfAwAAAAAAAGhf7Ray9ujRI3bfdefo1bNH3jNX714940vHHBEHfvxjsdtO28fnj/p07LfX8OjUbFzjJMWua60xKIbV7NDYAQAAAAAAANDO2i1kTQHpVpttHIcd+InoUl3d2JnbabutYuCqA/K1Rjtss2Wssfpq+VqjVVbpH0cfdmCsOqB/3gMAAAAAAADQvtp1TtZk1qz6aJgzJ1+L6Ny5c6y26qr52lxVnTqV+lfJ1wAAAAAAAACWDe0esnbuXBWVzeZbTXOsvvn22/naXPWzZ5f638nXGqXhgztVdsrXAAAAAAAAANpfu4WsqXb1kSeejquu+2fMmDmzsTN3/4OPxFtvv5uvNRr50KPx+htv5muN3nzrnbjkymvi7Xffy3sAAAAAAAAA2le7haxTp06NO/9zX0yeMjXvmWvS5Clx4aV/jutu/Ffcc39t/P7yv8ZNt90Vsxsa8j0apaD2tdfHxoh7RzZ2AAAAAAAAALSzdgtZe/boERtvsH6+Nr+ZM2fFg488HrfcPiJeeuW1mNNs3tbm0hyuW2y6cb4GAAAAAAAA0L7adU7WHbbZIlbq0ztfWzwbDBkcG6w3OF8DAAAAAAAAaF/tGrKu3Hel+OiwmuhUWRn9Vu4be+y2c/Tq2SPfOr+KUltrjUGx647bRdeuXbKAdt89h2X9AAAAAAAAAB2hoqamJhuXt6GhIerr66O2tjbbsDRNrauLbl27RmVlZcyYMTNuv+feuK/24ewcynp07x6f3HfP2GSjoVmoms4tDSGchgte2iZOrouKioqsJS1vAQAAAAAAgBXD8GG7RFVVVZZtlrVrJWtZClDLJ9GlS3WsN3id6NSpU7Ze1rNn91h3nbWaqlbTibdHwAoAAAAAAACwMB0SsrbUqVNltCwSbV5JCgAAAAAAALCs6JDhgluTHn/CxEml2zlZdevC5mpd2gwXDAAAAAAAACTLzHDBrUkntXLflaJ/v74dGrACAAAAAAAALMwyE7ICAAAAAAAALA+ErAAAAAAAAAAFCFkBAAAAAAAAChCyAgAAAAAAABQgZAUAAAAAAAAoQMgKAAAAAAAAUICQFQAAAAAAAKAAISsAAAAAAABAAUJWAAAAAAAAgAKErAAAAAAAAAAFCFkBAAAAAAAAChCyAgAAAAAAABQgZAUAAAAAAAAoQMgKAAAAAAAAUICQFQAAAAAAAKAAISsAAAAAAABAAUJWAAAAAAAAgAKErAAAAAAAAAAFCFkBAAAAAAAAChCyAgAAAAAAABQgZAUAAAAAAAAoQMgKAAAAAAAAUICQFQAAAAAAAKAAISsAAAAAAABAAUJWAAAAAAAAgAKErAAAAAAAAAAFCFkBAAAAAAAAChCyAgAAAAAAABQgZAUAAAAAAAAoQMgKAAAAAAAAUICQFQAAAAAAAKAAISsAAAAAAABAAUJWAAAAAAAAgAKErAAAAAAAAAAFCFkBAAAAAAAAChCyAgAAAAAAABQgZAUAAAAAAAAoQMgKAAAAAAAAUICQFQAAAAAAAKAAISsAAAAAAABAAUJWAAAAAAAAgAKErAAAAAAAAAAFCFkBAAAAAAAAChCyAgAAAAAAABQgZAUAAAAAAAAoQMgKAAAAAAAAUICQFQAAAAAAAKAAISsAAAAAAABAAUJWAAAAAAAAgAKErAAAAAAAAAAFCFkBAAAAAAAAChCyAgAAAAAAABQgZAUAAAAAAAAoQMgKAAAAAAAAUICQFQAAAAAAAKAAISsAAAAAAABAAUJWAAAAAAAAgAKErAAAAAAAAAAFCFkBAAAAAAAAChCyAgAAAAAAABQgZAUAAAAAAAAoQMgKAAAAAAAAUICQFQAAAAAAAKAAISsAAAAAAABAAUJWAAAAAAAAgAKErAAAAAAAAAAFCFkBAAAAAAAAChCyAgAAAAAAABQgZAUAAAAAAAAoQMgKAAAAAAAAUICQFQAAAAAAAKAAISsAAAAAAABAAUJWAAAAAAAAgAKErAAAAAAAAAAFCFkBAAAAAAAAChCyAgAAAAAAABQgZAUAAAAAAAAoQMgKAAAAAAAAUICQFQAAAAAAAKAAISsAAAAAAABAAUJWAAAAAAAAgAKErAAAAADw/+3dvU7kVgCAUbPUvAINJSUlvBhSFO0DJKmi5E2oKbKw2SIQKprsAwAFSyJFiWCIjMYTfkab/cow50jWvXPHLuz207UBACAQWQEAAAAAAAACkRUAAAAAAAAgEFkBAAAAAAAAApEVAAAAAAAAIBBZAQAAAAAAAAKRFQAAAAAAACAQWQEAAAAAAAACkRUAAAAAAAAgEFkBAAAAAAAAApEVAAAAAAAAIBBZAQAAAAAAAAKRFQAAAAAAACAQWQEAAAAAAAACkRUAAAAAAAAgEFkBAAAAAAAAApEVAAAAAAAAIBBZAQAAAAAAAAKRFQAAAAAAACAQWQEAAAAAAAACkRUAAAAAAAAgEFkBAAAAAAAAApEVAAAAAAAAIBBZAQAAAAAAAAKRFQAAAAAAACAQWQEAAAAAAAACkRUAAAAAAAAgEFkBAAAAAAAAApEVAAAAAAAAIBBZAQAAAAAAAAKRFQAAAAAAACAQWQEAAAAAAAACkRUAAAAAAAAgEFkBAAAAAAAAApEVAAAAAAAAIBBZAQAAAAAAAAKRFQAAAAAAACAQWQEAAAAAAAACkRUAAAAAAAAgEFkBAAAAAAAAApEVAAAAAAAAIBBZAQAAAAAAAAKRFQAAAAAAACAQWQEAAAAAAAACkRUAAAAAAAAgEFkBAAAAAAAAApEVAAAAAAAAIBBZAQAAAAAAAAKRFQAAAAAAACAQWQEAAAAAAAACkRUAAAAAAAAgEFkBAAAAAAAAApEVAAAAAAAAIBBZAQAAAAAAAAKRFQAAAAAAACAQWQEAAAAAAAACkRUAAAAAAAAgEFkBAAAAAAAAApEVAAAAAAAAIBBZAQAAAAAAAAKRFQAAAAAAACAQWQEAAAAAAAACkRUAAAAAAAAgEFkBAAAAAAAAApEVAAAAAAAAIBBZAQAAAAAAAAKRFQAAAAAAACAQWQEAAAAAAAACkRUAAAAAAAAgEFkBAAAAAAAAApEVAAAAAAAAIBBZAQAAAAAAAAKRFQAAAAAAACAQWQEAAAAAAAACkRUAAAAAAAAgEFkBAAAAAAAAApEVAAAAAAAAIBBZAQAAAAAAAAKRFQAAAAAAACAQWQEAAAAAAAACkRUAAAAAAAAgEFkBAAAAAAAAApEVAAAAAAAAIBBZAQAAAAAAAAKRFQAAAAAAACAQWQEAAAAAAAACkRUAAAAAAAAgEFkBAAAAAAAAApEVAAAAAAAAIBBZAQAAAAAAAAKRFQAAAAAAACAQWQEAAAAAAAACkRUAAAAAAAAgEFkBAAAAAAAAApEVAAAAAAAAIBBZAQAAAAAAAAKRFQAAAAAAACAQWQEAAAAAAAACkRUAAAAAAAAgEFkBAAAAAAAAApEVAAAAAAAAIBBZAQAAAAAAAAKRFQAAAAAAACAQWQEAAAAAAAACkRUAAAAAAAAgEFkBAAAAAAAAApEVAAAAAAAAIBBZAQAAAAAAAAKRFQAAAAAAACAQWQEAAAAAAAACkRUAAAAAAAAgEFkBAAAAAAAAApEVAAAAAAAAIBBZAQAAAAAAAAKRFQAAAAAAACAQWQEAAAAAAAACkRUAAAAAAAAgEFkBAAAAAAAAApEVAAAAAAAAIBBZAQAAAAAAAAKRFQAAAAAAACAQWQEAAAAAAAACkRUAAAAAAAAgEFkBAAAAAAAAApEVAAAAAAAAIBBZAQAAAAAAAAKRFQAAAAAAACAQWQEAAAAAAAACkRUAAAAAAAAgEFkBAAAAAAAAApEVAAAAAAAAIBBZAQAAAAAAAAKRFQAAAAAAACAQWQEAAAAAAAACkRUAAAAAAAAgEFkBAAAAAAAAApEVAAAAAAAAIBBZAQAAAAAAAAKRFQAAAAAAACAQWQEAAAAAAAACkRUAAAAAAAAgEFkBAAAAAAAAApEVAAAAAAAAIBBZAQAAAAAAAAKRFQAAAAAAACAQWQEAAAAAAAACkRUAAAAAAAAgEFkBAAAAAAAAApEVAAAAAAAAIBBZAQAAAAAAAAKRFQAAAAAAACAQWQEAAAAAAAACkRUAAAAAAAAgEFkBAAAAAAAAApEVAAAAAAAAIBBZAQAAAAAAAAKRFQAAAAAAACAQWQEAAAAAAAACkRUAAAAAAAAgEFkBAAAAAAAAApEVAAAAAAAAIBBZAQAAAAAAAAKRFQAAAAAAACAQWQEAAAAAAAACkRUAAAAAAAAgEFkBAAAAAAAAApEVAAAAAAAAIBBZAQAAAAAAAAKRFQAAAAAAACAQWQEAAAAAAAACkRUAAAAAAAAgEFkBAAAAAAAAApEVAAAAAAAAIBBZAQAAAAAAAAKRFQAAAAAAACAQWQEAAAAAAAACkRUAAAAAAAAgEFkBAAAAAAAAApEVAAAAAAAAIBBZAQAAAAAAAAKRFQAAAAAAACAQWQEAAAAAAAACkRUAAAAAAAAgEFkBAAAAAAAAApEVAAAAAAAAIBBZAQAAAAAAAAKRFQAAAAAAACAQWQEAAAAAAAACkRUAAAAAAAAgEFkBAAAAAAAAApEVAAAAAAAAIBBZAQAAAAAAAAKRFQAAAAAAACAQWQEAAAAAAAACkRUAAAAAAAAgEFkBAAAAAAAAApEVAAAAAAAAIBBZAQAAAAAAAAKRFQAAAAAAACAQWQEAAAAAAAACkRUAAAAAAAAgEFkBAAAAAAAAApEVAAAAAAAAIBBZAQAAAAAAAAKRFQAAAAAAACAQWQEAAAAAAAACkRUAAAAAAAAgEFkBAAAAAAAAApEVAAAAAAAAIBBZAQAAAAAAAAKRFQAAAAAAACAQWQEAAAAAAAACkRUAAAAAAAAgEFkBAAAAAAAAApEVAAAAAAAAIBBZAQAAAAAAAAKRFQAAAAAAACAQWQEAAAAAAAACkRUAAAAAAAAgEFkBAAAAAAAAApEVAAAAAAAAIBBZAQAAAAAAAAKRFQAAAAAAACAQWQEAAAAAAAACkRUAAAAAAAAgEFkBAAAAAAAAApEVAAAAAAAAIBBZAQAAAAAAAAKRFQAAAAAAACAQWQEAAAAAAAACkRUAAAAAAAAgEFkBAAAAAAAAApEVAAAAAAAAIBBZAQAAAAAAAAKRFQAAAAAAACAQWQEAAAAAAAACkRUAAAAAAAAgEFkBAAAAAAAAApEVAAAAAAAAIBBZAQAAAAAAAAKRFQAAAAAAACAQWQEAAAAAAAACkRUAAAAAAAAgEFkBAAAAAAAAApEVAAAAAAAAIBBZAQAAAAAAAAKRFQAAAAAAACAQWQEAAAAAAAACkRUAAAAAAAAgEFkBAAAAAAAAApEVAAAAAAAAIBBZAQAAAAAAAAKRFQAAAAAAACAQWQEAAAAAAAACkRUAAAAAAAAgEFkBAAAAAAAAApEVAAAAAAAAIBBZAQAAAAAAAAKRFQAAAAAAACAQWQEAAAAAAAACkRUAAAAAAAAgEFkBAAAAAAAAApEVAAAAAAAAIBBZAQAAAAAAAAKRFQAAAAAAACAQWQEAAAAAAAACkRUAAAAAAAAgEFkBAAAAAAAAApEVAAAAAAAAIBBZAQAAAAAAAAKRFQAAAAAAACAQWQEAAAAAAAACkRUAAAAAAAAgEFkBAAAAAAAAApEVAAAAAAAAIBBZAQAAAAAAAAKRFQAAAAAAACAQWQEAAAAAAAACkRUAAAAAAAAgEFkBAAAAAAAAApEVAAAAAAAAIBBZAQAAAAAAAAKRFQAAAAAAACAQWQEAAAAAAAACkRUAAAAAAAAgEFkBAAAAAAAAApEVAAAAAAAAIBBZAQAAAAAAAAKRFQAAAAAAACAQWQEAAAAAAAACkRUAAAAAAAAgEFkBAAAAAAAAApEVAAAAAAAAIBBZAQAAAAAAAAKRFQAAAAAAACAQWQEAAAAAAAACkRUAAAAAAAAgEFkBAAAAAAAAApEVAAAAAAAAIBBZAQAAAAAAAAKRFQAAAAAAACAQWQEAAAAAAAACkRUAAAAAAAAgEFkBAAAAAAAAApEVAAAAAAAAIBBZAQAAAAAAAAKRFQAAAAAAACAQWQEAAAAAAAACkRUAAAAAAAAgEFkBAAAAAAAAApEVAAAAAAAAIBBZAQAAAAAAAAKRFQAAAAAAACAQWQEAAAAAAAACkRUAAAAAAAAgEFkBAAAAAAAAApEVAAAAAAAAIBBZAQAAAAAAAAKRFQAAAAAAACAQWQEAAAAAAAACkRUAAAAAAAAgEFkBAAAAAAAAApEVAAAAAAAAIBBZAQAAAAAAAAKRFQAAAAAAACAQWQEAAAAAAAACkRUAAAAAAAAgEFkBAAAAAAAAApEVAAAAAAAAIBBZAQAAAAAAAAKRFQAAAAAAACAQWQEAAAAAAAACkRUAAAAAAAAgEFkBAAAAAAAAApEVAAAAAAAAIBBZAQAAAAAAAAKRFQAAAAAAACAQWQEAAAAAAAACkRUAAAAAAAAgEFkBAAAAAAAAApEVAAAAAAAAIBBZAQAAAAAAAAKRFQAAAAAAACAQWQEAAAAAAAACkRUAAAAAAAAgEFkBAAAAAAAAApEVAAAAAAAAIBBZAQAAAAAAAAKRFQAAAAAAACAQWQEAAAAAAAACkRUAAAAAAAAgEFkBAAAAAAAAApEVAAAAAAAAIBBZAQAAAAAAAAKRFQAAAAAAACAQWQEAAAAAAAACkRUAAAAAAAAgEFkBAAAAAAAAApEVAAAAAAAAIBBZAQAAAAAAAAKRFQAAAAAAACAQWQEAAAAAAAACkRUAAAAAAAAgeBJZ19bW5jMAAAAAAAAAljVUO1kBAAAAAAAAgheR9fr6ej4DAAAAAAAAWF2fPi1vpy8i6+np6XwGAAAAAAAAsLrOzs6+7HXBR0dH8xkAAAAAAADA6vr5+Hi4v7+f//rXIrKOBfbNmzcPkXU2m81XAQAAAAAAAFbP7e3t8OHD+4eG+nw365PIOh6Xl5fD/v7+fHU1PX5Izx8YAAAAAAAA8Pq9/fqr4erqatFRH3vyuuDxz7HEHh4eDicnJ/NVAAAAAAAAgNVx9uvp8O7dT0t3sY7WNzc3387nixPG8eDgYLi4uBj29vaWXvia/fX37cM43vfje1+15wAAAAAAAACrZPz+6nfffjP8+MP3i1Y4htbn1nZ3d598qXW8cDru7u6Gra2th9C6s7MzbG9vDxsbG/MzX6+bP/5cBFWRFQAAAAAAAF6v329uhvPz8+H09Jfh/fHx8PHjb8P6+voisi5rhC8i62gMrKPZbPYwn8ZpfRoBAAAAAAAA/q+mgDqNU1yddq8uC6yjpZF1MoVVURUAAAAAAAB47caoOh2f89nIOhFZAQAAAAAAgNfuv+Lq5IsiKwAAAAAAAACjYfgH7YefoR8LrggAAAAASUVORK5CYII=;" parent="1" vertex="1">
          <mxGeometry x="880" y="40" width="1881" height="962" as="geometry" />
        </mxCell>
        <mxCell id="JINqtBgBQCpbX40b2igy-3" value="" style="rounded=1;whiteSpace=wrap;html=1;arcSize=1;strokeColor=none;" parent="1" vertex="1">
          <mxGeometry x="973" y="200" width="1753" height="260" as="geometry" />
        </mxCell>
        <mxCell id="JINqtBgBQCpbX40b2igy-5" value="Buka shift kasir" style="text;html=1;align=left;verticalAlign=middle;whiteSpace=wrap;rounded=0;fontSize=18;fontColor=#5466e8;fontStyle=1" parent="1" vertex="1">
          <mxGeometry x="990" y="210" width="170" height="20" as="geometry" />
        </mxCell>
        <mxCell id="cw7qWpoCC_m-WsE-id-s-1" value="" style="shape=image;verticalLabelPosition=bottom;labelBackgroundColor=default;verticalAlign=top;aspect=fixed;imageAspect=0;image=data:image/png,iVBORw0KGgoAAAANSUhEUgAAB1kAAAPCCAYAAAA6eWExAAAAAXNSR0IArs4c6QAAAARnQU1BAACxjwv8YQUAAAAJcEhZcwAADsMAAA7DAcdvqGQAAH0HSURBVHhe7N0JfBxl3Qfwf9I0vVtKWyjlLAXKfd8BagGRQ0G5BAFBEEUR9EVfFEE8kFdERVEUFEUQRARBQS6RqyhHQ7nvs0ChnKV3eqXpu89kNk3TtM2UNmnp94tPd+aZ2dnZyWbjZ3/7f56KmpqaOdHCnDmNXQ0NDbHeeuvFrrvuGltvvXVstNFG0aNHj2zbh9lHjjopXwIAAAAAAAA+zBpm18fsaVNizrTJpTYpYua0qKyszLZVVFRkty3NF7KmgDW1Tp06xf777x/f+MY3FnjnDyshKwAAAAAAAKyYZr7zSsye8G506lSZ5aStZaWNEWyuHLCuscYacckll8T//u//rnABKwAAAAAAALDiql5lnei8xoYxp1N1U37a0jwha5J22mabbWL99dfPe1ZArVwoAAAAAAAAYMVQ1b1XVHTr1WrAmjSFrOUUNs3Beuqpp+a9KzBBKwAAAAAAAKywqlddJ6Jz11aD1nkqWRsaGmLXXXc1RDAAAAAAAACwwqvo3qepWLW5+SpZt99++7xnxdV0iVpJpQEAAAAAAIAVRNeeCw9ZyzbYYIN8CQAAAAAAAGDF1alrj/kC1mS+kLV79+75EgAAAAAAAMCKq1Pn6nxpXvOFrDQyUDAAAAAAAADQmnlC1tZKXQEAAAAAAABWVG0aLhgAAAAAAACABROytqpZGq26FwAAAAAAAGhGyAoAAAAAAABQgJAVAAAAAAAAoAAhKwAAAAAAAEABQlYAAAAAAACAAoSsAAAAAAAAAAUIWQEAAAAAAAAKELICAAAAAAAAFCBkBQAAAAAAAChAyAoAAAAAAABQwDIdss6ZMyfGjBkTL7zwQrz99tt5b6O07bXXXsu2vfHGG3lv62pra2P//fePQw45JJ599tm8FwAAAAAAAKC4ZTpkffXVV+PYY4+N448/Pi699NK8t1EKXcvbzjvvvLx3fimMvfHGG2Ps2LExevTouPjii7M+AAAAAAAAgMWxTIesU6ZMifHjx2e3M2bMyHsbTZ48OSZMmJBtmz59et47v4qKihgyZEhUVlZGdXV17LDDDlkfAAAAAAAAwOJYIeZkPeqoo+Kmm27KKloPPvjgvJdlzTqrD4wBK6+Ury3akDVXz+7Tmg3XXTtfWrRBq/TPWlulY+9Vs33stt2W0b1rl7x3ySt6PT6oTTdYd4k9XpHrvyDp+e+587ZZW9DPuS123HKT7OeVbpdHS+o6tPfrKSmf++47btPujw0AAAAAAEtTRU1NTTZ2bkNDQ9TX12fzl6bK0GuuuSbuueeeeO+996Jbt26xzTbbxMc//vGsf+LEiXHKKafEaqutlh3koYcein/84x/Z/KjTpk2L1VdfPfbee++s0vTxxx+P/v37x7e+9a1s3zTHajrGo48+mh2nX79+MWzYsNhss83ib3/7W8ycOTO+9rWvZXOnXnvttfHggw9m9xs4cGBsuOGG2fKAAQPiwAMPjMMPPzxb33rrrbPHu+WWW+LNN9+MlVZaKXbaaac44ogjsuUnn3wy/vznP8esWbOywHWLLbaIkSNHxl/+8pd48cUXsyrZdB7bbbddfOYzn4nD/veHpaNWlP7LqXxdqlJQedbXjo+tN94gZs6qjytv/Hdc9vdb8q2t+2Fp/5qtN4tZpdfslTfeHpded3PWn4513mknxdDBa8U748bHeZf+NUY+9nS2rTXHHLhvfObje5Z+xJVxzS13xu+uviHfMq8U0h24126x7pqDorpz57y3cTjqCZOnRO3jz8Tvr/lnvPv+hHzL4luc6/HVow+JfXbbMbpWV+c985oxc1bUTZsejzzzfPztX3fH0y++km+Z95pNqZsWF/7l73HziAfyrcXssMXG8Y1jD88Ctbfeez/OvfjP8fDTz+dbF+3T++6eXes1V1tlnuucTC+9N7zy+ptx4933xY133Zf3zm/j9daJgz/2kdiqdP1W6tVznsr19D43ftKUeOCxp7Kf9ytvvJVvaXT2/xwf22++SXSu6pT3zKt8HR988pm48p//nu/+6fl/9bOHxGoD+i20Yj69btL1+cVlV7f6+lwS16GsLa+nfYftGMcfsn+s1Hve67Uo6Xo+9NRz8d1f/iHqpjeONrDdZhvFYfvtERsPWSe6lR67LD3n9Pp68vmX4/Ib/jXPa7C5Rb2W0+98+hk889KrcdXNd8Sjz7yQbwEAAAAAgKWj7rmRUVVVlY2cW9ZprbXW+l5aSB+Apw/MjzzyyPjqV7+ahaZvvfVWTJo0KcaNG5cFlX//+9+z8PO1116LT3ziE1kwmULZL3/5y1nA+v7772fD+L7xxhsxYsSILMh85ZVXsr7DDjssCzOPO+64uPfee+Pdd9/N+tPcqukYN998cxZ4pv333XffOP/88+OJJ57ITjJJwwKnbaml4+y+++5ZCJukY6XHS+eb9kvBcApx07nvtttucfnll8f111+f3TeFryl4PeaYY7I5Wuvq6rLwtfwcZ8+eHc+/nYIyIWt7OXSfPWKvXbaLqk6dstZ/pT4x6olnY9KUqfke8/vsJ/eJvr17RafS/rPqZ8e/720M4zfbYEh8bNfto0e3btGze7dYrX+/uLv2kWyf1hyy9/AYvMZq0an0S5HCm3/9tzbf0igFVKd/6ej4zMc/Gqv065s9XnMpkOrWpUust9bqWcXe5Kl18cKrr+dbF8/iXI8vHf6p6N+3T742v3ScFHgNXmNQ7LrtljF12vR4bvRr2bbm16y6c1WMnzQ57n/kyWxbUScdeVAW1iY9unWNzqU3nHsefDRbX5gUjP7g5ONi7113jJVX6j3fdU6ya9F3pdhpy01j0/XXjXsfeny+n+txB388vnrUwdk5pJ9Ly8Awraef6QbrrBm777jtPNchhZCf+uhu0atH92y9NeXrOKT0895lmy2ya/XymLH51sjCxW02GTrf47aUtqfw9NU33oonX3g5711y16G5tryedt12i9hm0w1Lj1dscIPy80jP4e1x4+Pk0rU/4bBPZuFw+tk3l/btUt052/aR7bfKXmuPPvtivnWuRb2W0+9q1y7VscbAVWLXbTbP/nY1v4YAAAAAALCkzRr3RhawNv/8f76QdZVVVonrrrsuW0+J7H777Rc777xzFlim+VGTdICDDjooq0RNAWsKKZNUjbrPPvtklasp0Czr06dPfPrTn44TTzwxC2mTVAWbgtpNNtkkC1qnTp37gf+nPvWp6Nu3b9ZSeJtssMEGsf/++8e2224bRx99dBY+lEPWdN7rrbdedrxU5fryy40fuKf7psrUUaNGZQFqsueee2ZDB6cK2yQd6/jjj4/BgwdnFbif//zn4+pb7y5taf+QdYuhQ+J/jj4k9t9959hntx0KtxS43LeY4VhHSYHXFw87IFbtt3LeE9Gta3VMmDQlnnj+pbxnfp/cc7es6i55+71xTeFoqiBMgVH3bl2z9RTWDOjXN/77UOPPu6WPf2SnWC0fKvjNd+cep+wbx30mdt9h66bwKYVZY995L55+YXRMmDw5q7ZLwVH6nUjh2xYbrp9V65WDu6KWxPVIlbVvvPNuFgCW2/QZM7PQsxx0pZDwpdfeyJ5z82uWtr9Y6r/v4blfcGirNCTsJ3bfJTt+ko6VHvPpl15ZaIVvGlL2W188MjZYZ63sPsns2Q3xVunn+s7745vOPwVrKWBL+6SArhzslX3+kE9kFaDl6sly5WT6eb0/cVJMnDy1dP9O2X3Lxxg3YWJToNzytZMqod8a9/481zG916Tjp/un/Qavvto8geUu22yeBbhJCnDHvPX2PPcvt/cnTIoHHns6/nzDv5oC0iV1HZpr6+spHXut1VbJqmSbn2f2uuneLXusVMX7+lvvxLjStSxvT8/jvkeeiJvuvj+7/imkLv/807VKr6/nXxmT3aZzLV+7FMymQLlL6fenZaVzkddyOk4aNvyVN96MN95+N7sPAAAAAAAsaW0KWceOHZtVdXbp0iV+ecEFUVGza7w4YGCcdMghMea5Z6N3795ZkLnXXnvFSy+9lAWaKVQdMmRInPDt78a978+Kj+31sdh1682zoXtTteuaa66ZBbAp3Ez7pvXTvn92jBm4RXQbsmUc8bFhMeKOf2dDBScpZB0+fHisvPLKccMNjcO37rrrrvGNb3wjC1nT46eq2XLImoLhCy+8MPbYY48sRE2P+/zzz2fPKa2nsLV5yJqeX7lKNg1DnKpd01DBqTq2e/fu+dCz7R+ypuE196rZLgb0XSmr0izaenbvGqNff2uBgcuyaL+P7Bx77LhNVvU2bfqM7MWZllMV6p33P7TACr3mQUzzcLRlUJaOl8Kj1sKc5GO7bL/AkPUzn/hofHKPXZsq8l4b+3b86LeXxwVXXBt3lM7tlnseiKtuuiMLlVIwlqoEU+iTKl4fKT3WwipPF2RJXI+nXxwdJ37/vLjhjv82tWtvGxFTS8fbZL11snPsWvr9njSlLkY9+ex81yxV4i5OyHrk/h+LDddtrGJN4Wa6LinkmzV79kKHbD71+CNi8w2GZM81/c4+/txLcdaFl8ZFV10/z/nf+p+R2TVeqfRav//Rp+L6Un9ZCniP/tQ+Tc8hVRRfccNt8a2fXVTa7z/ZMdLtX266Pas8Hdh/5SzAS33lcK7ldbj7wUfjmz+5sOkcUrv6lruykHPo4DWzL3qk5RTglisp0xDW5ZA1hbvHnvajee7f1O68t/Qcnpzn57kkrkNLbX09pWuRqsHnOcdS69OrZ2yy/rpZqDth0uT46R+uit82O5/0PNJrqOX1f2/8xPjNlX+Pc353RdxW+p1KLV27KaWfy0al97n02kjXL/0cymF/WVtey+n1tcn6g7PXcpfSz2DqtGkLfY0BAAAAAMAH0VrIOt/YkOUK1KFDh8Y7qw6Mox9+Ms557uX47IOPx5pfPCk2+uqpMfTL/xN/eu2duL+qV2x0XKnv6C/HwI9/Og688Oo471/3xf7n/zVqZ/aIjY84KTb57P9E/72PjMueGRebfv702PQL3431jj4tTntkSpz2n9fjf/87Nv76fq/Yaquts8ddHKkCNYWlZZtuumm+FNnwwS197nOfizXWWCNbvvXWW7O5W1M165VXXtkU9HaEVEWWQohpM2YuVkuhWQo3lic7brFJVt3WMGdOjHjw0RiXn/9aq60ae+2yfbb8QaUgJoWpab7Mtkrh4PAdts7CoCRd119feV08+MQz2Xpzv/vrDVnomr6kkKThUHfbbstsuaileT3+dutdMTqfQzRV5qb5ZZeUVJW46fqDszeXFIDdfv+omDlrVvaGs+0mG8aaA1fJ95xXGmJ5sw3WbXpTeuqF0XHazy5qdb7OVA37y8v/Foef8r1sLtPm0pcTevdsHOY3VTqmL0pcfv2/svWW/jPqsfjy938WX/jOuYsVzN189/1Nlbnp9bFG6ef9QS2p69BSe/x+Jc2v/9TSzz9d+5tG3J+tN5cC0uv+PSJ7bST9V14pPrLDVtlyEek45flwK0vXbO3S8wEAAAAAgPY0X8iaKqiSVGU0ffbsmJ2vT66vj9emTG1sk0tt0pQYM3FyjBk/qbG9PzFm5FVRqXJtzLhJ8dr7aduUeG381BgzIbW6eH1iXel+0+L9aY0fsicz6huiqvO88/cV0Tw1bos0J+uvf/3r2HvvvbOwNc3x+txzz2XzwKb5WztKqko79oxz49D/+d5itZP/71fxxjvv5Udb9qVgKVWjJRNLr6e7Rj4cIx9/OguEUjCUAqIPIoXWb7/3frY8YOWV4guf3j8bkrUttt9846YhVtPvRO3jzyw0kLvx7nubgrcU6m6zyQbZchFL+3okzb9E0KlyyVVo773rDtmwzMno19+Mi/96Q7w69u1sfdX+fRcYOqfnm4ajTVKlZQpn60q3RWy47tqxzhqr5WuRDU+bQrilZcxb7yywonhxLYnr0FJ7vJ6Sltc/DZWdKoQX5Oqb72h6baSAdPOhQ7IvNRTVkV+IAQAAAACWD1858qD450U/jv133yXvmSttu+HCc7KR+tLnnFf85MyspeWFSSMiXv2LH8TNF/90nnbpOd+OA/calu3zlSMOjH/94bzstj2kc/7zT8+Mi77/jQV+3vqTU0+Mq37+/ewz2aUpncMfzv5WvvbhNl/ImobyTdJwu9tUVsQ5G68fn15zUFy58zYx+N47Y8AdN8Wq/7ktfrD1hnHcwF7R/+ER0f/x/8Y6rz4Rlx6zfxy4zcZx6XH7x/Eb94/+z4yIlZ/4d6z/em18d5fB0XfU32OlkdfEoMeuj0v2WD2O37x/fGmzfnHsmrPjkYcfzh53Qerq6poC4CUhVb+eddZZcckll8QFF1yQDU08e/bs+NOf/pTvwdK205abZsOWJimYSSHmvQ8/kQVCSQqIUlC0uBoa5mTDmaZ5HJN11xgUX/j0AdnyoqQ5S1MQlaS5KF94dUy2vCCp4nDsO3OHPF21/8oLrN5ckKV9PdIba6+ePfK1NERs8eGMW5Oe51YbbZAFZqlCMZ13CghT1W996Xcqhc6pWrG1N/Z1Bq2W3S9Jw+4+9ORz2XIR6665WvTJn1eaw/SZl17NlpeW9Ae0T6/Gx0tha7k69INYEtehpaX9eipref1fePWNbHlB0msjDRFcloYk3nKj9fO1tklfllil2Zcg3npv+RkiHQAAAABoP+lz/jR9Xv++ffKeudK2qqqqbHq218a+lRXwvPz62Gy0voXpVjpezx7d4+XX3ohfXHp1XPSXf8S9Dz2efdb5uQP3jX2H7ZgdJ03N19bCuBRMXn7udwrnCmXp8/c08mIawfJTH20Meps7aK9h2WiKVZ0qs+e7NKXrnQo5VwTzhaxpPtQ0xOfUqVPjuGOOiZX/OyIOe+f1+NMPf5DNgfqvf/0ra5MnT87mRv3Pf/6Trf/jH/+IGy46P/btOSNeuuOGOPnkk7OheNO2tE/aN83hmtb//ve/x0++++3Y+f2HY+u37o+ffO/0mDChsQqwuTSfa7lK9cEHH8yG800tPdbiBq5pSNdUrbr//vvH73//+2y+1vr6+mwuVtpPGrp36403yH6+qXLvgceeyvpTEJQCoSQFRCko+iBSdelNd9+fhX/psbbddGh8/pBP5FsXbOWVekfnqsY3ganTpseYN9/Jlhdm7Ltz3yzTm1mqnm2rpX090rl847jDY0g+RHC6Hs2Drg9in9IfjNVW6Zctv/3e+LjnwUez5f+W/qiUA8g1Vh3Q6vC0ffv0ypcixk+aklWJtrTjlpvEXjXbN7UUDDavSB7Yv1/2hzCZVfpdfuu9uWF3Wdo/3a/5cdJxi0jH+Own944TjzgwmwM5mVh6H3z0mRey5ZbSH8OW32Qqt/TNqa8efUi+55K5Ds211+9X0vz6p9fVq2PfzJYX5p1x45uqgdN8yT3b+P6bXsfpm2DfOfGYWH3VxrmU0+/n0y+NzpYBAAAAABZHKg75wa//GGee//tWP59tTfo89LZ7a+OGO/8bZ1/0p/jbrXdn2cAm668bN494IL7yg/Pi7/++J9974VIw2a1rdaFcoTWp6GmPnbaZJ6xNAWyaHrFrl+q8Z9lwzIH7xt2X/6rVlrYtD+YLWT/xiU/E2ms3lkJPnDgxLrzwwvjhD38Y998///x6gwcPjvPOOy/7ID8bUrW2NhuG9/rrr8/WU39ZCm4vvvjibKje5Iknnohzzz03fvazn2VBZ2tStenmm2+eLY8fPz5+/vOfZ4939tlnx9ixY7P+otJxrr766uz+v/3tb7Mw+JRTTonXX3892/7JT34yu+0Iw7bbIv76szPjn7/5v8VqF333lFh9lcbgYVlXs/Vm0ad3z2z59bffjdv+W5stJykQSsFQev2koKjIXKqt+f01/4y7Rj6SBezpDeaTe+7a6tAACzJnTkPTfKtLy5K8HpsNHTJfqHflz76bDXmQfg+TFBqXw9APIr05b7fZRtk3X9IwtI8883zTH6BU3fvkC6Oz94L0jaD0+AvT2vCvZ3318/GjU74Y3z7hqKZ2xpeOjh99/YRsHtiW0jlMrZuerzVKlae/PONr2f2aH+f//ucL8wSdLe03bKd53tQvPef0OPag/WJg/8YKylThfMs9I+Php5/P1ltK896m69Na69Wje2y0gCEnlsR1aM/fr+bSV1/q65fc78rWmwyd52dwzflnxclHHRxD1lw9O/9UOZvC/Bvvui+/BwAAAADA4vnNd7+etcU1ftKk7DPL5NB9do/rLjg7u02fUV/7q7PjzBOPict/8p2487Lz45aLfxpfP/awpqGHUyi6cp/ecfb/fCFbT/1pyN1U4VqWco0bLvzxQocgTp/9r9qvb3xi95q8J+KTH90tm/JtbLOq2vQ59WlfPCobLjmdz7//+PO44MxTmgp70ufGv//hN+OOS8/PtqdhhtNzSYqcVzre+ad/Nf5y3vfmG6b40utujkv/fku+NlfqS9uWB/OFrH369MnCx8MOOywGDRoUnTt3jl69esWwYcPijDPOiI022ii22WabbL9k2223zSpCDzjggCwQTds/+tGPxje+8Y1sCN4k3b98m+Y93WOPPbJt6dirrLJKHHzwwfGZz3wmu29NTU32uEn6EP173/te7LbbbtGzZ8+sWirtv/vuu0d1dXW2/8YbbxzDhw/P9i8bMmRIbLrpptn2VKE6cODApvPedddds+d3+OGHZ0Mjl0OntdZaK4455pg47rjjsvWOUFlRGRX5+SyOrl06t1ryvqxJv1Rbbzw0Gx41DSebhpVtPv9kCoRSMJSkoCgFRh/UFdf/K5srNEkVfOnNYEFVgC1VlH4u5dfJ0rCkr0fn0u9Jy1Av9SUp8HzljTfjV1dc2+Zv4yzMPrvt2PSNmDQMbRqOtrn7H30ypuRDKwwuvYkvbHjadJ1bmjmrPl+aVxp2YY1V5x82IX2to6pq3uOkbxOV/7A1l36ma6+2ar7WdulYL48ZG7/80zXxh7/dmPfOL1VYvjTmjVZbGnbizgdaHyL9g16Hjvj9Kmvt+i8N6UsPb733fnb9z/ndFXkvAAAAAMD8UkFM+mz6D//3rXnadptumO/RqHu3rllbHGlKtH132yn73Hns2+9lOUSqTk23aXjhVIi089abxePPvhi/uOyaGDdhUgzbbqts1MSLrro+3nx3XEyYPCUrGrvgz9fFQ08+mw25m45RlvKfdJxuCznHd8dPyLKQnbfaLPusOOUDqYo1HT99plqWQtdUUJQ+0z/nd3+Of955b6y/9hpx1AF7Z9vTsMd9+/SOn/zhyjjtvN/GMy+90lRl29bzSo9/yucOy+aLvbv2kXj8uZfyLXO1DFqXp4A1afXT8BSAppD0hhtuyCpY77rrrqziNFV5pqF2U3VrCjuTWbNmxdChQ+P000/P5jdN21OlaQo2U9VokqpjyzbZZJP48Y9/HLfddlt27Jtvvjm+9a1vZdWk6b4phC1XuyYpCD3vvPPi7rvvjgceeCDbP91/5513zvZPc6imwLS5LbfcMi699NJsewphjzjiiGw5haupOjaFuF//+tezYYvTOYwcOTKuu+66+MpXvhK9e/fOj9L+Uvjy7Muvxug33lys9tDTL8RjrbxIlzVp2NiBA/JqwBkzY9Aq/eep0PvaMYdmlXapKjEFRalSsrVqvSJSoPi7q2/Ihg9O0lCjJx11cEq0svWW3i+9wZWHM01vQqv0W3SJ/qABc6uIU5Vj+bEWZUlfj/RG3DLUSy29Wf7sj1fFMd/6vwUOcVvUsO23ahpiIIWKaRiC5ue+/eYbZf1J+mPSspq1HMAm/VbqnV3r5s76zaXZG/j/XXR51l5/qzEcbC7NuZvmU07SFzFWa/ZzSNIQuf/zo1/GDy+8LDvG9Xf8p+lnuzDpTb/8uGm4h4ml65pUVlZkj1n7xDPZ+oKkn/9x3z6n1faF75wbV99yZ77nkrkOZe39+5WGZ05DrietXf/WrNKvb9Nw3DNmziw9/7psuaUnn3+56Tn/5abbm/5PQPoCztTSNXv02SXzOgYAAAAAKKr5SHy/+PbJscHgNeOeUY/F3/89It9jXk+/MDp+8oe/ZJ83P/bci9nwwGkquTsfeCgrmEnFJSkgTaNQNi+cKWTOnLj9/lHRt3fPOGDPXeOw/faM1Qb0i7tGPpxtK0sjUX717PPjxxf/OdKQx2nEwMlTp2b3S9KooOmz29fefDv7jP37F/wxfv3n67JtbdGpsjILWIcOXiuuK12P3151fb5lfuWgdXkLWJMPVHKUAtaTTjopC1+/+c1vZiFmCjfPPPPM+Pa3v529INJcrKnylEV77c134sxf/TFOPvtXi9V+dUXbX+AdJYVH5eFlkx7du8VHtt9qnrkmU0tl4ykAStK3I3bZpnHY6A8ivRFcddPtMX3GzCyk2Wqj9WO9tVbPt87rjbffzSogky5dqrNvWixMCqkG5fOSJm+/936bKkWXxvVIk223Fuyd/vPfLdFhVdM3f1J1atkaAwfMd96plYfXTdc8DZHbfHja18a+nVXXJumPSfomT0sPPPpU9iafWvpD09Krb7zVFNKl4C5926alV0r73H7fqOwYEydPzXsXLoXD5cc9749/jUuuvTkL9rLXzsYbxBc+fUC+5we3JK5D0hG/X2+9+37pWjWGxAu6/s2lcxzS7PcuhdcLCv3Lcxqklv4I//zSv8Z74ydmP4N0jDS/cstAGgAAAACguTQ6Yfp8uOVn5g8++Wy+x+JpXiRy5i//EJ/88mlx9oWXLTAgfbNZJWmjiiyMXNL+cft/4rnRr8UuW28eH63ZLl55/c34R4u5YVOV6TlfPyFu+t1P4vZLf5ENU5yGKy77970PRo9uXbMhhNM+v/rO17LPntsqFbpttsG62UiLCwtYy7KgdTkLWJMP9NMbPXp0NpfpuHHjsmrXNOfqBRdcELfeemvMmDEjqwpN1aH9+s0Nn1ixpbG/1yo4RGsKjHbcYpN5JmpeXNfeNiJGPPho9gWAVLbfu2ePfMu80jdFyuOTpzAqPX6av3JB0htVuVQ+BWDPlt7A2qKjr8cHkapSU3VqEWl42jQ0Qdnzr7yWhd5Jmqd032E7FQ7N0pyoY98Zl69F9sZ9wB675mtLTqqATZXiKQxNr4ltNx2ajYu/JCyJ65B0xOspXf8XX30jX4vYZP3BpfPfMV+bX/NzTNfypdfGtvlbWemLEv956LGmOZI3HrJONmQ1AAAAAEB7a14k8oGqT9soFZ+01Y133x9dqquzz5tv/e/I+c4tVblus+mG2bnveczXsiKt9ydOyrdGNrLgAV8+Lb78vZ/Ftf+6O9YetFocf+jcUWuba+283nj7vXj25deyoqv/PW7e0Wg/TD5QyLr++utn1aupijXNzZqGGe7Ro0esu+668dnPfjYLXffdd998bxZlrdVWiS+WXqSnHHPIYrVD9/5IfqRlVwpzulR3zpZTZd5HjjppgS0N7zp5amOFYqqS3G27LbPlD+r8y66OR555oalysDXpDScNr1uuZk0B6olHHNjqsKrHHfzx+NguOzTN25qqEm8Z8UC2vCjLwvVYHOmNMVWlpjfPdI0uvvqfrZ5zuaXhD8rD06YK4vJ1TN+oSWO5l2254XrZZNvlwLqt0h+C8pC7qXrzqAM+FvsN2ylbX5JuueeBbDjmZKVePZdYwLekrkNHvZ7uGfVo07HSH+2jP7Vv1Gw9f3VsCr8P2Xt40zmOmzAxbrq7WHX19aVrVQ7V01DVaXhk1awAAAAAwJJ0+H57xmU/Pj0O3GtY3rN0vT9hYvTs3j02GrJOVmWaPhtOn3kP6NsnDt57eDbnaxqRsDwN26KkIYjvuH9UVpHalhEu02f+fXr1ypZTQU4a6vfjw3fOprhMx0qjSZZHUGzLec1uaIgfX3xFPPPSq9lnuB/WoPUDhawpYElznB588MFx0UUXZfOsjhgxIq6++uo4+eSTY8iQIYWS9RXdkDVXz+a0HL79VovV9tl1h9jkA8ytuLSlX8h11xyULac5IR947KlseUFS+X4afzxJ43/vtOUmSyRMSQHqn2+4bZFzpl598x3xxPMvZ2Fseh2n4UnPO+2k+M13v57NbXnWVz8fV//iB3Hk/ns1nVd6c0mBWVuGCl5WrsfiSNWoqSo1efu98dm3dBYmBdYTJzWGk/1Kb75pCNuyv95yZ9PPIgXVqTr0Tz8+I373g1PjjC8dnV3rn33rK3HN+WctsNoy/ZFIj1GucEwTbX/92MOy+/zolC9mxzjzxM9lk5kf9LGPlP4YLN5b339GPZYNbVt+TaRhd9PPsTWpyrc8D2pr7ehP7TPPz++DXoeOfD3dPOKBuO+RJ5uu/6r9+sb3Tjo2/nD2t7JzT9f+8p98J7762YOzidyTFM7f+p/arBK2iDT0832PPNE0ZPK6pffNNK8AAAAAAEBL6TPL1NJnpi2VtzXMafxcs7yepM+x0+ewzac+K0v7z0nHzEcnbE0KGdM+6Tbt3/zYSfp8dPbs2U3nleZRrZs+PasWvfiH38xGO7ztv7Wl+8+JrxxxYPzsm1/JprhLU9o1P05Z+rw01ZWl/cvO/9M1WStL55v2SfumYpYXXhmTFcb8+48/z7KpKVPrmu6figK/+tlD445Lz49L/u+0rODlb/+6K9u2qPMqP9f0We5Zv7k0y1nSyJgplP2wqaipqcmuWHrC9fX1UVtbm21YkQ078sTSvxWl/3LtFBQP226L+PJhB0T3bl3znmLeeX9CnHPxlfHCq6/nPcuWNKZ3TT7XZDrHr/7wF4ssn//knrvGFz99QHTr2iX7Rf3V5X+LW/8zMi495/Ts2xzJg088G/977q+z5TSkbwqj+vddKTv2Ly69OqtybM3+u+8SX/j0/k1D3j781HNxyjkXZMtlKXRKAdH2m2/UVKm6IJOm1MVlf785G5K4LdrjerRF82uWwsMb774vfnbJVfnW+aX5aVOAluZaTdWpN951bzZn6aJ858vHlN5It87CyVfeeDMbZqD8fFPV45cO/2Q2TntbvpgxfuLk0mv9imz42LL0s0rVxmno5hQaLkp6rnc+8HD2Jp+09To03y9p/rr5389/ps0VtDNmzsrGmE/DLpR9kOuwJF9PZccetF8c/vGPZt9Cem/8hGxugYWFounbSHvtssMiv02Vnvu1t90dv/vrDXnPXG15Laf/c/P9k49rCpVbvp4AAAAAAD6I9Bll+hw8FZe09jnm0pI+f06fc6YK0rJUZfr2e+9noeWSlp5nmlbx8edeynvmteOWm8SESVPmOZ+ypXley6K650ZGVVXVPFnRB6pkZcka8eBj8ZM//jXOu/SaxWq/vPzaZTZgTdKckym8SgHLXSMfblMgkr4RkZ5Tul+anHrmrPqsP82Xmvpm1c/Ovm1Rln7Rx01oHDe8btr0mDilsXqyNWkI21R1mr4xkr5k8Oqbb+db5krn+K2fXRS//ev12RtF+ZsYzaVvmtwz6rHSfhe2OWBN2uN6tMU816x0Di+8svDX0NS6aTErf9z0Bto8lFuYu2sfifcnTs6W03Nu7t6HH48vfOfH8bd/3R1vjxvf6nVOzy8FgU++MDou/Ms/5glYk3TuP/nDX+L0n18cTzz/UqvfTErSdUvnffOI++Oiq/6R97b9OqSQMVVgptdNOqfpzZ7LUy+83DSc8KJMmzEje67NfZDrsCRfT2VvvTeudNzG46Rr09of0ubS9f/J76/M9kuvxZbSNXvs2RfjjF9cvMD/Y9KW13KqFE+/u+Uholu+ngAAAAAAPog0gt5Lr42NK67/V97TPtLnzy0/h02fAS+tIDMdd0EBa5KmpVvQ58JL87yWFypZW9FRlawrgvSth5kzZxUaIjRVKG672Ubxzrjx8/wyL+hYaazyTdYbXPrlfrNNv+DpmyHV1Z2zN4tFKZ9L1+rqbD1V9xV5Li21x/VoiwUdc0GKXuOy9K2YdVZfLZ56cfRCh2tOx99sgyFNY7yn4QtScLqoIZ5bSj/bcsVpsqifV5HrkCp6V+nXN0Y98UybAs3FUfQ6LMnXU1l6noNW6b9Y1z+dT+8ePbLlSVOntul3LGnr82jr6wkAAAAAAD6I1ipZhaytELICAAAAAAAAieGCAQAAAAAAAD4gISsAAAAAAABAAUJWAAAAAAAAgAKErAAAAAAAAAAFCFkBAAAAAAAAChCyAgAAAAAAABQgZAUAAAAAAAAoQMgKAAAAAAAAUICQFQAAAAAAAKAAISsAAAAAAABAAUJWAAAAAAAAgAKErAAAAAAAAAAFCFkBAAAAAAAAChCyAgAAAAAAABQgZAUAAAAAAAAoQMgKAAAAAAAAUICQFQAAAAAAAKAAISsAAAAAAABAAUJWAAAAAAAAgAKErAAAAAAAAAAFCFkBAAAAAAAAChCyAgAAAAAAABQgZAUAAAAAAAAoQMgKAAAAAAAAUICQFQAAAAAAAKAAISsAAAAAAABAAUJWAAAAAAAAgAKErAAAAAAAAAAFVNTU1MxJCw0NDVFfXx+1tbXZhhXZsCNPLP1bUfovV9G0tER97ehDY69dto/uXbvkPQAAAAAAAEBZ3fQZcdt/a+MXl12d97S/uudGRlVVVVRWzq1fVcnaQVLA+sk9dxWwAgAAAAAAwAKkLC1lailbW5YIWTtIqmAFAAAAAAAAFm1Zy9aErB1EBSsAAAAAAAC0zbKWrQlZO8KcbBpcAAAAAAAAoK2WoYxNyNreBKwAAAAAAACweJaRrE3I2gHErAAAAAAAAFDMspSxCVnbkypWAAAAAAAA+GCWgcxNyAoAAAAAAABQgJC1nallBQAAAAAAgMWzrGRtQlYAAAAAAACAAipqamqywLehoSHq6+ujtrY227AkTZlaFw8+8niMeWNs9jgfVI8ePWKrzTaOIYPXjoq8b0kaduSJpX8r5h67Ygk9ypw5Ten6iCsuyJcAAAAAAACARRl25Fey2yy5W1L5XRvUPTcyqqqqorJybv3qUg9ZZ8yYGX+44uoYM/bNvGfJ6FR6Egd+/GOx9Rab5j1LztIPWefEiCt+nS0BAAAAAAAAizZPhtfBIetSHy548pSp8f6EifnakjO7oSHGjH0rXwMAAAAAAABoH0u9kvW9cePjokuvjKl1dbHjtlvFAfvsmW9ZPEv6eK1ZKpWsc8o1rI3/qmQFAAAAAACAtltqo9EuQodUsgIAAAAAAAB8mAhZAQAAAAAAAAoQsgIAAAAAAAAUIGQFAAAAAAAAKEDICgAAAAAAAFCAkBUAAAAAAACgACErAAAAAAAAQAFCVgAAAAAAAIAChKwAAAAAAAAABQhZAQAAAAAAAAqoqKmpmZMWGhoaor6+Pmpra7MNS8p748bHRZdeGVPr6qK6c+foXGofxJw5DTFt+ozS7ZzYcdut4oB99sy3LDnDjjyx9G9F6b9cRdPS4iudb3aT/zviil9nSwAAAAAAAMCiLZUMrw3qnhsZVVVVUVk5t351qVeydu1aHd26dcmWZ86alYWtH6TVTZueBazpkvXt0zs7LgAAAAAAAEB7Weoha88ePeKQA/aNNQYNjB7duy+wVXXqlN8j5c8pnO3S6n6p9e7VM3bdafvYefutG+/APGZOm5UvLdzMmW3bb4maPSsmj5sY4yZ0wGMvjpl1MW4JnO/MKaVjlI4zeVreAQAAAAAAwHJrqQ8X3BZTpk6N3172l2xo4SSFrHvvMSx223n7bL29LbfDBc9+Os4/6MdxxTsR/fY/JW741hZRnW+ax5Sn49zjfxzXvFra77DvxK0nr5dvWNpmxV1nfD5OvbNxbbtv/TJ+s3+fxpUPatrTceGJ58Ulzy4gDK3uHoP6DYihe+8Rxx0yLIaulPe3ZsKrcf2f/hR/vvHFGD0l78t0jl6bbByHHH5UHLf7gNavbTOTH7slzv/jHXHnQ+/G5Nl5Z1I6l8Fb7hxHnLh/HLD+Enr+AAAAAAAAH3Ir1HDBC/LyK6/FvSMfytpd/3kgJkycnG9pDCIfeeLppu0jH34sGyaYRXjzxXjwncbFcTfdHw82Ls5ryqj4zuGNAWv7ezfeGJMvljz49Cv50hLw0D0LDliTmXUx9s1X464/XhJHfuLk+OF/6/IN8xr371/F3p84M354VcuANZkVk596LC454xsx/MjL48H5tpfVxb3nnBy7f+mquL62RcCalM5ldO3t8cOjT469zxkVc1/5AAAAAAAALA86JGQdN35CXPX3G+PG2+7M2n0PPpxV0Tb31jvvNm3/x023xZ333JdvoU1aBnvJlFHxwyN/FbeOa1ztt/dJcc2J7VXFmgyKA766Z2y2Wp8YtO4WccbhW+T9S1jPtWP4/sPigHnaFjG0Z7599sS4/rRz4orX8/Xc5P9eFEd8d1SMK1+76gGx3UeHxbHfOCFO/dywGL5h53xDxMyXb48vH35R3NtK0Dr2qnPiazdMzNciem24RRx54rFx7g9PiLNO3DP23n5A9MpHxx53w6h4vHERAAAAAACA5USHDBecHvCxJ56OJ599fr5wtTX9Vu4bu+64XazUp3fes3Qtt8MFv35DHHnotfFctrJT/OK+E6ImWy7JA9br80rXLGA9fdumsG+599+LYrtT729cXv+guP6y/WNQ49pcsyfGXT/4Vpz678Yq1kGf/UFcf8La2XK8c3t8+aDL48E8YO23+7FxyZnDYlCLMYFnvnxDnHDstfHEzMb1+YZlnv10nLvPj+OaLHztHnv/6Jw4a1grQwLPfDfuuuyf8ewGn4gvDRuQdwIAAAAAwHJu3LS4d3RjGpLpUhlDh1ZH/+rFr/ure2ZqPLJyj6hZNe9oZmHblo4Zce89DbHVbt2ie96zKG/d8qu4cc2T4vOb5h2tmh5P3f509Ntz6xiY90TD+Lj/X6Nj8D7N+tpq6pvx2NiuscX6ffOOBZkerz/+dIzJc4+ke9/BsfGQvjG39Cxi1tjn484HH44xMwbEBptuHjttPGCe7TF5TDw26vF48I1ZMXDwxrHtDhvEwKp82xK0wg8XnJ7ulpttHEce8sk45vCDF9k+8bE92i1g/VD6sAesbdWpTww/fFhT+Dq29ukYmy8/+KdrmwLWWH//uPD78wesSfW6+8dFP9op+uXr4264oem6Zt58MR4vV7euu2cc21rAmlQPiOHHHytgBQAAAADgQ+WtUTPj+ifmhqyzxs6KC340Kc69Z0beU9yTtbPikbfylRYWtm3pmB2PjJwdk/K1RRsfj73QKzYZkq8u0PPxn9uejqZBOOvHxN/PuzBGrTS4eMCajBkZN94/ug3n+XzceMXIGJ2vpakTx4y4OE7/7cPRODDq9HjqqnPjm5c/HLH6BrHJuj1j0gN/jG+ed0e83pDtEDH2jjj7vFvj+erVYpMN14rek2rjorMujXs+5PMldticrLSTogHrtLHx4HXXxqnHnxx773V0bLdzqX3kS3HA8efFhXe+G82+yDDX7Inx3E2Xx5ePPDl237XxPjX7nhzHnnZtXP/C3GFzM6/eEl/e90ux+/FXxRPT8r7knfvjO4d+PmoOPS+uT+8gE16N6395Vhy67+dLj//jeYPMD6Jn9+iVL8bs8hyuT8ddt82do3Xv4w+KwQsJoKt3OjyOaxrp+MW4/t/lqLaFabNav14AAAAAAPAhVj2oKmq27Z61j3ysV3zvG9XR/a5pcdVr+Q4rkvGPx6PdNo8tu+XrbTH1+bjsZ3+JcXueEifttKhK1AXY8JNx+me3jraVMPaKDbbdOnbK2g7x8WOPip3evzfuT9nM0zfGH17dIk7538PiY03bT43jBo2MC/85Jrv3qNtGRL/9jo9DahqPsds+R8b3vn9M7NYUyHw4CVk/zFoLWM9cSMA6bkR8ba/T4ss/vSHuempijCtXZM6si7FPPRaXnPGN2P8Ho2KeLx5MezUuPP7kOPLs2+PBlyfG5LwadOaEifHEiBvih0efHF+7aW7Q+sR1N8SDE+pi8lO3xNUP5Z0lY++8JW59fVbMfP2xuOb6G+I7R50ZP7zqxRg9YVbpYE/HEy/lO35Q77zXVL0ag/pE/3T76jMxqmlu1S2iZpt8cYH6xLY7zR2M+LknX5gbpvYbEIPK1/fNW+I759wfo5uHyQAAAAAAsKLp0T0O2K4iHn54erZa98rUuODnE+LUs1ObGJc/kxdFNcyIuy+bFKf+qNT/o4nx839Pj6YSqffq4re/LPV/v9QunhpjylWUSXnbWY3bXi7PVFk63r1/ntj0OBfcV66mnRm1f5sUZ2T9E+KMZsd77m8T4rf3lM6vdA6nXJ0+4J8dL99ROqd07B9Nit+OajYUchuMe+jp6L7pxtHWjHXW5Ifj9+f9K7offHJ8fsuueW/EtFfujYvOOzdOPyu1X8WVTzdey6zS9PoL4+yzS/2ldvYVjzdWoL5wU3zv6qezPZ6/+tz4/YiRcdHZP4hTr3o+61u00kUsXZM0BPCqO9bEGi0SxU122yY6P91Yedu5tK1uRvl8VhxC1g+tx+Ks1gLWxtXWTZsY76WQtOegGP65w+LcH34zrv7nD+I3Z+4fNfn4uONuvSqueKFxOXnuil/FJc82Lg897KTS/r+MW0vt+ktOiK/uPSiqo3v0X3nuqOSTJs+tGJ1HU1Vp6ZhXXRu3pneAngNiu48OiyNPPCW+tH3jtg9i5rj74zvfHdEUEm+23ZaNc6mOeXduGfy6a8fQNrzTDS7t12Rs6brli9FtpzjuiLlDAI++4aI4dI+jY/dPnhZf/u61cc2dTzcGxwAAAAAAsAJZc/XKmDSxMcns3qsqDjixd5x7+kpx7teq4s3rZsTLacPDM+LmXp3j3NNK/af1jMM3qWia9/TJl+fE4V8p9X+3R+wbs+Lmp/INJc893hD7pm3f6R0nrVUfF1yTwtGGePJv0+Lf/bs2Ps5pXWPN+6fFJc+lc6iItXbsGt9N/af3jqP6zYq/1TYmsxOnRjzy4JzY939XivMO7RbxTF1c8GhlnJQdo2fsO352PJft2RZT4rGnu8UWzcLShXst/v7T26P7Z74UhwyZ9z7deq0bH//KqXH2d0rtlO3jrWvvaMw2xo6Ia8ZsHaecXuovtZN2X63xmk0dH+PqGp/TpLrSeTw4IT72zTPj3MM2yPrmVR91E6eUfj6pvRmjrr8x7u+8eWw78N0Y805Enz498/2aGTggBo5/N9JIzVvst190v/O8OPW8S+P314+Ix14aH7Oah+AfUkLWD626GNc0xO6g2OegjRcesCZr7B+X3HZh3HvLj+Lc4/eJ4btvHIP7rR3b7X1QnHtyeXzcd+Ou+8u1oO/Gg/e/my/vFF86edvS/n2iX6kN2nCnOPLMH8W9910YZ+w0z9THiza7eww//adx720/jd98/9j46hFbRL8i88e+fEMce9DJcUDz9snPR80nLmoMb5N+O8Vx+7QyX2qnztElX1xcQ4//TvzisBQwzzX5nbHx4L9viHPP+HHjEMh7nRbn3vTqvFXBAAAAAADwIVU3rVkFaL/OMXDGzHhyVF3c+8ycmDV5TmMxU5+KqH+uPm55ZnpMmhoxcNDcT+yHbtYlemepVufYcK2KGDN27hyv6+7UNdbMtlXGmjtWRb+XZ8fLUTr+C5Xxkd3yY1R2iY/WVMYjj6X7lR5/YEWMe6n0+KOmx8sTI8ZNzIfqLBla0zXWrWpcfvKJ2bFmab3p+Lt0inWzLW0w8bF4sMtGsV2bhwpeK3bavW88etU/4qnS859Hv9Vi1RlvxlOjHo77n3mzdM3GN1as9ugZvcc9HjeOejnemlwfvQcNaLVqdoOaYTE4f07zeydG/fPGuDprI+L56h3ilK/tEQNjQPRbOd+lpfdKj19ZVbqSJf12iBO+8+04+/iPxU6rRzx/+6XxzbOuisc+5CN9Clk/tDaOvfcuf79jbFxxwjlx4VMLqCJtprpn96huJdCs3mi9GJovj36lHLIOiNXXzBfjsbj+prExc+570OLbYv/45n4D5gkpC5k9K8a9OTHGNm/vNKseXWXbOOsPJ0RNa+8ypfsu/tTbuU59oubkH8Vd//xOnHvinjF8kz7zD9E8ZWxcc/aZccjXR8wdvhgAAAAAAD6UGuLl0Q2xZpby1ccjl0+Ks2+ZHbP6dorN1p9brRrr94ofn9A5Bo6vj7/8YXKc+se6ppEkO3dbYEIYnauaxV3VEd1nzIm6KLUZpW3NKqu6lw/x9pT43o+mxcjxFbHW+lWxbt+KfEOjlo81z/G7VDQGi20w6dHHIzbcpM1DBSdrDjs+zvhYfVx53lVxf1Ol1vR47E//F+fe9FrU910zNlk/r1ZN+tTEKad9PDaOMfGfK38Vp/74X1G61PPp3G1h1bSDYrcjD4vP5+0z+2weA/NLMHi1vjFmdOPcq81NK/W9NXhwNK+L7dxrtdhk22FxyBf/Jw5Z8+m4v+0lv8slIeuHVp/Y+/Rz4txy0Dr71bjkhHPikpcXMVTthFfjrj9fHqcenypAvxQ1Ox8d26V26LWtlr8PP3DPaBxJuC7uOvu0qNk1DY17chx72iVx4U0vxrimyUoLWG1AfszF1HPtGL7/sDigZfvcYfGLS34Z9/7jpNh7lXzfZM0BMThfjJfHxittCIpHv/xqvlRSntu1hep+68XwI46Kcy/+Zdz5n8vi3pt/Glf88KA4YOu5FbTj7r8kfnGn4YMBAAAAAPiQaqiPMfdNiUte7BQH7JLKq2bHa29VxGa79IithnSJ3lPnNFZkJjPrI/p2ja127hlfPLlLbPZaqkhdtOeemDt3a91jpfusnapNO8fQtRuitrb8GfysuPuRhlh3nc4Rb82Jt9aoigO27RZr9qmI98YveJ7VddepjOcemTb3+LX18WS+vHDT49FnI7bbspWhdheh97aHxRmf6RV3nndx3JlVak2OMW92i4132yG2GDKgdM0mzL1m9fUxq6ocbn4pPt7j6XiqaaTTD27gbnvEmo//I/7+Wnmi25LJD8dlN4+NbYftEN3SnLAj7o3RzfOghjfjrXe7Ru8e+fqHlJD1w6xTnxjeImi98OizFhi0Tv7vRbH3J86MU399e9z11MQYW/oN7b9anxiU2ioL+F7GFkfFNVccG4c0q9ac/M7EeGLEiLjk7LNi773OjCua5ZHtYrVt42vfOjbOaNmO3ydqNuwzf4XsGmvH0KZK06fjwcfyxQWaGKOahkyOGLrp+m2quq1eaUAM3X3/OOOCX8ZvDmz6jkncVds48TQAAAAAACzvuneriPfunRannj0ha6ecNSX+8EKn+OIpvWLTLJXqEh/dqzJG/nFSXPDnSXHuf+dEv6rIqkPrnpkWp581Mc7+4+T4+c9mxGs7V8f2pf7OraRZ5eLStG3oqg1xwY8nxc8vmBDf/HdFHHVY9+geVVFzWJfo/5+pceoFk+Lss6fG7X27xBe3Lz3YZtWxz4SZccbFk+OC30yL5yor5jlec9237xZHdZ0V3zw7HX9iXDC5MjbNty3UtMfisRmbx7atzFzYuqqmc0i6DdkvTj9+43j0DxfHPRMHxB4fWy1G/eHCuOiKS+O8e8aXrlk+VO87I+K8s/4vzv7tVXHRL38Z/+q9R+wxsNTftWtTxW1r12+ueR93Pj02jxO+UhPj/vJ/ccr3zy39fEq3P743eh90chy9YdqhawzsMSauPPv/4tSz0vZz49TvXx6vb3NUHLJ+doQPrYqamposnm9oaIj6+vqora3NNqzIhh15YunfitJ/uYp5y8QXy5zGb0GU/x1xxa+zpSXq9RviyKaK053iF/edEDVpcfbEuOvsb8Wpt+bfs+i0dnz1ih/EkWs3rjYaG1ccfVqc/0JaHhCH/OI7cer2zX7zX702Dj38hsZJlPc+KR48c9usu6WZE96N0c88HQ/e+s84/9/5fK27nxD3/nCnLIi89wdHx9dubeze+9zL4qxdGpfH/vm0OODXeXC5kOMv0H8viu1Ovb9xef2D4vrL9o9BjWtt8uBPvxRfvi6/PhseFtdfss+C7//Y5bH3l27PvyUyII697KfxpaJvFCN+FdudNqpxeXGeLwAAAAAALNdmx6yZFdG5upWEb2Z9zKrOQ8Q2aygdb07peK3MiThzVsyq6jx/2FjkcVLFaJqDdKGBZTOvjYgr39w8PrND37xjSSidw8zSObRW+VX0/BZHQ+kxGkqPMe9oys3Ux7SpEd16LHCHD2ypZHhtUPfcyKiqqorKyrkXeGleapYVrVS0nn9kywrTsfFcFrAm60VN84C1ZNxDTzcGrIuQVWvuNCyO/P4p8aXyzM9j3m0aM31Ztd1h+8+tZn32qjj2nFExuZVhg2e+fEt87YxywBrRa+/D4rjmAeuUUXFu6dqee9Orrd4/M3tiXH9rHrCWDB1SJA4GAAAAAIAPg06tB6xJ4YA1qWw9YE2qWwlYkyKPkypHi6Rqaw1bwgFrUjqHBQ2tWfT8FkcKcRean1Yt1YB1WaOStRUTJ9dFRUVF1pKWt0XMKVewNrtNrU+vucPFLjELqmQtW2hFa/NK1u6x9w/PibN2bwxaZ758bRx79A3xXDk0bKq8HBvXn/aruL7bTnHckXvGdut2bxo2d577DDs27v3RsGW6kjUZ/ecz49BfN0ueew6K4YfsFvsMWan0hN6Ne2+9J26pfTeahhXvV7rGfyld42bDqc/zPKq7x2Y77Ry7D1svVi9fmAkvxjVXjYgHX8+HbO60RZx1yymxd/Eh2QEAAAAAAFYoSzLDK2L4sF1Usq4wWvuyRmsVrV+5PJ7IwtNBccDxO0W/bENd3HrGyVGz78lxwL6fj5ojb4j31l+7ldDy3Xjiv2PjiVuvja8d+aWo2fno7D5771W6Ld0nC1hLj3nkYY0Ba2ZB37BYkjoV/35LMviIH8TV39o4vwYlU8bGXX+8Kk4946I49QfXxvXNA9ZVdopzL583YE0GDds7asoHmFkXT4y4Pc7/Qen+6Rip/fT2ZgHrgDjk/BMErAAAAAAAAMsZIeuHyWrrxeZ5wFe9+7axXePivMpB6/75cMCTJ8R7eXLYa5cT4pqf7RlD89Bv5oSJMXbCrOi3y1Fx4S8Piu3yY2+3ZXl83C3i1L+cEEduPyB65aFuus+4KY3LvTbcNk696Jz46haN68l2O23bmLN2WjuGrpN1ZQZtOTfcrNlmMWZC3mC92C4/h8Ef2bhwFWvZ4P2/GTdcfVJ8de9BTc+pueqV1o5DTv9B3HntCTF8pbyzuTWGxS+u/WVccfq8lb3zSBWuex8Wl/zzp3Hq1kuhohkAAAAAAIClynDBrVhuhwtOZs+KyRNmRZd+Cwj4mkmB6IzufaJXKzumbWlO0eq0vVu5sy7G1XWOfiu1Xilavk9S3av14yYzp5Qet1Oz45ZNKx1/dun4PRevEnVR57c45nlOza9Fm5V+HuPq5lbAduq+RM8PAAAAAABgRbEsDRcsZG3Fch2yAgAAAAAAwIeQOVkBAAAAAAAAllNCVgAAAAAAAIAChKwAAAAAAAAABQhZAQAAAAAAAAoQsgIAAAAAAAAUIGQFAAAAAAAAKEDICgAAAAAAAFCAkBUAAAAAAACgACErAAAAAAAAQAFCVgAAAAAAAIAChKwAAAAAAAAABQhZAQAAAAAAAAoQsgIAAAAAAAAUsMRC1jlzlr0GAAAAAAAAsKQtdsi6PASay8M5AgAAAAAAAMuXQiFra4FlWmzev8y1xtPMNO8HAAAAAAAAWBxtDlmbB5NpsSmwbGi8bWjZSv3t3lqcQ/Pzy1rj6WfSOgAAAAAAAEBRbQpZy4FkumkKLEutKdAs/ZO12XNidrmV1tu95Y+dzqPpnPJzbH7epf9l0jIAAAAAAABAEYsMWctBZHaTAsrUssrRuWHm7NL67NmlVr5t1urrl35r+ZjNz6f5eZarWrPnkZ5PWiwvAAAAAAAAALRBRU1NTRYzNjQ0RH19fdTW1mYbkuYBaxauZq0xrEzVodfcND1GPTozZszMd1wGdamuiG23rI5D9usalRWlJ1xZahUVpZZuSy3fLy2XTZxcl+/T2Nnytoh0vcqya5e3Pr26570AAAAAAADAojTP8JrndouT4RUxfNguUVVVFZWVc+tXF13Jmv+TssIUDqa5T1OF6DU3To97a2cs0wFrks4vnWc638bK1nLYWdqYnlPjbgAAAAAAAABtssCQNQshs4XG5XLAmoWssyMeenxmvsPyIZ1vOu/yc2getCZNz7cdLO00HQAAAAAAAD5slqWMbaGVrOUMMgtZmwWss2fPiekz2jGVXALS+abzLget5flZy8+xvaWQFwAAAAAAAFi0ZS1bazVkbTrHPIHMqlhLt1nIWlqon924eXmTzjudf1bNmj+v5ilre/5sZi2vFxEAAAAAAADa2bKWrbW9krXUypWsy3XIWmpZJWv+nLLn17i5XZTLmKdNnxkzZ9WXzqE9Hx0AAAAAAACWHylLS5laytaSZWXI4Iqampos5WtoaIj6+vqora2dGz7mFZ8NqXq1PkptTpSeQ+mJzIkf/Hxyutty5cz/6RXVnSuic1VEVVVFqUVUVlZE6X9RUVlqpX3Sz2Xi5LrsB1T+IbW8LaJ5iFpebn7bsg8AAAAAAACYN6NbWG7XfHlpGD5sl6iqqorKyrn1q/NVss6X9WVBYGN/Clxn59Wsy6NsPtmmoYLz55r9M1eL1Q9sUT/g5i+Epf0CAAAAAAAAgGVd89ystfyseV9H5WvzVbKOHFmbbSiHqqmKNRsiOK9gTW3GzIhzLlj+Klm/9ZVe0aU6smrW1FIla6dOzapZ85/BpClLrpI1aV6l2rJytbVtAAAAAAAAsCJrnsstLLNb3PyuiNYqWRcdss6ek1V/zqqfEzNnNgat02fMiXN/MyXbb3ly6pd7RtcujQFrdXVE56qK6FS6FpWd2i9kTQSsAAAAAAAAsHDNs7kF5XWLm98V0abhgluT8r+sNVteHnXU81jQD7t5f1pu3gAAAAAAAGBFsqC8rLzcvC9pud6eFlnJOjtVss6eW8k6Y2ZjJetPL1r+Klm/cUJjJWuX6maVrJ3SkMFLt5K1bEEVrWWqWQEAAAAAAGD+XG5R60tT8eGCGyJm53OyzsrmY40sYJ2RQtbfLoch6xd7RpcuFfmQwRGdO+cha5qTtXRNyj+LpRWyJq0FqcJVAAAAAAAAmF9r+dySyOyKWOyQtdRdanNixqzIAtYUtP5sMULWoUOqYqU+rY9QnILcl16pj/ETG9q8X1Ff/2JeyZpa5yhdjIpSa9+QNWlrqCp8BQAAAAAAYEXQ1hxuSeV1RXygkLXlcMGLE7J+7fM9Y8P1qvK1eaVj/uX6aTHy4Zlt3q+oppC12XDBHRGyJgJUAAAAAAAAaLuOCFiT1kLW1stFWerKIW5HvRgAAAAAAABgWbesZmodUsmajnHbiBnx3viG2G2H6hiydlWrlayL2q+oZamSFQAAAAAAAFj2LTOVrCnATcFpCkpnzco7W9HW/QAAAAAAAADaS4eErKkgtH/fythh6+ro3DnvbEVb9wMAAAAAAABoLx0Ssqbhej/x0a7xuUO7Z0MAL0hb9wMAAAAAAABoLx0SsgIAAAAAAAAsrypqamrmpIWGhoaor6+PkSNrsw1pPtRSV8xumFPqj5hVPydmzoyYMXNOTJ8xJ3722ynZfkUMHVIVK/VpPdedPTvipVfqY/zEhjbvV9TXv9gzunapyCpkq6sjOldVRFVVRKfKikjz1KbhiZNJU+pKyxVZS1reAgAAAAAAACuG4cN2iaqqqqhMgWKuXUPWjiZkBQAAAAAAAIpoLWRtvVx0KUkVqjtsXd1q23aL6uibV6+23G+dNTpl/em2+X4AAAAAAAAA7a1d08p9hneNzx3avdV25IHdYoMhVa3ut+sOXbL+dNt8PwAAAAAAAID2tlyUhNZsVx0XnbNSdgsAAAAAAADQkTokZE3zuv7z39Pjj1fXxUuv1ue9AAAAAAAAAMu+DglZ58yJeG98Q4x8eGbMmpV3tmL27Ih33mso7VO6AwAAAAAAAMAyoENC1oqKiP59K2OHraujc+e8sxWz6ufEiAdmxPsT5sT0GY0tVcGm8BUAAAAAAACgI3RIyNqluiI+8dGu8blDu8eQtavy3tZNqZsT3/3ZpPjadydm7ZtnT4pRj83MtwIAAAAAAAC0rw4JWYvo2b0izvl27/ja53vGUQd1j198v09WAQsAAAAAAADQESpqamqyCU8bGhqivr4+Ro6szTakeVNLXTG7YU6pv3Ho3pkzIxuuNw3b+7PfTsn2K2LokKpYqU/ruW4aAvilV+pj/MSGpv1S3ytj6mPNQZ2ibtqcmFF63P79OjXtV9TXv9gzunapyCppq6sjOldVRFVVRKfKiqgsnVYaxjiZNKWutFyRtaTlLQAAAAAAALBiGD5sl6iqqorKFCjm2jVk7WhCVgAAAAAAAKCI1kLW1stKAQAAAAAAAGiVkBUAAAAAAACgACErAAAAAAAAQAFCVgAAAAAAAIAChKwAAAAAAAAABQhZAQAAAAAAAApoc8ha0fTPh0DpeXxYngoAAAAAAADQvtoUslbkiWQ5mFxeA8qW519+XgAAAAAAAABttfCQtXkImS9nweTyGk6WzrspWG3+HJbX5wMAAAAAAAC0u0VWss6TP+YhZWqdO+d9y4l0vuVzb/6kmi0CAAAAAAAALFKbhwvOWrPljdavbty4nEjn29rzAAAAAAAAAChi0SFrHkRWpP/yYLKysiL2qKmOTTbsHNWdl+2kMp1fOs90vum8y88hPZ/Msn36AAAAAAAAwDKmoqamZk5aaGhoiPr6+hg5sjbbkDrnNKT+OTG7dFvaFLPq58TMWREzZ86JGaWWbrP1WXOifnbE7NL20mGidJeYk1r5QEtbFpqWWumfytQqIzpVVURVp8aQtbpz6ba6IrqUWrpN653T9qrSfqV9s/C1dFvOWydNqSsdKwWyjT0tbwEAAAAAAIAVw/Bhu0RVVVVUphAyN18l63w5YhY2NvanADOFkp06RVR1SiFlRXSumjfIbAwx021El6xv6bemx8ket3wOjevp/NJ5pvNN552FqvnzyZ5r9s9cLVYBAAAAAAAA5jFfyFqWZY15EJmWUzCbKj6zKtEsYE3VoKVWDlhLt6lSNGtdIr+tiK7lvqXUsuOXHidbLz9uqZWD33R+jUFr43k3fx7peTUGrY3LAAAAAAAAAIuywJA1yfPHxqC11BoD1lTF2ixgTYFmHmyWg86uKVwtt67NlpdGa3H8eYLWvDUFramStdSygDV/TtnzS08WAAAAAAAAoA3mm5O1tjafkzWfUzW7bTY36+w09+rsxjlYs3lYS8tZX75Ptn92x8b7t5csKC0Hp6WWqlXLQxtnlbd5OJyWm4YNLu2TzcWa7pPunv4pmTjZnKwAAAAAAABAG+dkbS4LHlMr/ZPCyHIla/PhgsvzoHapjmzo3rkVpfNWmC7tNs/j5eeTVbK2GC64qZI1tfS88ucIAAAAAAAA0BYLDFmbijZTEJm18nymjUFrVacUXqaheFPQmoetXcqB69zgs6nl/Uu0NTt+9nilvixYLS3PnZM1hcGpknVuwJqFrKXnkz3H/Hk2PV8AAAAAAACAhVhgyFqWZY9ZyJpaY9BaHoY3VYeWw9ZyqJm1VEVaXm7et6Rba4/RtN54Xun8GqtYG8+7ZcCaPT8AAAAAAACANlpoyFqu7szyyNI/lVlLQWs+32mpZUFr3rLK1nLLQtdm60uxZY/T4rGan1f5XNN5Z+dfeh7p+aTnlZSfJwAAAAAAAMCiLDRkTcoBZHaTgsnUyoFlp2aBa14pmt02a83DzqXVWj5m8/Npfp7leViz55GeT1osLwAAAAAAAAC0QWV+u1DNg9YsZM1bqgjNWgoy8zCzU7mV1tu95Y9dDlWzlp9j8/Mu/S+TlgEAAAAAAACKaFPImjQPJNNiU2CZV4eWw8ymllWRtnNrcQ7Nzy9rjaefSesAAAAAAAAARVXmt23SFFY2CyjTYvP+Za41nmameT8AAAAAAADA4igUsjbXPLBcVkPL5eEcAQAAAAAAgOXLYoesLbUMNJeFBgAAAAAAALCkLbGQFQAAAAAAAGBFIGQFAAAAAAAAKEDICgAAAAAAAFCAkBUAAAAAAACgACErAAAAAAAAQAFCVgAAAAAAAIAChKwAAAAAAAAABQhZAQAAAAAAAAoQsgIAAAAAAAAUIGQFAAAAAAAAKEDICgAAAAAAAFCAkBUAAAAAAACgACErAAAAAAAAQAFCVgAAAAAAAIAChKwAAAAAAAAABQhZAQAAAAAAAAoQsgIAAAAAAAAUIGQFAAAAAAAAKEDICgAAAAAAAFBARU1NzZy00NDQEPX19VFbW5ttWJomTpocTz33Qrw25o2YPmNG3rtoVVVVsemGG8QWm20cFXnf0jBxcl1UVFRkLWl5CwAAAAAAAKwYhg/bJcspKyvn1q+2e8g68uHH4qbb7opZs2blPcX06N49TjjmM9G/X9+8Z8kTsgIAAAAAAABJayFruw4XPPq11+PW20csdsAKAAAAAAAA0NHaNWR94aXRhYYHBgAAAAAAAFjWtGvIOm26gBUAAAAAAABYvrVryNqafn1XiqHrDV5gW3/ddaJrly753gAAAAAAAAAdq8ND1rXWXD0+vtceC2x7Dd81evXske8NAAAAAAAA0LEqampq5qSFhoaGqK+vj9ra2mzD0nD9LbfHA6MeydcWT4/u3eOEYz4T/fv1zXuWvImT66KioiJrSctbAAAAAAAAYMUwfNguUVVVFZWVc+tXOzxk3XHbreKAffbM1+ZXN21a/O5PV8Xb77yXrQtZAQAAAAAAgPayTIas1Z07R+dSW7A5MX36jJhdOr9EyAoAAAAAAAC0l9ZC1g6fk3XmrFkxta5uIW1aU8AKAAAAAAAA0NE6PGQFAAAAAAAAWJ4IWQEAAAAAAAAKELICAAAAAAAAFCBkBQAAAAAAACigw0LWAf1WjqHrDW5z69mjR3a/tdccFP369c2WAQAAAAAAANpbRU1NzZy00NDQEPX19VFbW5ttWBquv+X2eGDUI9Gje7f4wtGHxyr9++VbFu33V1wdL41+NXbcdqs4YJ89896lY+LkuqioqMha0vIWAAAAAAAAWDEMH7ZLVFVVRWXl3PrVdq1k7da1S3Y7ffqMeO6FlyNLdwtKYTAAAAAAAABAR2nXStbRr70ef7rqupg+Y0beU1z/fn3ji0cf3jR88NKgkhUAAAAAAABIOrySdfBaa8Teew6Lzp075z3FTZs2I6ZPn5mvAQAAAAAAALSvdq1kLZs4aXI89dwL8dqYNwpVtaaEeNMNN4gtNts4lmZNqUpWAAAAAAAAIGmtkrVDQtZlnZAVAAAAAAAASDp8uGAAAAAAAACA5Z2QFQAAAAAAAKAAISsAAAAAAABAAUJWAAAAAAAAgAKErAAAAAAAAAAFCFkBAAAAAAAAChCyAgAAAAAAABQgZAUAAAAAAAAoQMgKAAAAAAAAUICQFQAAAAAAAKAAISsAAAAAAABAAUJWAAAAAAAAgAKErAAAAAAAAAAFCFkBAAAAAAAAChCyAgAAAAAAABQgZAUAAAAAAAAoQMgKAAAAAAAAUICQFQAAAAAAAKAAISsAAAAAAABAAUJWAAAAAAAAgAKErAAAAAAAAAAFCFkBAAAAAAAAChCyAgAAAAAAABQgZAUAAAAAAAAoQMgKAAAAAAAAUICQFQAAAAAAAKAAISsAAAAAAABAAUJWAAAAAAAAgAKErAAAAAAAAAAFCFkBAAAAAAAAChCyAgAAAAAAABQgZAUAAAAAAAAoQMgKAAAAAAAAUICQFQAAAAAAAKAAISsAAAAAAABAAUJWAAAAAAAAgAKErAAAAAAAAAAFCFkBAAAAAAAAChCyAgAAAAAAABQgZAUAAAAAAAAoQMgKAAAAAAAAUICQFQAAAAAAAKAAISsAAAAAAABAAUJWAAAAAAAAgAKErAAAAAAAAAAFCFkBAAAAAAAAChCyAgAAAAAAABQgZAUAAAAAAAAooKKmpmZOWmhoaIj6+vqora3NNixtz734clx13Y0xfcaMqCitb7XFprHPHsPixtvujMefejbmzMlOKzNotVXjc4cfFD179Mh7lq6Jk+uioqIia0nLWwAAAAAAAGDFMHzYLlFVVRWVlXPrVzukkvWZ51+Kv1z7z8aAtaIidtx2q9jvo8Pj2n/eEo8/+cw8AWsy9s234w9/viamTJ2a9wAAAAAAAAB0jKVayfrmW+/EHf+5Lztussag1WL9IevEZX+5LqZNnx6dKitj+K47xXZbbR5XXntDvDrmjWy/BVlr9UFx6Cf3jdtH3JvdP1m5b9/Ye/ddo7q6OltfElSyAgAAAAAAAEm7V7JOmjI1nn/plXjuxdFZe2XMGzF9+syonz07GyJ41522zwLWP175t3kC1rXXWD0OP2j/6NG9e97TaMasmVE3bXq88PKrTcd8+dXXsuMBAAAAAAAAtIcOGS446data2y20QZxw623x1vvvJv1peB1w/XXjWM+c1C8Oub1qJs2LesHAAAAAAAAWFZ0WMjaUgpYt95i0zji4AOy4YXfePPt+eZmBQAAAAAAAOhoHRayTps2PUY9+kQcsM9HY7edt48D9tsr9t97j/jbP2+N2+7+b3z20wdmQwmbBxUAAAAAAABYlnRYyJpqVGsffixuuWNEbLrhBtGze/e4+E9/jceefCYefPjx+NNfr4s9h9VkwWvnzp0b7wQAAAAAAADQwTp0uODZDQ3xyONPxW8uuSKuuOYf8fqbb+VbIl4d80b87rK/xNprrB7HHnFw9OndK98CAAAAAAAA0HGWmTlZWzNu/IT43Z+uivETJsWXjz0yhqyzVr4FAAAAAAAAoGMs9ZC1unNVHHXop2LwWmvkPcVMnzEjrr3hlrh35EPx8Y/tEd26ds369/3oR2L7rbfIlgEAAAAAAADay1IPWWfOqo+r/3FTvPb62BjQb+UYss6acdDHPxZdu3TJ91i0NKzwAw89Ei+NfjW6d+8aPXt2j9vvvjcefuzJfA8AAAAAAACA9rFUQ9bePXvEBkPWiXXWWj0+ssuO8dGP7BJVVVWxxaYbxdGHHxi9StvbaqU+vWPgKv2je7ducdgnPx6bbjw0hgxeK9Zde62o6tQp3wsAAAAAAABg6aqoqamZkxYaGhqivr4+amtrsw3t4Z33xsWfrroum3u1NV2qq+OAfT8as2fPjnXWXCP69+ubb1m6Jk6ui4qKiqwlLW8BAAAAAACAFcPwYY2FpJWVc+tXl/pwwQuzSv9+8YWjD88C1BRf9undKz61314xcNUBWXXqXsN3ja022zi23XKzdgtYAQAAAAAAABamQytZl1UqWQEAAAAAAIBkmatkBQAAAAAAAFjeCFkBAAAAAAAAChCyAgAAAAAAABQgZAUAAAAAAAAoQMgKAAAAAAAAUICQFQAAAAAAAKAAISsAAAAAAABAAUJWAAAAAAAAgAKErAAAAAAAAAAFCFkBAAAAAAAAChCyAgAAAAAAABQgZAUAAAAAAAAoQMgKAAAAAAAAUICQFQAAAAAAAKAAISsAAAAAAABAAUJWAAAAAAAAgAKErAAAAAAAAAAFCFkBAAAAAAAAChCyAgAAAAAAABQgZAUAAAAAAAAoQMgKAAAAAAAAUICQFQAAAAAAAKAAISsAAAAAAABAAUJWAAAAAAAAgAKErAAAAAAAAAAFCFkBAAAAAAAAChCyAgAAAAAAABQgZAUAAAAAAAAoQMgKAAAAAAAAUICQFQAAAAAAAKAAISsAAAAAAABAAUJWAAAAAAAAgAKErAAAAAAAAAAFCFkBAAAAAAAAChCyAgAAAAAAABQgZAUAAAAAAAAoQMgKAAAAAAAAUICQFQAAAAAAAKAAISsAAAAAAABAAUJWAAAAAAAAgAKErAAAAAAAAAAFCFkBAAAAAAAAChCyAgAAAAAAABQgZAUAAAAAAAAoQMgKAAAAAAAAUICQFQAAAAAAAKAAISsAAAAAAABAARU1NTVz0kJDQ0PU19dHbW1ttmFpSI8xYeKk0m32kIVVVlbESn16l26XbjY8cXJdVFRUZC1peQsAAAAAAACsGIYP2yWqqqrmySjbLWR96+1347K/XpeFrB/E0PUGx5GHfDJ7IkuLkBUAAAAAAABIWgtZ22244P+OHPWBA9ZkzBtvxnvjxudrAAAAAAAAAO2r3SpZf3/F1fHS6FejV88ecfD++8TKK62UbymmqqpT9OnTO5ZmTalKVgAAAAAAACDp0OGCyyFr586dY63VV8vC0sUxaOCqsfXmm0b/fn3zniVPyAoAAAAAAAAky0TIuiR07dIlPnvYgTF4rTXyniVLyAoAAAAAAAAkHTon65I0fcaMePvd9/I1AAAAAAAAgPazXIasAAAAAAAAAB1FyAoAAAAAAABQgJAVAAAAAAAAoIDlImRdZ8014iuf/2xsudnGeQ8AAAAAAABAx1guQtbNNh4aq6+2amyxyYbRuaoq7wUAAAAAAABof8tFyHrP/bVx+4h749Y77olZ9fV5LwAAAAAAAED7Wy5C1omTJscd99wXb7/7Xt4DAAAAAAAA0DGWi5AVAAAAAAAAYFkhZAUAAAAAAAAooN1C1pV698qXAAAAAAAAAJZf7Ray7rbz9tGv70r52gezcuk4G6y7Tr4GAAAAAAAA0H4qampq5qSFhoaGqK+vj9ra2mzD0pAeY8LESaXb7CEXS0VlRfTp1TOqqqryniVv4uS6qKioyFrS8hYAAAAAAABYMQwftkuWTVZWzq1fbdeQdXkhZAUAAAAAAACS1kLWdhsuGAAAAAAAAODDQMgKAAAAAAAAUICQFQAAAAAAAKAAISsAAAAAAABAAUJWAAAAAAAAgAKErAAAAAAAAAAFCFkBAAAAAAAAChCyAgAAAAAAABQgZAUAAAAAAAAoQMgKAAAAAAAAUICQFQAAAAAAAKAAISsAAAAAAABAAUJWAAAAAAAAgAKErAAAAAAAAAAFCFkBAAAAAAAAChCyAgAAAAAAABQgZAUAAAAAAAAoQMgKAAAAAAAAUICQFQAAAAAAAKAAISsAAAAAAABAAUJWAAAAAAAAgAKErAAAAAAAAAAFCFkBAAAAAAAAChCyAgAAAAAAABQgZAUAAAAAAAAoQMgKAAAAAAAAUICQFQAAAAAAAKAAISsAAAAAAABAAUJWAAAAAAAAgAKErAAAAAAAAAAFCFkBAAAAAAAAChCyAgAAAAAAABQgZAUAAAAAAAAoQMgKAAAAAAAAUICQFQAAAAAAAKAAISsAAAAAAABAAUJWAAAAAAAAgAKErAAAAAAAAAAFCFkBAAAAAAAAChCyAgAAAAAAABQgZAUAAAAAAAAoQMgKAAAAAAAAUICQFQAAAAAAAKAAISsAAAAAAABAAUJWAAAAAAAAgAKErAAAAAAAAAAFCFkBAAAAAAAACuiQkPWFl1+Jc86/KL591k/ilxdfFuPeH59vmd+TzzwX199ye0yZWpf3AAAAAAAAAHScdg9ZJ06aHH+/6bbsdk5p/c233ombb787W27pvtqH469/vykeGPVI/OHPV8eUqVPzLQAAAAAAAAAdo91D1rfeeW++qtRx4yfEtGnT8rVGKWC95fa7o3727Gz9rbffjQdGPZotAwAAAAAAAHSUdg9ZB67SP3r26J6vNerXd6Xo1q1bvjZ/wJr07tUzNt1wg3wNAAAAAAAAoGO0e8jap3ev+NR+e2W3FaX11QauEvvu+ZFsOVlQwHrUoZ+KgasOyHsAAAAAAAAAOkZFTU1NNh1qQ0ND1NfXR21tbbahIywsYF1j0MC8Z+mbOLkuKioqspa0vAUAAAAAAABWDMOH7RJVVVVRWTm3frXdK1kXZFkJWAEAAAAAAAAWZpkIWQWsAAAAAAAAwPKiw0NWASsAAAAAAACwPOnQkFXACgAAAAAAACxvOixkbUvA+sLLr8Q5518U3z7rJ/HLiy+Lce+Pz/oBAAAAAAAAOkqHhKxtCVgnTpocf7/ptux2Tmn9zbfeiZtL90nLAAAAAAAAAB2lQ0LWp59/cZFDBL/1znsxZWpdvtZo3PgJMW3atHwNAAAAAAAAoP11SMi6647bRtcuXbLlBc3BOnCV/tGzR/d8rVG/vitFt27d8jUAAAAAAACA9tchIevQ9daNzx1xcGy71WZx7BGHzBewJn1694pP7bdXdltRWl9t4Cqx754fyZYBAAAAAAAAOkpFTU1NNs1pQ0ND1NfXR21tbbZhRTZxcl1UVFRkLWl5CwAAAAAAAKwYhg/bJaqqqqKycm79aodUsgIAAAAAAAAsr4SsAAAAAAAAAAUIWQEAAAAAAAAKELICAAAAAAAAFCBkBQAAAAAAAChAyAoAAAAAAABQgJAVAAAAAAAAoAAhKwAAAAAAAEABQlYAAAAAAACAAoSsAAAAAAAAAAUIWQEAAAAAAAAKELICAAAAAAAAFCBkBQAAAAAAAChAyAoAAAAAAABQgJAVAAAAAAAAoAAhKwAAAAAAAEABQlYAAAAAAACAAoSsAAAAAAAAAAUIWQEAAAAAAAAKELICAAAAAAAAFCBkBQAAAAAAAChAyAoAAAAAAABQgJAVAAAAAAAAoAAhKwAAAAAAAEABQlYAAAAAAACAAoSsAAAAAAAAAAUIWQEAAAAAAAAKELICAAAAAAAAFCBkBQAAAAAAAChAyAoAAAAAAABQgJAVAAAAAAAAoAAhKwAAAAAAAEABQlYAAAAAAACAAoSsAAAAAAAAAAUIWQEAAAAAAAAKELICAAAAAAAAFCBkBQAAAAAAAChAyAoAAAAAAABQgJAVAAAAAAAAoAAhKwAAAAAAAEABQlYAAAAAAACAAoSsAAAAAAAAAAUIWQEAAAAAAAAKELICAAAAAAAAFCBkBQAAAAAAAChAyAoAAAAAAABQgJAVAAAAAAAAoAAhKwAAAAAAAEABy0zI2tDQEO+PnxDvjRsfk6dMzXsBAAAAAAAAli0VNTU1c9JCCjnr6+ujtrY229CeXhz9alx+9d9j5sxZeU/EwFUHxBc+e1h069o172k/EyfXRUVFRdaSlrcAAAAAAADAimH4sF2iqqoqKivn1q8uE5Wss2c3xJws6p1rTqkjNQAAAAAAAIBlSYeErNOmT49yfDpjxsx4cfQrMXv27Lyn0ZQpdfHyK6817Tdz5sysAQAAAAAAAHSkdh8u+IFRj8SNt90VK6/UJzbfZMPS+qMxta4u3zq/NQetFuustUaMfPjRbOjgY484JFbp3y/funQYLhgAAAAAAABIOny44PfHT4gR99VmVavvjns/7rjnvoUGrMmYsW/Gfx54MJuvdeKkyXHL7SOivkXVKwAAAAAAAEB7adeQdeRDj8WEiZPytcXz0iuvxUujX8vXAAAAAAAAANpXu4WsU6ZOjaeffyFfm191defYbqvNY589h8WQddZa4NC8s2bNiseefDpfAwAAAAAAAGhf7Ray9ujRI3bfdefo1bNH3jNX714940vHHBEHfvxjsdtO28fnj/p07LfX8OjUbFzjJMWua60xKIbV7NDYAQAAAAAAANDO2i1kTQHpVpttHIcd+InoUl3d2JnbabutYuCqA/K1Rjtss2Wssfpq+VqjVVbpH0cfdmCsOqB/3gMAAAAAAADQvtp1TtZk1qz6aJgzJ1+L6Ny5c6y26qr52lxVnTqV+lfJ1wAAAAAAAACWDe0esnbuXBWVzeZbTXOsvvn22/naXPWzZ5f638nXGqXhgztVdsrXAAAAAAAAANpfu4WsqXb1kSeejquu+2fMmDmzsTN3/4OPxFtvv5uvNRr50KPx+htv5muN3nzrnbjkymvi7Xffy3sAAAAAAAAA2le7haxTp06NO/9zX0yeMjXvmWvS5Clx4aV/jutu/Ffcc39t/P7yv8ZNt90Vsxsa8j0apaD2tdfHxoh7RzZ2AAAAAAAAALSzdgtZe/boERtvsH6+Nr+ZM2fFg488HrfcPiJeeuW1mNNs3tbm0hyuW2y6cb4GAAAAAAAA0L7adU7WHbbZIlbq0ztfWzwbDBkcG6w3OF8DAAAAAAAAaF/tGrKu3Hel+OiwmuhUWRn9Vu4be+y2c/Tq2SPfOr+KUltrjUGx647bRdeuXbKAdt89h2X9AAAAAAAAAB2hoqamJhuXt6GhIerr66O2tjbbsDRNrauLbl27RmVlZcyYMTNuv+feuK/24ewcynp07x6f3HfP2GSjoVmoms4tDSGchgte2iZOrouKioqsJS1vAQAAAAAAgBXD8GG7RFVVVZZtlrVrJWtZClDLJ9GlS3WsN3id6NSpU7Ze1rNn91h3nbWaqlbTibdHwAoAAAAAAACwMB0SsrbUqVNltCwSbV5JCgAAAAAAALCs6JDhgluTHn/CxEml2zlZdevC5mpd2gwXDAAAAAAAACTLzHDBrUkntXLflaJ/v74dGrACAAAAAAAALMwyE7ICAAAAAAAALA+ErAAAAAAAAAAFCFkBAAAAAAAAChCyAgAAAAAAABQgZAUAAAAAAAAoQMgKAAAAAAAAUICQFQAAAAAAAKAAISsAAAAAAABAAUJWAAAAAAAAgAKErAAAAAAAAAAFCFkBAAAAAAAAChCyAgAAAAAAABQgZAUAAAAAAAAoQMgKAAAAAAAAUICQFQAAAAAAAKAAISsAAAAAAABAAUJWAAAAAAAAgAKErAAAAAAAAAAFCFkBAAAAAAAAChCyAgAAAAAAABQgZAUAAAAAAAAoQMgKAAAAAAAAUICQFQAAAAAAAKAAISsAAAAAAABAAUJWAAAAAAAAgAKErAAAAAAAAAAFCFkBAAAAAAAAChCyAgAAAAAAABQgZAUAAAAAAAAoQMgKAAAAAAAAUICQFQAAAAAAAKAAISsAAAAAAABAAUJWAAAAAAAAgAKErAAAAAAAAAAFCFkBAAAAAAAAChCyAgAAAAAAABQgZAUAAAAAAAAoQMgKAAAAAAAAUICQFQAAAAAAAKAAISsAAAAAAABAAUJWAAAAAAAAgAKErAAAAAAAAAAFCFkBAAAAAAAAChCyAgAAAAAAABQgZAUAAAAAAAAoQMgKAAAAAAAAUICQFQAAAAAAAKAAISsAAAAAAABAAUJWAAAAAAAAgAKErAAAAAAAAAAFCFkBAAAAAAAAChCyAgAAAAAAABQgZAUAAAAAAAAoQMgKAAAAAAAAUICQFQAAAAAAAKAAISsAAAAAAABAAUJWAAAAAAAAgAKErAAAAAAAAAAFCFkBAAAAAAAAChCyAgAAAAAAABQgZAUAAAAAAAAoQMgKAAAAAAAAUICQFQAAAAAAAKAAISsAAAAAAABAAUJWAAAAAAAAgAKErAAAAAAAAAAFCFkBAAAAAAAAChCyAgAAAAAAABQgZAUAAAAAAAAoQMgKAAAAAAAAUICQFQAAAAAAAKAAISsAAAAAAABAAUJWAAAAAAAAgAKErAAAAAAAAAAFCFkBAAAAAAAAChCyAgAAAAAAABQgZAUAAAAAAAAoQMgKAAAAAAAAUICQFQAAAAAAAKAAISsAAAAAAABAAUJWAAAAAAAAgAKErAAAAADw/+3dvU7kVgCAUbPUvAINJSUlvBhSFO0DJKmi5E2oKbKw2SIQKprsAwAFSyJFiWCIjMYTfkab/cow50jWvXPHLuz207UBACAQWQEAAAAAAAACkRUAAAAAAAAgEFkBAAAAAAAAApEVAAAAAAAAIBBZAQAAAAAAAAKRFQAAAAAAACAQWQEAAAAAAAACkRUAAAAAAAAgEFkBAAAAAAAAApEVAAAAAAAAIBBZAQAAAAAAAAKRFQAAAAAAACAQWQEAAAAAAAACkRUAAAAAAAAgEFkBAAAAAAAAApEVAAAAAAAAIBBZAQAAAAAAAAKRFQAAAAAAACAQWQEAAAAAAAACkRUAAAAAAAAgEFkBAAAAAAAAApEVAAAAAAAAIBBZAQAAAAAAAAKRFQAAAAAAACAQWQEAAAAAAAACkRUAAAAAAAAgEFkBAAAAAAAAApEVAAAAAAAAIBBZAQAAAAAAAAKRFQAAAAAAACAQWQEAAAAAAAACkRUAAAAAAAAgEFkBAAAAAAAAApEVAAAAAAAAIBBZAQAAAAAAAAKRFQAAAAAAACAQWQEAAAAAAAACkRUAAAAAAAAgEFkBAAAAAAAAApEVAAAAAAAAIBBZAQAAAAAAAAKRFQAAAAAAACAQWQEAAAAAAAACkRUAAAAAAAAgEFkBAAAAAAAAApEVAAAAAAAAIBBZAQAAAAAAAAKRFQAAAAAAACAQWQEAAAAAAAACkRUAAAAAAAAgEFkBAAAAAAAAApEVAAAAAAAAIBBZAQAAAAAAAAKRFQAAAAAAACAQWQEAAAAAAAACkRUAAAAAAAAgEFkBAAAAAAAAApEVAAAAAAAAIBBZAQAAAAAAAAKRFQAAAAAAACAQWQEAAAAAAAACkRUAAAAAAAAgEFkBAAAAAAAAApEVAAAAAAAAIBBZAQAAAAAAAAKRFQAAAAAAACAQWQEAAAAAAAACkRUAAAAAAAAgEFkBAAAAAAAAApEVAAAAAAAAIBBZAQAAAAAAAAKRFQAAAAAAACAQWQEAAAAAAAACkRUAAAAAAAAgEFkBAAAAAAAAApEVAAAAAAAAIBBZAQAAAAAAAAKRFQAAAAAAACAQWQEAAAAAAAACkRUAAAAAAAAgEFkBAAAAAAAAApEVAAAAAAAAIBBZAQAAAAAAAAKRFQAAAAAAACAQWQEAAAAAAAACkRUAAAAAAAAgEFkBAAAAAAAAApEVAAAAAAAAIBBZAQAAAAAAAAKRFQAAAAAAACAQWQEAAAAAAAACkRUAAAAAAAAgEFkBAAAAAAAAApEVAAAAAAAAIBBZAQAAAAAAAAKRFQAAAAAAACAQWQEAAAAAAAACkRUAAAAAAAAgEFkBAAAAAAAAApEVAAAAAAAAIBBZAQAAAAAAAAKRFQAAAAAAACAQWQEAAAAAAAACkRUAAAAAAAAgEFkBAAAAAAAAApEVAAAAAAAAIBBZAQAAAAAAAAKRFQAAAAAAACAQWQEAAAAAAAACkRUAAAAAAAAgEFkBAAAAAAAAApEVAAAAAAAAIBBZAQAAAAAAAAKRFQAAAAAAACAQWQEAAAAAAAACkRUAAAAAAAAgEFkBAAAAAAAAApEVAAAAAAAAIBBZAQAAAAAAAAKRFQAAAAAAACAQWQEAAAAAAAACkRUAAAAAAAAgEFkBAAAAAAAAApEVAAAAAAAAIBBZAQAAAAAAAAKRFQAAAAAAACAQWQEAAAAAAAACkRUAAAAAAAAgEFkBAAAAAAAAApEVAAAAAAAAIBBZAQAAAAAAAAKRFQAAAAAAACAQWQEAAAAAAAACkRUAAAAAAAAgEFkBAAAAAAAAApEVAAAAAAAAIBBZAQAAAAAAAAKRFQAAAAAAACAQWQEAAAAAAAACkRUAAAAAAAAgEFkBAAAAAAAAApEVAAAAAAAAIBBZAQAAAAAAAAKRFQAAAAAAACAQWQEAAAAAAAACkRUAAAAAAAAgEFkBAAAAAAAAApEVAAAAAAAAIBBZAQAAAAAAAAKRFQAAAAAAACAQWQEAAAAAAAACkRUAAAAAAAAgEFkBAAAAAAAAApEVAAAAAAAAIBBZAQAAAAAAAAKRFQAAAAAAACAQWQEAAAAAAAACkRUAAAAAAAAgEFkBAAAAAAAAApEVAAAAAAAAIBBZAQAAAAAAAAKRFQAAAAAAACAQWQEAAAAAAAACkRUAAAAAAAAgEFkBAAAAAAAAApEVAAAAAAAAIBBZAQAAAAAAAAKRFQAAAAAAACAQWQEAAAAAAAACkRUAAAAAAAAgEFkBAAAAAAAAApEVAAAAAAAAIBBZAQAAAAAAAAKRFQAAAAAAACAQWQEAAAAAAAACkRUAAAAAAAAgEFkBAAAAAAAAApEVAAAAAAAAIBBZAQAAAAAAAAKRFQAAAAAAACAQWQEAAAAAAAACkRUAAAAAAAAgEFkBAAAAAAAAApEVAAAAAAAAIBBZAQAAAAAAAAKRFQAAAAAAACAQWQEAAAAAAAACkRUAAAAAAAAgEFkBAAAAAAAAApEVAAAAAAAAIBBZAQAAAAAAAAKRFQAAAAAAACAQWQEAAAAAAAACkRUAAAAAAAAgEFkBAAAAAAAAApEVAAAAAAAAIBBZAQAAAAAAAAKRFQAAAAAAACAQWQEAAAAAAAACkRUAAAAAAAAgEFkBAAAAAAAAApEVAAAAAAAAIBBZAQAAAAAAAAKRFQAAAAAAACAQWQEAAAAAAAACkRUAAAAAAAAgEFkBAAAAAAAAApEVAAAAAAAAIBBZAQAAAAAAAAKRFQAAAAAAACAQWQEAAAAAAAACkRUAAAAAAAAgEFkBAAAAAAAAApEVAAAAAAAAIBBZAQAAAAAAAAKRFQAAAAAAACAQWQEAAAAAAAACkRUAAAAAAAAgEFkBAAAAAAAAApEVAAAAAAAAIBBZAQAAAAAAAAKRFQAAAAAAACAQWQEAAAAAAAACkRUAAAAAAAAgEFkBAAAAAAAAApEVAAAAAAAAIBBZAQAAAAAAAAKRFQAAAAAAACAQWQEAAAAAAAACkRUAAAAAAAAgEFkBAAAAAAAAApEVAAAAAAAAIBBZAQAAAAAAAAKRFQAAAAAAACAQWQEAAAAAAAACkRUAAAAAAAAgEFkBAAAAAAAAApEVAAAAAAAAIBBZAQAAAAAAAAKRFQAAAAAAACAQWQEAAAAAAAACkRUAAAAAAAAgEFkBAAAAAAAAApEVAAAAAAAAIBBZAQAAAAAAAAKRFQAAAAAAACAQWQEAAAAAAAACkRUAAAAAAAAgEFkBAAAAAAAAApEVAAAAAAAAIBBZAQAAAAAAAAKRFQAAAAAAACAQWQEAAAAAAAACkRUAAAAAAAAgEFkBAAAAAAAAApEVAAAAAAAAIBBZAQAAAAAAAAKRFQAAAAAAACAQWQEAAAAAAAACkRUAAAAAAAAgEFkBAAAAAAAAApEVAAAAAAAAIBBZAQAAAAAAAAKRFQAAAAAAACAQWQEAAAAAAAACkRUAAAAAAAAgEFkBAAAAAAAAApEVAAAAAAAAIBBZAQAAAAAAAAKRFQAAAAAAACAQWQEAAAAAAAACkRUAAAAAAAAgEFkBAAAAAAAAApEVAAAAAAAAIBBZAQAAAAAAAAKRFQAAAAAAACAQWQEAAAAAAAACkRUAAAAAAAAgEFkBAAAAAAAAApEVAAAAAAAAIBBZAQAAAAAAAAKRFQAAAAAAACAQWQEAAAAAAAACkRUAAAAAAAAgEFkBAAAAAAAAApEVAAAAAAAAIBBZAQAAAAAAAAKRFQAAAAAAACAQWQEAAAAAAAACkRUAAAAAAAAgEFkBAAAAAAAAApEVAAAAAAAAIBBZAQAAAAAAAAKRFQAAAAAAACAQWQEAAAAAAAACkRUAAAAAAAAgEFkBAAAAAAAAApEVAAAAAAAAIBBZAQAAAAAAAAKRFQAAAAAAACAQWQEAAAAAAAACkRUAAAAAAAAgEFkBAAAAAAAAApEVAAAAAAAAIBBZAQAAAAAAAAKRFQAAAAAAACAQWQEAAAAAAAACkRUAAAAAAAAgEFkBAAAAAAAAApEVAAAAAAAAIBBZAQAAAAAAAAKRFQAAAAAAACAQWQEAAAAAAAACkRUAAAAAAAAgEFkBAAAAAAAAApEVAAAAAAAAIBBZAQAAAAAAAAKRFQAAAAAAACAQWQEAAAAAAAACkRUAAAAAAAAgEFkBAAAAAAAAApEVAAAAAAAAIBBZAQAAAAAAAAKRFQAAAAAAACAQWQEAAAAAAAACkRUAAAAAAAAgEFkBAAAAAAAAApEVAAAAAAAAIBBZAQAAAAAAAAKRFQAAAAAAACAQWQEAAAAAAAACkRUAAAAAAAAgEFkBAAAAAAAAApEVAAAAAAAAIBBZAQAAAAAAAAKRFQAAAAAAACAQWQEAAAAAAAACkRUAAAAAAAAgEFkBAAAAAAAAApEVAAAAAAAAIBBZAQAAAAAAAAKRFQAAAAAAACAQWQEAAAAAAAACkRUAAAAAAAAgEFkBAAAAAAAAApEVAAAAAAAAIBBZAQAAAAAAAAKRFQAAAAAAACAQWQEAAAAAAAACkRUAAAAAAAAgEFkBAAAAAAAAApEVAAAAAAAAIBBZAQAAAAAAAAKRFQAAAAAAACAQWQEAAAAAAAACkRUAAAAAAAAgEFkBAAAAAAAAApEVAAAAAAAAIBBZAQAAAAAAAAKRFQAAAAAAACAQWQEAAAAAAAACkRUAAAAAAAAgeBJZ19bW5jMAAAAAAAAAljVUO1kBAAAAAAAAgheR9fr6ej4DAAAAAAAAWF2fPi1vpy8i6+np6XwGAAAAAAAAsLrOzs6+7HXBR0dH8xkAAAAAAADA6vr5+Hi4v7+f//rXIrKOBfbNmzcPkXU2m81XAQAAAAAAAFbP7e3t8OHD+4eG+nw365PIOh6Xl5fD/v7+fHU1PX5Izx8YAAAAAAAA8Pq9/fqr4erqatFRH3vyuuDxz7HEHh4eDicnJ/NVAAAAAAAAgNVx9uvp8O7dT0t3sY7WNzc3387nixPG8eDgYLi4uBj29vaWXvia/fX37cM43vfje1+15wAAAAAAAACrZPz+6nfffjP8+MP3i1Y4htbn1nZ3d598qXW8cDru7u6Gra2th9C6s7MzbG9vDxsbG/MzX6+bP/5cBFWRFQAAAAAAAF6v329uhvPz8+H09Jfh/fHx8PHjb8P6+voisi5rhC8i62gMrKPZbPYwn8ZpfRoBAAAAAAAA/q+mgDqNU1yddq8uC6yjpZF1MoVVURUAAAAAAAB47caoOh2f89nIOhFZAQAAAAAAgNfuv+Lq5IsiKwAAAAAAAACjYfgH7YefoR8LrggAAAAASUVORK5CYII=;" vertex="1" parent="1">
          <mxGeometry x="880" y="1090" width="1881" height="962" as="geometry" />
        </mxCell>
        <mxCell id="cw7qWpoCC_m-WsE-id-s-2" value="" style="rounded=1;whiteSpace=wrap;html=1;arcSize=1;strokeColor=none;movable=0;resizable=0;rotatable=0;deletable=0;editable=0;locked=1;connectable=0;" vertex="1" parent="1">
          <mxGeometry x="973" y="1250" width="1407" height="770" as="geometry" />
        </mxCell>
        <mxCell id="cw7qWpoCC_m-WsE-id-s-3" value="" style="rounded=1;whiteSpace=wrap;html=1;arcSize=2;strokeColor=none;container=1;collapsible=0;" vertex="1" parent="1">
          <mxGeometry x="2390" y="1250" width="335" height="390" as="geometry" />
        </mxCell>
        <mxCell id="yWZJ3h4OkLtdrg_D4UX2-127" value="Keranjang" style="text;html=1;align=left;verticalAlign=middle;whiteSpace=wrap;rounded=0;fontSize=18;fontColor=#5466e8;fontStyle=1;spacing=0;spacingLeft=10;spacingTop=10;" vertex="1" parent="cw7qWpoCC_m-WsE-id-s-3">
          <mxGeometry width="170" height="30" as="geometry" />
        </mxCell>
        <mxCell id="yWZJ3h4OkLtdrg_D4UX2-128" value="Nama Tiket" style="text;html=1;align=left;verticalAlign=middle;whiteSpace=wrap;rounded=0;fontSize=17;fontColor=#000000;fontStyle=0;spacingLeft=10;spacing=0;" vertex="1" parent="cw7qWpoCC_m-WsE-id-s-3">
          <mxGeometry y="60" width="150" height="30" as="geometry" />
        </mxCell>
        <mxCell id="yWZJ3h4OkLtdrg_D4UX2-139" value="Rp 125.000" style="text;html=1;align=right;verticalAlign=middle;whiteSpace=wrap;rounded=0;fontSize=17;fontColor=#000000;fontStyle=1;spacingLeft=10;spacing=0;spacingRight=10;" vertex="1" parent="cw7qWpoCC_m-WsE-id-s-3">
          <mxGeometry x="185" y="60" width="150" height="30" as="geometry" />
        </mxCell>
        <mxCell id="yWZJ3h4OkLtdrg_D4UX2-225" value="5" style="rounded=1;whiteSpace=wrap;html=1;fontSize=15;container=1;collapsible=0;" vertex="1" parent="cw7qWpoCC_m-WsE-id-s-3">
          <mxGeometry x="234" y="90" width="90" height="30" as="geometry" />
        </mxCell>
        <mxCell id="yWZJ3h4OkLtdrg_D4UX2-227" value="" style="shape=cross;whiteSpace=wrap;html=1;strokeColor=none;fillColor=#000000;" vertex="1" parent="yWZJ3h4OkLtdrg_D4UX2-225">
          <mxGeometry x="71" y="7.809999999999945" width="14" height="14.38" as="geometry" />
        </mxCell>
        <mxCell id="yWZJ3h4OkLtdrg_D4UX2-229" value="" style="rounded=0;whiteSpace=wrap;html=1;fillColor=#000000;strokeColor=none;" vertex="1" parent="yWZJ3h4OkLtdrg_D4UX2-225">
          <mxGeometry x="5" y="13.5" width="14" height="3" as="geometry" />
        </mxCell>
        <mxCell id="yWZJ3h4OkLtdrg_D4UX2-232" value="" style="shape=image;html=1;verticalAlign=top;verticalLabelPosition=bottom;labelBackgroundColor=#ffffff;imageAspect=0;aspect=fixed;image=https://cdn3.iconfinder.com/data/icons/user-interface-169/32/trash-128.png;imageBackground=default;" vertex="1" parent="cw7qWpoCC_m-WsE-id-s-3">
          <mxGeometry x="190" y="91" width="28" height="28" as="geometry" />
        </mxCell>
        <mxCell id="yWZJ3h4OkLtdrg_D4UX2-238" value="Nama Tiket" style="text;html=1;align=left;verticalAlign=middle;whiteSpace=wrap;rounded=0;fontSize=17;fontColor=#000000;fontStyle=0;spacingLeft=10;spacing=0;" vertex="1" parent="cw7qWpoCC_m-WsE-id-s-3">
          <mxGeometry y="130" width="150" height="30" as="geometry" />
        </mxCell>
        <mxCell id="yWZJ3h4OkLtdrg_D4UX2-239" value="Rp 100.000" style="text;html=1;align=right;verticalAlign=middle;whiteSpace=wrap;rounded=0;fontSize=17;fontColor=#000000;fontStyle=1;spacingLeft=10;spacing=0;spacingRight=10;" vertex="1" parent="cw7qWpoCC_m-WsE-id-s-3">
          <mxGeometry x="185" y="130" width="150" height="30" as="geometry" />
        </mxCell>
        <mxCell id="yWZJ3h4OkLtdrg_D4UX2-240" value="4" style="rounded=1;whiteSpace=wrap;html=1;fontSize=15;container=1;collapsible=0;" vertex="1" parent="cw7qWpoCC_m-WsE-id-s-3">
          <mxGeometry x="234" y="160" width="90" height="30" as="geometry" />
        </mxCell>
        <mxCell id="yWZJ3h4OkLtdrg_D4UX2-241" value="" style="shape=cross;whiteSpace=wrap;html=1;strokeColor=none;fillColor=#000000;" vertex="1" parent="yWZJ3h4OkLtdrg_D4UX2-240">
          <mxGeometry x="71" y="7.809999999999945" width="14" height="14.38" as="geometry" />
        </mxCell>
        <mxCell id="yWZJ3h4OkLtdrg_D4UX2-242" value="" style="rounded=0;whiteSpace=wrap;html=1;fillColor=#000000;strokeColor=none;" vertex="1" parent="yWZJ3h4OkLtdrg_D4UX2-240">
          <mxGeometry x="5" y="13.5" width="14" height="3" as="geometry" />
        </mxCell>
        <mxCell id="yWZJ3h4OkLtdrg_D4UX2-243" value="" style="shape=image;html=1;verticalAlign=top;verticalLabelPosition=bottom;labelBackgroundColor=#ffffff;imageAspect=0;aspect=fixed;image=https://cdn3.iconfinder.com/data/icons/user-interface-169/32/trash-128.png;imageBackground=default;" vertex="1" parent="cw7qWpoCC_m-WsE-id-s-3">
          <mxGeometry x="190" y="161" width="28" height="28" as="geometry" />
        </mxCell>
        <mxCell id="yWZJ3h4OkLtdrg_D4UX2-244" value="Nama Tiket" style="text;html=1;align=left;verticalAlign=middle;whiteSpace=wrap;rounded=0;fontSize=17;fontColor=#000000;fontStyle=0;spacingLeft=10;spacing=0;" vertex="1" parent="cw7qWpoCC_m-WsE-id-s-3">
          <mxGeometry y="200" width="150" height="30" as="geometry" />
        </mxCell>
        <mxCell id="yWZJ3h4OkLtdrg_D4UX2-245" value="Rp 75.000" style="text;html=1;align=right;verticalAlign=middle;whiteSpace=wrap;rounded=0;fontSize=17;fontColor=#000000;fontStyle=1;spacingLeft=10;spacing=0;spacingRight=10;" vertex="1" parent="cw7qWpoCC_m-WsE-id-s-3">
          <mxGeometry x="185" y="200" width="150" height="30" as="geometry" />
        </mxCell>
        <mxCell id="yWZJ3h4OkLtdrg_D4UX2-246" value="3" style="rounded=1;whiteSpace=wrap;html=1;fontSize=15;container=1;collapsible=0;" vertex="1" parent="cw7qWpoCC_m-WsE-id-s-3">
          <mxGeometry x="234" y="230" width="90" height="30" as="geometry" />
        </mxCell>
        <mxCell id="yWZJ3h4OkLtdrg_D4UX2-247" value="" style="shape=cross;whiteSpace=wrap;html=1;strokeColor=none;fillColor=#000000;" vertex="1" parent="yWZJ3h4OkLtdrg_D4UX2-246">
          <mxGeometry x="71" y="7.809999999999945" width="14" height="14.38" as="geometry" />
        </mxCell>
        <mxCell id="yWZJ3h4OkLtdrg_D4UX2-248" value="" style="rounded=0;whiteSpace=wrap;html=1;fillColor=#000000;strokeColor=none;" vertex="1" parent="yWZJ3h4OkLtdrg_D4UX2-246">
          <mxGeometry x="5" y="13.5" width="14" height="3" as="geometry" />
        </mxCell>
        <mxCell id="yWZJ3h4OkLtdrg_D4UX2-249" value="" style="shape=image;html=1;verticalAlign=top;verticalLabelPosition=bottom;labelBackgroundColor=#ffffff;imageAspect=0;aspect=fixed;image=https://cdn3.iconfinder.com/data/icons/user-interface-169/32/trash-128.png;imageBackground=default;" vertex="1" parent="cw7qWpoCC_m-WsE-id-s-3">
          <mxGeometry x="190" y="231" width="28" height="28" as="geometry" />
        </mxCell>
        <mxCell id="yWZJ3h4OkLtdrg_D4UX2-250" value="Rp 25.000" style="text;html=1;align=left;verticalAlign=middle;whiteSpace=wrap;rounded=0;fontSize=17;fontColor=#000000;fontStyle=0;spacingLeft=10;spacing=0;" vertex="1" parent="cw7qWpoCC_m-WsE-id-s-3">
          <mxGeometry y="89" width="150" height="11" as="geometry" />
        </mxCell>
        <mxCell id="yWZJ3h4OkLtdrg_D4UX2-251" value="Rp 25.000" style="text;html=1;align=left;verticalAlign=middle;whiteSpace=wrap;rounded=0;fontSize=17;fontColor=#000000;fontStyle=0;spacingLeft=10;spacing=0;" vertex="1" parent="cw7qWpoCC_m-WsE-id-s-3">
          <mxGeometry y="159.5" width="150" height="11" as="geometry" />
        </mxCell>
        <mxCell id="yWZJ3h4OkLtdrg_D4UX2-252" value="Rp 25.000" style="text;html=1;align=left;verticalAlign=middle;whiteSpace=wrap;rounded=0;fontSize=17;fontColor=#000000;fontStyle=0;spacingLeft=10;spacing=0;" vertex="1" parent="cw7qWpoCC_m-WsE-id-s-3">
          <mxGeometry y="229" width="150" height="11" as="geometry" />
        </mxCell>
        <mxCell id="yWZJ3h4OkLtdrg_D4UX2-253" value="Ringkasan Pembelian" style="text;html=1;align=left;verticalAlign=middle;whiteSpace=wrap;rounded=0;fontSize=18;fontColor=#5466e8;fontStyle=1;spacing=0;spacingLeft=10;" vertex="1" parent="cw7qWpoCC_m-WsE-id-s-3">
          <mxGeometry y="280" width="220" height="20" as="geometry" />
        </mxCell>
        <mxCell id="yWZJ3h4OkLtdrg_D4UX2-254" value="Total Tiket" style="text;html=1;align=left;verticalAlign=middle;whiteSpace=wrap;rounded=0;fontSize=17;fontColor=#000000;fontStyle=0;spacingLeft=10;spacing=0;" vertex="1" parent="cw7qWpoCC_m-WsE-id-s-3">
          <mxGeometry y="310" width="150" height="30" as="geometry" />
        </mxCell>
        <mxCell id="yWZJ3h4OkLtdrg_D4UX2-255" value="12 tiket" style="text;html=1;align=right;verticalAlign=middle;whiteSpace=wrap;rounded=0;fontSize=17;fontColor=#000000;fontStyle=1;spacingLeft=10;spacing=0;spacingRight=10;" vertex="1" parent="cw7qWpoCC_m-WsE-id-s-3">
          <mxGeometry x="185" y="310" width="150" height="30" as="geometry" />
        </mxCell>
        <mxCell id="yWZJ3h4OkLtdrg_D4UX2-256" value="Total Bayar" style="text;html=1;align=left;verticalAlign=middle;whiteSpace=wrap;rounded=0;fontSize=17;fontColor=#000000;fontStyle=0;spacingLeft=10;spacing=0;" vertex="1" parent="cw7qWpoCC_m-WsE-id-s-3">
          <mxGeometry y="340" width="150" height="30" as="geometry" />
        </mxCell>
        <mxCell id="yWZJ3h4OkLtdrg_D4UX2-257" value="Rp 200.000" style="text;html=1;align=right;verticalAlign=middle;whiteSpace=wrap;rounded=0;fontSize=17;fontColor=#000000;fontStyle=1;spacingLeft=10;spacing=0;spacingRight=10;" vertex="1" parent="cw7qWpoCC_m-WsE-id-s-3">
          <mxGeometry x="185" y="340" width="150" height="30" as="geometry" />
        </mxCell>
        <mxCell id="yWZJ3h4OkLtdrg_D4UX2-1" value="Partner" style="text;html=1;align=left;verticalAlign=middle;whiteSpace=wrap;rounded=0;fontSize=15;fontColor=#000000;fontStyle=0" vertex="1" parent="1">
          <mxGeometry x="990" y="265" width="120" height="20" as="geometry" />
        </mxCell>
        <mxCell id="yWZJ3h4OkLtdrg_D4UX2-3" value="" style="group" vertex="1" connectable="0" parent="1">
          <mxGeometry x="1120" y="260" width="280" height="30" as="geometry" />
        </mxCell>
        <mxCell id="JINqtBgBQCpbX40b2igy-7" value="Pilih Partner" style="rounded=0;whiteSpace=wrap;html=1;align=left;spacingLeft=10;fontColor=#908989;" parent="yWZJ3h4OkLtdrg_D4UX2-3" vertex="1">
          <mxGeometry width="280" height="30" as="geometry" />
        </mxCell>
        <mxCell id="yWZJ3h4OkLtdrg_D4UX2-2" value="" style="html=1;verticalLabelPosition=bottom;labelBackgroundColor=#ffffff;verticalAlign=top;shadow=0;dashed=0;strokeWidth=2;shape=mxgraph.ios7.misc.up;rotation=-180;" vertex="1" parent="yWZJ3h4OkLtdrg_D4UX2-3">
          <mxGeometry x="260" y="12" width="12" height="6" as="geometry" />
        </mxCell>
        <mxCell id="yWZJ3h4OkLtdrg_D4UX2-4" value="Nama Kasir" style="text;html=1;align=left;verticalAlign=middle;whiteSpace=wrap;rounded=0;fontSize=15;fontColor=#000000;fontStyle=0" vertex="1" parent="1">
          <mxGeometry x="990" y="310" width="120" height="20" as="geometry" />
        </mxCell>
        <mxCell id="yWZJ3h4OkLtdrg_D4UX2-6" value="Nama Kasir" style="rounded=0;whiteSpace=wrap;html=1;align=left;spacingLeft=10;fontColor=#908989;" vertex="1" parent="1">
          <mxGeometry x="1120" y="305" width="280" height="30" as="geometry" />
        </mxCell>
        <mxCell id="yWZJ3h4OkLtdrg_D4UX2-8" value="0" style="rounded=0;whiteSpace=wrap;html=1;align=right;spacingLeft=0;fontColor=#908989;spacingRight=10;" vertex="1" parent="1">
          <mxGeometry x="1120" y="350" width="280" height="30" as="geometry" />
        </mxCell>
        <mxCell id="yWZJ3h4OkLtdrg_D4UX2-9" value="Modal awal" style="text;html=1;align=left;verticalAlign=middle;whiteSpace=wrap;rounded=0;fontSize=15;fontColor=#000000;fontStyle=0" vertex="1" parent="1">
          <mxGeometry x="990" y="355" width="120" height="20" as="geometry" />
        </mxCell>
        <mxCell id="yWZJ3h4OkLtdrg_D4UX2-10" value="Buka Shift" style="html=1;shadow=0;dashed=0;shape=mxgraph.bootstrap.rrect;rSize=5;strokeColor=none;strokeWidth=1;fillColor=#33A64C;fontColor=#FFFFFF;whiteSpace=wrap;align=center;verticalAlign=middle;spacingLeft=0;fontStyle=0;fontSize=12;spacing=5;" vertex="1" parent="1">
          <mxGeometry x="1120" y="400" width="90" height="30" as="geometry" />
        </mxCell>
        <mxCell id="yWZJ3h4OkLtdrg_D4UX2-12" value="Pilih Tiket" style="text;html=1;align=left;verticalAlign=middle;whiteSpace=wrap;rounded=0;fontSize=18;fontColor=#5466e8;fontStyle=1" vertex="1" parent="1">
          <mxGeometry x="990" y="1260" width="170" height="20" as="geometry" />
        </mxCell>
        <mxCell id="yWZJ3h4OkLtdrg_D4UX2-13" value="Tiket Bundling" style="text;html=1;align=left;verticalAlign=middle;whiteSpace=wrap;rounded=0;fontSize=18;fontColor=#000000;fontStyle=1" vertex="1" parent="1">
          <mxGeometry x="990" y="1310" width="170" height="20" as="geometry" />
        </mxCell>
        <mxCell id="yWZJ3h4OkLtdrg_D4UX2-16" value="" style="group" vertex="1" connectable="0" parent="1">
          <mxGeometry x="990" y="1340" width="150" height="150" as="geometry" />
        </mxCell>
        <mxCell id="cw7qWpoCC_m-WsE-id-s-5" value="" style="rounded=0;whiteSpace=wrap;html=1;" vertex="1" parent="yWZJ3h4OkLtdrg_D4UX2-16">
          <mxGeometry width="150" height="150" as="geometry" />
        </mxCell>
        <mxCell id="yWZJ3h4OkLtdrg_D4UX2-14" value="" style="endArrow=none;html=1;rounded=0;exitX=0;exitY=0;exitDx=0;exitDy=0;entryX=1;entryY=1;entryDx=0;entryDy=0;" edge="1" parent="yWZJ3h4OkLtdrg_D4UX2-16" source="cw7qWpoCC_m-WsE-id-s-5" target="cw7qWpoCC_m-WsE-id-s-5">
          <mxGeometry width="50" height="50" relative="1" as="geometry">
            <mxPoint x="345" y="135" as="sourcePoint" />
            <mxPoint x="420" y="60" as="targetPoint" />
          </mxGeometry>
        </mxCell>
        <mxCell id="yWZJ3h4OkLtdrg_D4UX2-15" value="" style="endArrow=none;html=1;rounded=0;exitX=0;exitY=1;exitDx=0;exitDy=0;entryX=1;entryY=0;entryDx=0;entryDy=0;" edge="1" parent="yWZJ3h4OkLtdrg_D4UX2-16" source="cw7qWpoCC_m-WsE-id-s-5" target="cw7qWpoCC_m-WsE-id-s-5">
          <mxGeometry width="50" height="50" relative="1" as="geometry">
            <mxPoint x="15" y="15" as="sourcePoint" />
            <mxPoint x="165" y="165" as="targetPoint" />
          </mxGeometry>
        </mxCell>
        <mxCell id="yWZJ3h4OkLtdrg_D4UX2-17" value="" style="rounded=0;whiteSpace=wrap;html=1;container=1;collapsible=0;" vertex="1" parent="1">
          <mxGeometry x="1140" y="1340" width="200" height="150" as="geometry" />
        </mxCell>
        <mxCell id="yWZJ3h4OkLtdrg_D4UX2-26" value="" style="ellipse;whiteSpace=wrap;html=1;aspect=fixed;container=1;collapsible=0;fillColor=#008a00;strokeColor=#005700;fontColor=#ffffff;" vertex="1" parent="yWZJ3h4OkLtdrg_D4UX2-17">
          <mxGeometry x="160" y="110" width="30" height="30" as="geometry" />
        </mxCell>
        <mxCell id="yWZJ3h4OkLtdrg_D4UX2-36" value="" style="shape=cross;whiteSpace=wrap;html=1;strokeColor=none;" vertex="1" parent="yWZJ3h4OkLtdrg_D4UX2-26">
          <mxGeometry x="5.625" y="5.625" width="18.75" height="18.75" as="geometry" />
        </mxCell>
        <mxCell id="yWZJ3h4OkLtdrg_D4UX2-41" value="" style="ellipse;whiteSpace=wrap;html=1;aspect=fixed;fillColor=#e51400;fontColor=#ffffff;strokeColor=#B20000;container=1;collapsible=0;" vertex="1" parent="yWZJ3h4OkLtdrg_D4UX2-17">
          <mxGeometry x="50" y="110" width="30" height="30" as="geometry" />
        </mxCell>
        <mxCell id="yWZJ3h4OkLtdrg_D4UX2-44" value="" style="rounded=0;whiteSpace=wrap;html=1;strokeColor=none;" vertex="1" parent="yWZJ3h4OkLtdrg_D4UX2-41">
          <mxGeometry x="3.75" y="13.125" width="22.5" height="3.75" as="geometry" />
        </mxCell>
        <mxCell id="yWZJ3h4OkLtdrg_D4UX2-45" value="125" style="rounded=0;whiteSpace=wrap;html=1;fillColor=none;fontColor=#333333;strokeColor=#d1d1d1;fontSize=20;" vertex="1" parent="yWZJ3h4OkLtdrg_D4UX2-17">
          <mxGeometry x="90" y="100" width="60" height="40" as="geometry" />
        </mxCell>
        <mxCell id="yWZJ3h4OkLtdrg_D4UX2-20" value="Rp 25.000" style="text;align=right;verticalAlign=middle;rounded=0;fontSize=20;fontColor=#000000;fontStyle=0;spacing=0;spacingLeft=10;spacingTop=5;html=1;whiteSpace=wrap;spacingRight=10;" vertex="1" parent="yWZJ3h4OkLtdrg_D4UX2-17">
          <mxGeometry y="30" width="200" height="30" as="geometry" />
        </mxCell>
        <mxCell id="yWZJ3h4OkLtdrg_D4UX2-18" value="Nama Tiket" style="text;align=left;verticalAlign=middle;rounded=0;fontSize=20;fontColor=#000000;fontStyle=1;spacing=0;spacingLeft=10;spacingTop=5;html=1;whiteSpace=wrap;" vertex="1" parent="yWZJ3h4OkLtdrg_D4UX2-17">
          <mxGeometry width="200" height="30" as="geometry" />
        </mxCell>
        <mxCell id="yWZJ3h4OkLtdrg_D4UX2-90" value="Tiket Reguler" style="text;html=1;align=left;verticalAlign=middle;whiteSpace=wrap;rounded=0;fontSize=18;fontColor=#000000;fontStyle=1" vertex="1" parent="1">
          <mxGeometry x="990" y="1530" width="170" height="20" as="geometry" />
        </mxCell>
        <mxCell id="yWZJ3h4OkLtdrg_D4UX2-140" value="" style="group" vertex="1" connectable="0" parent="1">
          <mxGeometry x="1350" y="1340" width="150" height="150" as="geometry" />
        </mxCell>
        <mxCell id="yWZJ3h4OkLtdrg_D4UX2-141" value="" style="rounded=0;whiteSpace=wrap;html=1;" vertex="1" parent="yWZJ3h4OkLtdrg_D4UX2-140">
          <mxGeometry width="150" height="150" as="geometry" />
        </mxCell>
        <mxCell id="yWZJ3h4OkLtdrg_D4UX2-142" value="" style="endArrow=none;html=1;rounded=0;exitX=0;exitY=0;exitDx=0;exitDy=0;entryX=1;entryY=1;entryDx=0;entryDy=0;" edge="1" parent="yWZJ3h4OkLtdrg_D4UX2-140" source="yWZJ3h4OkLtdrg_D4UX2-141" target="yWZJ3h4OkLtdrg_D4UX2-141">
          <mxGeometry width="50" height="50" relative="1" as="geometry">
            <mxPoint x="345" y="135" as="sourcePoint" />
            <mxPoint x="420" y="60" as="targetPoint" />
          </mxGeometry>
        </mxCell>
        <mxCell id="yWZJ3h4OkLtdrg_D4UX2-143" value="" style="endArrow=none;html=1;rounded=0;exitX=0;exitY=1;exitDx=0;exitDy=0;entryX=1;entryY=0;entryDx=0;entryDy=0;" edge="1" parent="yWZJ3h4OkLtdrg_D4UX2-140" source="yWZJ3h4OkLtdrg_D4UX2-141" target="yWZJ3h4OkLtdrg_D4UX2-141">
          <mxGeometry width="50" height="50" relative="1" as="geometry">
            <mxPoint x="15" y="15" as="sourcePoint" />
            <mxPoint x="165" y="165" as="targetPoint" />
          </mxGeometry>
        </mxCell>
        <mxCell id="yWZJ3h4OkLtdrg_D4UX2-144" value="" style="rounded=0;whiteSpace=wrap;html=1;container=1;collapsible=0;" vertex="1" parent="1">
          <mxGeometry x="1500" y="1340" width="200" height="150" as="geometry" />
        </mxCell>
        <mxCell id="yWZJ3h4OkLtdrg_D4UX2-145" value="" style="ellipse;whiteSpace=wrap;html=1;aspect=fixed;container=1;collapsible=0;fillColor=#008a00;strokeColor=#005700;fontColor=#ffffff;" vertex="1" parent="yWZJ3h4OkLtdrg_D4UX2-144">
          <mxGeometry x="160" y="110" width="30" height="30" as="geometry" />
        </mxCell>
        <mxCell id="yWZJ3h4OkLtdrg_D4UX2-146" value="" style="shape=cross;whiteSpace=wrap;html=1;strokeColor=none;" vertex="1" parent="yWZJ3h4OkLtdrg_D4UX2-145">
          <mxGeometry x="5.625" y="5.625" width="18.75" height="18.75" as="geometry" />
        </mxCell>
        <mxCell id="yWZJ3h4OkLtdrg_D4UX2-147" value="" style="ellipse;whiteSpace=wrap;html=1;aspect=fixed;fillColor=#e51400;fontColor=#ffffff;strokeColor=#B20000;container=1;collapsible=0;" vertex="1" parent="yWZJ3h4OkLtdrg_D4UX2-144">
          <mxGeometry x="50" y="110" width="30" height="30" as="geometry" />
        </mxCell>
        <mxCell id="yWZJ3h4OkLtdrg_D4UX2-148" value="" style="rounded=0;whiteSpace=wrap;html=1;strokeColor=none;" vertex="1" parent="yWZJ3h4OkLtdrg_D4UX2-147">
          <mxGeometry x="3.75" y="13.125" width="22.5" height="3.75" as="geometry" />
        </mxCell>
        <mxCell id="yWZJ3h4OkLtdrg_D4UX2-149" value="125" style="rounded=0;whiteSpace=wrap;html=1;fillColor=none;fontColor=#333333;strokeColor=#d1d1d1;fontSize=20;" vertex="1" parent="yWZJ3h4OkLtdrg_D4UX2-144">
          <mxGeometry x="90" y="100" width="60" height="40" as="geometry" />
        </mxCell>
        <mxCell id="yWZJ3h4OkLtdrg_D4UX2-150" value="Rp 25.000" style="text;align=right;verticalAlign=middle;rounded=0;fontSize=20;fontColor=#000000;fontStyle=0;spacing=0;spacingLeft=10;spacingTop=5;html=1;whiteSpace=wrap;spacingRight=10;" vertex="1" parent="yWZJ3h4OkLtdrg_D4UX2-144">
          <mxGeometry y="30" width="200" height="30" as="geometry" />
        </mxCell>
        <mxCell id="yWZJ3h4OkLtdrg_D4UX2-151" value="Nama Tiket" style="text;align=left;verticalAlign=middle;rounded=0;fontSize=20;fontColor=#000000;fontStyle=1;spacing=0;spacingLeft=10;spacingTop=5;html=1;whiteSpace=wrap;" vertex="1" parent="yWZJ3h4OkLtdrg_D4UX2-144">
          <mxGeometry width="200" height="30" as="geometry" />
        </mxCell>
        <mxCell id="yWZJ3h4OkLtdrg_D4UX2-152" value="" style="group" vertex="1" connectable="0" parent="1">
          <mxGeometry x="1710" y="1340" width="150" height="150" as="geometry" />
        </mxCell>
        <mxCell id="yWZJ3h4OkLtdrg_D4UX2-153" value="" style="rounded=0;whiteSpace=wrap;html=1;" vertex="1" parent="yWZJ3h4OkLtdrg_D4UX2-152">
          <mxGeometry width="150" height="150" as="geometry" />
        </mxCell>
        <mxCell id="yWZJ3h4OkLtdrg_D4UX2-154" value="" style="endArrow=none;html=1;rounded=0;exitX=0;exitY=0;exitDx=0;exitDy=0;entryX=1;entryY=1;entryDx=0;entryDy=0;" edge="1" parent="yWZJ3h4OkLtdrg_D4UX2-152" source="yWZJ3h4OkLtdrg_D4UX2-153" target="yWZJ3h4OkLtdrg_D4UX2-153">
          <mxGeometry width="50" height="50" relative="1" as="geometry">
            <mxPoint x="345" y="135" as="sourcePoint" />
            <mxPoint x="420" y="60" as="targetPoint" />
          </mxGeometry>
        </mxCell>
        <mxCell id="yWZJ3h4OkLtdrg_D4UX2-155" value="" style="endArrow=none;html=1;rounded=0;exitX=0;exitY=1;exitDx=0;exitDy=0;entryX=1;entryY=0;entryDx=0;entryDy=0;" edge="1" parent="yWZJ3h4OkLtdrg_D4UX2-152" source="yWZJ3h4OkLtdrg_D4UX2-153" target="yWZJ3h4OkLtdrg_D4UX2-153">
          <mxGeometry width="50" height="50" relative="1" as="geometry">
            <mxPoint x="15" y="15" as="sourcePoint" />
            <mxPoint x="165" y="165" as="targetPoint" />
          </mxGeometry>
        </mxCell>
        <mxCell id="yWZJ3h4OkLtdrg_D4UX2-156" value="" style="rounded=0;whiteSpace=wrap;html=1;container=1;collapsible=0;" vertex="1" parent="1">
          <mxGeometry x="1860" y="1340" width="200" height="150" as="geometry" />
        </mxCell>
        <mxCell id="yWZJ3h4OkLtdrg_D4UX2-157" value="" style="ellipse;whiteSpace=wrap;html=1;aspect=fixed;container=1;collapsible=0;fillColor=#008a00;strokeColor=#005700;fontColor=#ffffff;" vertex="1" parent="yWZJ3h4OkLtdrg_D4UX2-156">
          <mxGeometry x="160" y="110" width="30" height="30" as="geometry" />
        </mxCell>
        <mxCell id="yWZJ3h4OkLtdrg_D4UX2-158" value="" style="shape=cross;whiteSpace=wrap;html=1;strokeColor=none;" vertex="1" parent="yWZJ3h4OkLtdrg_D4UX2-157">
          <mxGeometry x="5.625" y="5.625" width="18.75" height="18.75" as="geometry" />
        </mxCell>
        <mxCell id="yWZJ3h4OkLtdrg_D4UX2-159" value="" style="ellipse;whiteSpace=wrap;html=1;aspect=fixed;fillColor=#e51400;fontColor=#ffffff;strokeColor=#B20000;container=1;collapsible=0;" vertex="1" parent="yWZJ3h4OkLtdrg_D4UX2-156">
          <mxGeometry x="50" y="110" width="30" height="30" as="geometry" />
        </mxCell>
        <mxCell id="yWZJ3h4OkLtdrg_D4UX2-160" value="" style="rounded=0;whiteSpace=wrap;html=1;strokeColor=none;" vertex="1" parent="yWZJ3h4OkLtdrg_D4UX2-159">
          <mxGeometry x="3.75" y="13.125" width="22.5" height="3.75" as="geometry" />
        </mxCell>
        <mxCell id="yWZJ3h4OkLtdrg_D4UX2-161" value="125" style="rounded=0;whiteSpace=wrap;html=1;fillColor=none;fontColor=#333333;strokeColor=#d1d1d1;fontSize=20;" vertex="1" parent="yWZJ3h4OkLtdrg_D4UX2-156">
          <mxGeometry x="90" y="100" width="60" height="40" as="geometry" />
        </mxCell>
        <mxCell id="yWZJ3h4OkLtdrg_D4UX2-162" value="Rp 25.000" style="text;align=right;verticalAlign=middle;rounded=0;fontSize=20;fontColor=#000000;fontStyle=0;spacing=0;spacingLeft=10;spacingTop=5;html=1;whiteSpace=wrap;spacingRight=10;" vertex="1" parent="yWZJ3h4OkLtdrg_D4UX2-156">
          <mxGeometry y="30" width="200" height="30" as="geometry" />
        </mxCell>
        <mxCell id="yWZJ3h4OkLtdrg_D4UX2-163" value="Nama Tiket" style="text;align=left;verticalAlign=middle;rounded=0;fontSize=20;fontColor=#000000;fontStyle=1;spacing=0;spacingLeft=10;spacingTop=5;html=1;whiteSpace=wrap;" vertex="1" parent="yWZJ3h4OkLtdrg_D4UX2-156">
          <mxGeometry width="200" height="30" as="geometry" />
        </mxCell>
        <mxCell id="yWZJ3h4OkLtdrg_D4UX2-189" value="" style="group" vertex="1" connectable="0" parent="1">
          <mxGeometry x="990" y="1560" width="150" height="150" as="geometry" />
        </mxCell>
        <mxCell id="yWZJ3h4OkLtdrg_D4UX2-190" value="" style="rounded=0;whiteSpace=wrap;html=1;" vertex="1" parent="yWZJ3h4OkLtdrg_D4UX2-189">
          <mxGeometry width="150" height="150" as="geometry" />
        </mxCell>
        <mxCell id="yWZJ3h4OkLtdrg_D4UX2-191" value="" style="endArrow=none;html=1;rounded=0;exitX=0;exitY=0;exitDx=0;exitDy=0;entryX=1;entryY=1;entryDx=0;entryDy=0;" edge="1" parent="yWZJ3h4OkLtdrg_D4UX2-189" source="yWZJ3h4OkLtdrg_D4UX2-190" target="yWZJ3h4OkLtdrg_D4UX2-190">
          <mxGeometry width="50" height="50" relative="1" as="geometry">
            <mxPoint x="345" y="135" as="sourcePoint" />
            <mxPoint x="420" y="60" as="targetPoint" />
          </mxGeometry>
        </mxCell>
        <mxCell id="yWZJ3h4OkLtdrg_D4UX2-192" value="" style="endArrow=none;html=1;rounded=0;exitX=0;exitY=1;exitDx=0;exitDy=0;entryX=1;entryY=0;entryDx=0;entryDy=0;" edge="1" parent="yWZJ3h4OkLtdrg_D4UX2-189" source="yWZJ3h4OkLtdrg_D4UX2-190" target="yWZJ3h4OkLtdrg_D4UX2-190">
          <mxGeometry width="50" height="50" relative="1" as="geometry">
            <mxPoint x="15" y="15" as="sourcePoint" />
            <mxPoint x="165" y="165" as="targetPoint" />
          </mxGeometry>
        </mxCell>
        <mxCell id="yWZJ3h4OkLtdrg_D4UX2-193" value="" style="rounded=0;whiteSpace=wrap;html=1;container=1;collapsible=0;" vertex="1" parent="1">
          <mxGeometry x="1140" y="1560" width="200" height="150" as="geometry" />
        </mxCell>
        <mxCell id="yWZJ3h4OkLtdrg_D4UX2-194" value="" style="ellipse;whiteSpace=wrap;html=1;aspect=fixed;container=1;collapsible=0;fillColor=#008a00;strokeColor=#005700;fontColor=#ffffff;" vertex="1" parent="yWZJ3h4OkLtdrg_D4UX2-193">
          <mxGeometry x="160" y="110" width="30" height="30" as="geometry" />
        </mxCell>
        <mxCell id="yWZJ3h4OkLtdrg_D4UX2-195" value="" style="shape=cross;whiteSpace=wrap;html=1;strokeColor=none;" vertex="1" parent="yWZJ3h4OkLtdrg_D4UX2-194">
          <mxGeometry x="5.625" y="5.625" width="18.75" height="18.75" as="geometry" />
        </mxCell>
        <mxCell id="yWZJ3h4OkLtdrg_D4UX2-196" value="" style="ellipse;whiteSpace=wrap;html=1;aspect=fixed;fillColor=#e51400;fontColor=#ffffff;strokeColor=#B20000;container=1;collapsible=0;" vertex="1" parent="yWZJ3h4OkLtdrg_D4UX2-193">
          <mxGeometry x="50" y="110" width="30" height="30" as="geometry" />
        </mxCell>
        <mxCell id="yWZJ3h4OkLtdrg_D4UX2-197" value="" style="rounded=0;whiteSpace=wrap;html=1;strokeColor=none;" vertex="1" parent="yWZJ3h4OkLtdrg_D4UX2-196">
          <mxGeometry x="3.75" y="13.125" width="22.5" height="3.75" as="geometry" />
        </mxCell>
        <mxCell id="yWZJ3h4OkLtdrg_D4UX2-198" value="125" style="rounded=0;whiteSpace=wrap;html=1;fillColor=none;fontColor=#333333;strokeColor=#d1d1d1;fontSize=20;" vertex="1" parent="yWZJ3h4OkLtdrg_D4UX2-193">
          <mxGeometry x="90" y="100" width="60" height="40" as="geometry" />
        </mxCell>
        <mxCell id="yWZJ3h4OkLtdrg_D4UX2-199" value="Rp 25.000" style="text;align=right;verticalAlign=middle;rounded=0;fontSize=20;fontColor=#000000;fontStyle=0;spacing=0;spacingLeft=10;spacingTop=5;html=1;whiteSpace=wrap;spacingRight=10;" vertex="1" parent="yWZJ3h4OkLtdrg_D4UX2-193">
          <mxGeometry y="30" width="200" height="30" as="geometry" />
        </mxCell>
        <mxCell id="yWZJ3h4OkLtdrg_D4UX2-200" value="Nama Tiket" style="text;align=left;verticalAlign=middle;rounded=0;fontSize=20;fontColor=#000000;fontStyle=1;spacing=0;spacingLeft=10;spacingTop=5;html=1;whiteSpace=wrap;" vertex="1" parent="yWZJ3h4OkLtdrg_D4UX2-193">
          <mxGeometry width="200" height="30" as="geometry" />
        </mxCell>
        <mxCell id="yWZJ3h4OkLtdrg_D4UX2-201" value="" style="group" vertex="1" connectable="0" parent="1">
          <mxGeometry x="1350" y="1560" width="150" height="150" as="geometry" />
        </mxCell>
        <mxCell id="yWZJ3h4OkLtdrg_D4UX2-202" value="" style="rounded=0;whiteSpace=wrap;html=1;" vertex="1" parent="yWZJ3h4OkLtdrg_D4UX2-201">
          <mxGeometry width="150" height="150" as="geometry" />
        </mxCell>
        <mxCell id="yWZJ3h4OkLtdrg_D4UX2-203" value="" style="endArrow=none;html=1;rounded=0;exitX=0;exitY=0;exitDx=0;exitDy=0;entryX=1;entryY=1;entryDx=0;entryDy=0;" edge="1" parent="yWZJ3h4OkLtdrg_D4UX2-201" source="yWZJ3h4OkLtdrg_D4UX2-202" target="yWZJ3h4OkLtdrg_D4UX2-202">
          <mxGeometry width="50" height="50" relative="1" as="geometry">
            <mxPoint x="345" y="135" as="sourcePoint" />
            <mxPoint x="420" y="60" as="targetPoint" />
          </mxGeometry>
        </mxCell>
        <mxCell id="yWZJ3h4OkLtdrg_D4UX2-204" value="" style="endArrow=none;html=1;rounded=0;exitX=0;exitY=1;exitDx=0;exitDy=0;entryX=1;entryY=0;entryDx=0;entryDy=0;" edge="1" parent="yWZJ3h4OkLtdrg_D4UX2-201" source="yWZJ3h4OkLtdrg_D4UX2-202" target="yWZJ3h4OkLtdrg_D4UX2-202">
          <mxGeometry width="50" height="50" relative="1" as="geometry">
            <mxPoint x="15" y="15" as="sourcePoint" />
            <mxPoint x="165" y="165" as="targetPoint" />
          </mxGeometry>
        </mxCell>
        <mxCell id="yWZJ3h4OkLtdrg_D4UX2-205" value="" style="rounded=0;whiteSpace=wrap;html=1;container=1;collapsible=0;" vertex="1" parent="1">
          <mxGeometry x="1500" y="1560" width="200" height="150" as="geometry" />
        </mxCell>
        <mxCell id="yWZJ3h4OkLtdrg_D4UX2-206" value="" style="ellipse;whiteSpace=wrap;html=1;aspect=fixed;container=1;collapsible=0;fillColor=#008a00;strokeColor=#005700;fontColor=#ffffff;" vertex="1" parent="yWZJ3h4OkLtdrg_D4UX2-205">
          <mxGeometry x="160" y="110" width="30" height="30" as="geometry" />
        </mxCell>
        <mxCell id="yWZJ3h4OkLtdrg_D4UX2-207" value="" style="shape=cross;whiteSpace=wrap;html=1;strokeColor=none;" vertex="1" parent="yWZJ3h4OkLtdrg_D4UX2-206">
          <mxGeometry x="5.625" y="5.625" width="18.75" height="18.75" as="geometry" />
        </mxCell>
        <mxCell id="yWZJ3h4OkLtdrg_D4UX2-208" value="" style="ellipse;whiteSpace=wrap;html=1;aspect=fixed;fillColor=#e51400;fontColor=#ffffff;strokeColor=#B20000;container=1;collapsible=0;" vertex="1" parent="yWZJ3h4OkLtdrg_D4UX2-205">
          <mxGeometry x="50" y="110" width="30" height="30" as="geometry" />
        </mxCell>
        <mxCell id="yWZJ3h4OkLtdrg_D4UX2-209" value="" style="rounded=0;whiteSpace=wrap;html=1;strokeColor=none;" vertex="1" parent="yWZJ3h4OkLtdrg_D4UX2-208">
          <mxGeometry x="3.75" y="13.125" width="22.5" height="3.75" as="geometry" />
        </mxCell>
        <mxCell id="yWZJ3h4OkLtdrg_D4UX2-210" value="125" style="rounded=0;whiteSpace=wrap;html=1;fillColor=none;fontColor=#333333;strokeColor=#d1d1d1;fontSize=20;" vertex="1" parent="yWZJ3h4OkLtdrg_D4UX2-205">
          <mxGeometry x="90" y="100" width="60" height="40" as="geometry" />
        </mxCell>
        <mxCell id="yWZJ3h4OkLtdrg_D4UX2-211" value="Rp 25.000" style="text;align=right;verticalAlign=middle;rounded=0;fontSize=20;fontColor=#000000;fontStyle=0;spacing=0;spacingLeft=10;spacingTop=5;html=1;whiteSpace=wrap;spacingRight=10;" vertex="1" parent="yWZJ3h4OkLtdrg_D4UX2-205">
          <mxGeometry y="30" width="200" height="30" as="geometry" />
        </mxCell>
        <mxCell id="yWZJ3h4OkLtdrg_D4UX2-212" value="Nama Tiket" style="text;align=left;verticalAlign=middle;rounded=0;fontSize=20;fontColor=#000000;fontStyle=1;spacing=0;spacingLeft=10;spacingTop=5;html=1;whiteSpace=wrap;" vertex="1" parent="yWZJ3h4OkLtdrg_D4UX2-205">
          <mxGeometry width="200" height="30" as="geometry" />
        </mxCell>
        <mxCell id="yWZJ3h4OkLtdrg_D4UX2-213" value="" style="group" vertex="1" connectable="0" parent="1">
          <mxGeometry x="1710" y="1560" width="150" height="150" as="geometry" />
        </mxCell>
        <mxCell id="yWZJ3h4OkLtdrg_D4UX2-214" value="" style="rounded=0;whiteSpace=wrap;html=1;" vertex="1" parent="yWZJ3h4OkLtdrg_D4UX2-213">
          <mxGeometry width="150" height="150" as="geometry" />
        </mxCell>
        <mxCell id="yWZJ3h4OkLtdrg_D4UX2-215" value="" style="endArrow=none;html=1;rounded=0;exitX=0;exitY=0;exitDx=0;exitDy=0;entryX=1;entryY=1;entryDx=0;entryDy=0;" edge="1" parent="yWZJ3h4OkLtdrg_D4UX2-213" source="yWZJ3h4OkLtdrg_D4UX2-214" target="yWZJ3h4OkLtdrg_D4UX2-214">
          <mxGeometry width="50" height="50" relative="1" as="geometry">
            <mxPoint x="345" y="135" as="sourcePoint" />
            <mxPoint x="420" y="60" as="targetPoint" />
          </mxGeometry>
        </mxCell>
        <mxCell id="yWZJ3h4OkLtdrg_D4UX2-216" value="" style="endArrow=none;html=1;rounded=0;exitX=0;exitY=1;exitDx=0;exitDy=0;entryX=1;entryY=0;entryDx=0;entryDy=0;" edge="1" parent="yWZJ3h4OkLtdrg_D4UX2-213" source="yWZJ3h4OkLtdrg_D4UX2-214" target="yWZJ3h4OkLtdrg_D4UX2-214">
          <mxGeometry width="50" height="50" relative="1" as="geometry">
            <mxPoint x="15" y="15" as="sourcePoint" />
            <mxPoint x="165" y="165" as="targetPoint" />
          </mxGeometry>
        </mxCell>
        <mxCell id="yWZJ3h4OkLtdrg_D4UX2-217" value="" style="rounded=0;whiteSpace=wrap;html=1;container=1;collapsible=0;" vertex="1" parent="1">
          <mxGeometry x="1860" y="1560" width="200" height="150" as="geometry" />
        </mxCell>
        <mxCell id="yWZJ3h4OkLtdrg_D4UX2-218" value="" style="ellipse;whiteSpace=wrap;html=1;aspect=fixed;container=1;collapsible=0;fillColor=#008a00;strokeColor=#005700;fontColor=#ffffff;" vertex="1" parent="yWZJ3h4OkLtdrg_D4UX2-217">
          <mxGeometry x="160" y="110" width="30" height="30" as="geometry" />
        </mxCell>
        <mxCell id="yWZJ3h4OkLtdrg_D4UX2-219" value="" style="shape=cross;whiteSpace=wrap;html=1;strokeColor=none;" vertex="1" parent="yWZJ3h4OkLtdrg_D4UX2-218">
          <mxGeometry x="5.625" y="5.625" width="18.75" height="18.75" as="geometry" />
        </mxCell>
        <mxCell id="yWZJ3h4OkLtdrg_D4UX2-220" value="" style="ellipse;whiteSpace=wrap;html=1;aspect=fixed;fillColor=#e51400;fontColor=#ffffff;strokeColor=#B20000;container=1;collapsible=0;" vertex="1" parent="yWZJ3h4OkLtdrg_D4UX2-217">
          <mxGeometry x="50" y="110" width="30" height="30" as="geometry" />
        </mxCell>
        <mxCell id="yWZJ3h4OkLtdrg_D4UX2-221" value="" style="rounded=0;whiteSpace=wrap;html=1;strokeColor=none;" vertex="1" parent="yWZJ3h4OkLtdrg_D4UX2-220">
          <mxGeometry x="3.75" y="13.125" width="22.5" height="3.75" as="geometry" />
        </mxCell>
        <mxCell id="yWZJ3h4OkLtdrg_D4UX2-222" value="125" style="rounded=0;whiteSpace=wrap;html=1;fillColor=none;fontColor=#333333;strokeColor=#d1d1d1;fontSize=20;" vertex="1" parent="yWZJ3h4OkLtdrg_D4UX2-217">
          <mxGeometry x="90" y="100" width="60" height="40" as="geometry" />
        </mxCell>
        <mxCell id="yWZJ3h4OkLtdrg_D4UX2-223" value="Rp 25.000" style="text;align=right;verticalAlign=middle;rounded=0;fontSize=20;fontColor=#000000;fontStyle=0;spacing=0;spacingLeft=10;spacingTop=5;html=1;whiteSpace=wrap;spacingRight=10;" vertex="1" parent="yWZJ3h4OkLtdrg_D4UX2-217">
          <mxGeometry y="30" width="200" height="30" as="geometry" />
        </mxCell>
        <mxCell id="yWZJ3h4OkLtdrg_D4UX2-224" value="Nama Tiket" style="text;align=left;verticalAlign=middle;rounded=0;fontSize=20;fontColor=#000000;fontStyle=1;spacing=0;spacingLeft=10;spacingTop=5;html=1;whiteSpace=wrap;" vertex="1" parent="yWZJ3h4OkLtdrg_D4UX2-217">
          <mxGeometry width="200" height="30" as="geometry" />
        </mxCell>
      </root>
    </mxGraphModel>
  </diagram>
  <diagram id="bmHpqDh1JfKH-Eu3nxkP" name="Use Case Diagram">
    <mxGraphModel dx="983" dy="539" grid="1" gridSize="10" guides="1" tooltips="1" connect="1" arrows="1" fold="1" page="1" pageScale="1" pageWidth="850" pageHeight="1100" math="0" shadow="0">
      <root>
        <mxCell id="0" />
        <mxCell id="1" parent="0" />
        <mxCell id="_EIZbLfaAADETWS-aI5k-9" style="rounded=0;orthogonalLoop=1;jettySize=auto;html=1;exitX=0.84;exitY=0.28;exitDx=0;exitDy=0;exitPerimeter=0;entryX=0;entryY=0.5;entryDx=0;entryDy=0;" edge="1" parent="1" source="_EIZbLfaAADETWS-aI5k-1" target="_EIZbLfaAADETWS-aI5k-8">
          <mxGeometry relative="1" as="geometry" />
        </mxCell>
        <mxCell id="_EIZbLfaAADETWS-aI5k-10" style="rounded=0;orthogonalLoop=1;jettySize=auto;html=1;exitX=0.87;exitY=0.65;exitDx=0;exitDy=0;exitPerimeter=0;entryX=0;entryY=0.5;entryDx=0;entryDy=0;" edge="1" parent="1" source="_EIZbLfaAADETWS-aI5k-1" target="_EIZbLfaAADETWS-aI5k-3">
          <mxGeometry relative="1" as="geometry" />
        </mxCell>
        <mxCell id="_EIZbLfaAADETWS-aI5k-11" style="rounded=0;orthogonalLoop=1;jettySize=auto;html=1;exitX=1;exitY=1;exitDx=0;exitDy=0;exitPerimeter=0;entryX=0;entryY=0.5;entryDx=0;entryDy=0;" edge="1" parent="1" source="_EIZbLfaAADETWS-aI5k-1" target="_EIZbLfaAADETWS-aI5k-4">
          <mxGeometry relative="1" as="geometry" />
        </mxCell>
        <mxCell id="_EIZbLfaAADETWS-aI5k-13" style="rounded=0;orthogonalLoop=1;jettySize=auto;html=1;exitX=0.84;exitY=0.28;exitDx=0;exitDy=0;exitPerimeter=0;entryX=0;entryY=0.5;entryDx=0;entryDy=0;" edge="1" parent="1" source="_EIZbLfaAADETWS-aI5k-1" target="_EIZbLfaAADETWS-aI5k-12">
          <mxGeometry relative="1" as="geometry" />
        </mxCell>
        <mxCell id="_EIZbLfaAADETWS-aI5k-33" style="rounded=0;orthogonalLoop=1;jettySize=auto;html=1;exitX=0.5;exitY=0;exitDx=0;exitDy=0;exitPerimeter=0;entryX=0;entryY=0.5;entryDx=0;entryDy=0;" edge="1" parent="1" source="_EIZbLfaAADETWS-aI5k-1" target="_EIZbLfaAADETWS-aI5k-31">
          <mxGeometry relative="1" as="geometry">
            <Array as="points">
              <mxPoint x="120" y="50" />
            </Array>
          </mxGeometry>
        </mxCell>
        <mxCell id="_EIZbLfaAADETWS-aI5k-1" value="" style="verticalLabelPosition=bottom;html=1;verticalAlign=top;align=center;strokeColor=none;fillColor=#00BEF2;shape=mxgraph.azure.user;" vertex="1" parent="1">
          <mxGeometry x="30" y="250" width="47.5" height="50" as="geometry" />
        </mxCell>
        <mxCell id="_EIZbLfaAADETWS-aI5k-3" value="Buka shift" style="ellipse;whiteSpace=wrap;html=1;fontSize=10;" vertex="1" parent="1">
          <mxGeometry x="160" y="300" width="120" height="40" as="geometry" />
        </mxCell>
        <mxCell id="_EIZbLfaAADETWS-aI5k-7" value="&amp;lt;&amp;lt; include &amp;gt;&amp;gt;" style="edgeStyle=orthogonalEdgeStyle;rounded=0;orthogonalLoop=1;jettySize=auto;html=1;entryX=0.5;entryY=1;entryDx=0;entryDy=0;fontSize=8;dashed=1;" edge="1" parent="1" source="_EIZbLfaAADETWS-aI5k-4" target="_EIZbLfaAADETWS-aI5k-3">
          <mxGeometry relative="1" as="geometry" />
        </mxCell>
        <mxCell id="_EIZbLfaAADETWS-aI5k-4" value="Tutup shift" style="ellipse;whiteSpace=wrap;html=1;fontSize=10;" vertex="1" parent="1">
          <mxGeometry x="160" y="390" width="120" height="40" as="geometry" />
        </mxCell>
        <mxCell id="_EIZbLfaAADETWS-aI5k-6" value="&amp;lt;&amp;lt; extend &amp;gt;&amp;gt;" style="edgeStyle=orthogonalEdgeStyle;rounded=0;orthogonalLoop=1;jettySize=auto;html=1;entryX=1;entryY=0.5;entryDx=0;entryDy=0;fontSize=8;dashed=1;" edge="1" parent="1" source="_EIZbLfaAADETWS-aI5k-5" target="_EIZbLfaAADETWS-aI5k-4">
          <mxGeometry relative="1" as="geometry" />
        </mxCell>
        <mxCell id="_EIZbLfaAADETWS-aI5k-5" value="Cetak laporan shift" style="ellipse;whiteSpace=wrap;html=1;fontSize=10;" vertex="1" parent="1">
          <mxGeometry x="360" y="390" width="120" height="40" as="geometry" />
        </mxCell>
        <mxCell id="_EIZbLfaAADETWS-aI5k-19" style="rounded=0;orthogonalLoop=1;jettySize=auto;html=1;exitX=0.5;exitY=1;exitDx=0;exitDy=0;entryX=0.5;entryY=0;entryDx=0;entryDy=0;dashed=1;" edge="1" parent="1" source="_EIZbLfaAADETWS-aI5k-8" target="_EIZbLfaAADETWS-aI5k-3">
          <mxGeometry relative="1" as="geometry">
            <Array as="points">
              <mxPoint x="220" y="290" />
            </Array>
          </mxGeometry>
        </mxCell>
        <mxCell id="_EIZbLfaAADETWS-aI5k-28" value="&lt;font style=&quot;font-size: 8px;&quot;&gt;&amp;lt;&amp;lt; include &amp;gt;&amp;gt;&lt;/font&gt;" style="edgeLabel;html=1;align=center;verticalAlign=middle;resizable=0;points=[];" vertex="1" connectable="0" parent="_EIZbLfaAADETWS-aI5k-19">
          <mxGeometry x="-0.3079" y="1" relative="1" as="geometry">
            <mxPoint as="offset" />
          </mxGeometry>
        </mxCell>
        <mxCell id="_EIZbLfaAADETWS-aI5k-8" value="Lihat katalog tiket&lt;br&gt;&lt;font style=&quot;font-size: 7px;&quot;&gt;(Inquiry ticket)&lt;/font&gt;" style="ellipse;whiteSpace=wrap;html=1;fontSize=10;" vertex="1" parent="1">
          <mxGeometry x="160" y="210" width="120" height="40" as="geometry" />
        </mxCell>
        <mxCell id="_EIZbLfaAADETWS-aI5k-30" value="&lt;font style=&quot;font-size: 8px;&quot;&gt;&amp;lt;&amp;lt; extend &amp;gt;&amp;gt;&lt;/font&gt;" style="edgeStyle=orthogonalEdgeStyle;rounded=0;orthogonalLoop=1;jettySize=auto;html=1;entryX=0.5;entryY=0;entryDx=0;entryDy=0;dashed=1;" edge="1" parent="1" source="_EIZbLfaAADETWS-aI5k-12" target="_EIZbLfaAADETWS-aI5k-8">
          <mxGeometry x="-0.5997" relative="1" as="geometry">
            <mxPoint as="offset" />
          </mxGeometry>
        </mxCell>
        <mxCell id="_EIZbLfaAADETWS-aI5k-12" value="Transaksi tiket&lt;br&gt;&lt;font style=&quot;font-size: 7px;&quot;&gt;(Booking ticket)&lt;/font&gt;" style="ellipse;whiteSpace=wrap;html=1;fontSize=10;" vertex="1" parent="1">
          <mxGeometry x="160" y="120" width="120" height="40" as="geometry" />
        </mxCell>
        <mxCell id="_EIZbLfaAADETWS-aI5k-17" value="&lt;font style=&quot;font-size: 8px;&quot;&gt;&amp;lt;&amp;lt; extend &amp;gt;&amp;gt;&lt;/font&gt;" style="rounded=0;orthogonalLoop=1;jettySize=auto;html=1;entryX=1;entryY=0.5;entryDx=0;entryDy=0;dashed=1;" edge="1" parent="1" source="_EIZbLfaAADETWS-aI5k-15" target="_EIZbLfaAADETWS-aI5k-3">
          <mxGeometry relative="1" as="geometry" />
        </mxCell>
        <mxCell id="_EIZbLfaAADETWS-aI5k-15" value="Account decode" style="ellipse;whiteSpace=wrap;html=1;fontSize=10;" vertex="1" parent="1">
          <mxGeometry x="360" y="300" width="120" height="40" as="geometry" />
        </mxCell>
        <mxCell id="_EIZbLfaAADETWS-aI5k-22" style="edgeStyle=orthogonalEdgeStyle;rounded=0;orthogonalLoop=1;jettySize=auto;html=1;entryX=1;entryY=0.5;entryDx=0;entryDy=0;dashed=1;" edge="1" parent="1" source="_EIZbLfaAADETWS-aI5k-21" target="_EIZbLfaAADETWS-aI5k-12">
          <mxGeometry relative="1" as="geometry" />
        </mxCell>
        <mxCell id="_EIZbLfaAADETWS-aI5k-23" value="&lt;font style=&quot;font-size: 8px;&quot;&gt;&amp;lt;&amp;lt; include &amp;gt;&amp;gt;&lt;/font&gt;" style="edgeLabel;html=1;align=center;verticalAlign=middle;resizable=0;points=[];" vertex="1" connectable="0" parent="_EIZbLfaAADETWS-aI5k-22">
          <mxGeometry x="0.0302" y="-1" relative="1" as="geometry">
            <mxPoint as="offset" />
          </mxGeometry>
        </mxCell>
        <mxCell id="_EIZbLfaAADETWS-aI5k-21" value="Payment" style="ellipse;whiteSpace=wrap;html=1;fontSize=10;" vertex="1" parent="1">
          <mxGeometry x="360" y="120" width="120" height="40" as="geometry" />
        </mxCell>
        <mxCell id="_EIZbLfaAADETWS-aI5k-25" value="" style="edgeStyle=orthogonalEdgeStyle;rounded=0;orthogonalLoop=1;jettySize=auto;html=1;entryX=0.5;entryY=1;entryDx=0;entryDy=0;dashed=1;" edge="1" parent="1" source="_EIZbLfaAADETWS-aI5k-24" target="_EIZbLfaAADETWS-aI5k-21">
          <mxGeometry relative="1" as="geometry" />
        </mxCell>
        <mxCell id="_EIZbLfaAADETWS-aI5k-26" value="&amp;lt;&amp;lt; include &amp;gt;&amp;gt;" style="edgeLabel;html=1;align=center;verticalAlign=middle;resizable=0;points=[];fontSize=8;" vertex="1" connectable="0" parent="_EIZbLfaAADETWS-aI5k-25">
          <mxGeometry x="0.4057" y="4" relative="1" as="geometry">
            <mxPoint x="4" y="15" as="offset" />
          </mxGeometry>
        </mxCell>
        <mxCell id="_EIZbLfaAADETWS-aI5k-24" value="Generate QR Ticket" style="ellipse;whiteSpace=wrap;html=1;fontSize=10;" vertex="1" parent="1">
          <mxGeometry x="360" y="210" width="120" height="40" as="geometry" />
        </mxCell>
        <mxCell id="_EIZbLfaAADETWS-aI5k-32" value="&lt;font style=&quot;font-size: 8px;&quot;&gt;&amp;lt;&amp;lt; include &amp;gt;&amp;gt;&lt;/font&gt;" style="edgeStyle=orthogonalEdgeStyle;rounded=0;orthogonalLoop=1;jettySize=auto;html=1;entryX=1;entryY=0.5;entryDx=0;entryDy=0;dashed=1;" edge="1" parent="1" source="_EIZbLfaAADETWS-aI5k-31" target="_EIZbLfaAADETWS-aI5k-24">
          <mxGeometry x="-0.3632" relative="1" as="geometry">
            <Array as="points">
              <mxPoint x="500" y="50" />
              <mxPoint x="500" y="230" />
            </Array>
            <mxPoint as="offset" />
          </mxGeometry>
        </mxCell>
        <mxCell id="_EIZbLfaAADETWS-aI5k-31" value="Print QR Ticket" style="ellipse;whiteSpace=wrap;html=1;fontSize=10;" vertex="1" parent="1">
          <mxGeometry x="360" y="30" width="120" height="40" as="geometry" />
        </mxCell>
      </root>
    </mxGraphModel>
  </diagram>
</mxfile>
